<?xml version="1.0" encoding="utf-8"?>
<!-- Generator: Adobe Illustrator 16.0.0, SVG Export Plug-In . SVG Version: 6.00 Build 0)  -->
<!DOCTYPE svg PUBLIC "-//W3C//DTD SVG 1.1//EN" "http://www.w3.org/Graphics/SVG/1.1/DTD/svg11.dtd">
<svg version="1.1" id="Layer_1" xmlns="http://www.w3.org/2000/svg" xmlns:xlink="http://www.w3.org/1999/xlink" x="0px" y="0px"
	 width="291px" height="290.996px" viewBox="45.098 45.098 291 290.996" enable-background="new 45.098 45.098 291 290.996"
	 xml:space="preserve">
<g id="Layer_1_1_" display="none">
	<g display="inline">
		<path fill="#05FD05" d="M542.787,465.373c66.45,81.45,97.054,148.2,81.604,178.05c-11.854,22.65-85.053,66.9-138.902,83.852
			c-44.396,13.949-102.6,19.949-150.6,15.3c-57.301-5.55-115.351-26.101-165.15-58.5c-41.85-27.3-51.3-38.55-51.3-60.9
			c0-44.85,49.35-123.446,133.8-213.146c48-50.854,114.75-110.55,122.104-108.9C388.438,304.273,500.787,413.773,542.787,465.373
			L542.787,465.373z"/>
		<path fill="#05FD05" d="M270.837,203.773c-44.55-40.352-87.149-80.852-129.604-95.102c-22.8-7.649-24.45-7.2-43.05,12.15
			c-43.801,45.6-80.25,119.55-90.45,183.6c-8.101,51.304-9.15,65.7-6.3,90.75c8.399,75.75,25.949,128.104,60.75,181.354
			c14.25,21.896,18.149,25.949,13.949,14.85c-6.3-16.5-0.449-56.25,14.25-96C111.837,436.873,171.237,326.023,270.837,203.773
			L270.837,203.773z"/>
		<path fill="#05FD05" d="M738.237,299.023c-25.351-120-101.25-195.45-111.899-195.45c-10.95,0-36.304,9.75-54,20.85
			c-34.95,21.75-61.5,47.101-96.45,79.2c63.601,79.95,153.3,209.101,184.351,303.45c10.2,31.05,14.55,61.649,11.104,78.45
			c-2.554,12.75-2.554,12.75,2.101,6.896c9.149-11.55,29.85-46.946,38.1-65.25c11.104-24.3,22.5-60.3,27.9-88.05
			C745.887,405.373,745.287,332.923,738.237,299.023L738.237,299.023z"/>
		<path fill="#05FD05" d="M199.887,52.573c71.55-3.75,164.55,51.75,171.449,53.1c1.05,0.15,15.601-6.3,32.397-14.55
			c95.854-46.65,141-38.7,161.104-37.8c-95.851-58.95-229.051-75-350.851-17.55C178.887,52.423,177.987,53.623,199.887,52.573z"/>
	</g>
</g>
<g id="Layer_2">
	<g id="Arrow_Down_-_Orange">
		<g>
			<polygon fill="#FFFFFF" points="190.598,45.098 45.098,190.593 117.849,190.593 117.849,336.094 263.348,336.094 
				263.348,190.593 336.098,190.593 			"/>
		</g>
	</g>
</g>
</svg>
