<?xml version="1.0" encoding="utf-8"?>
<!-- Generator: Adobe Illustrator 16.0.0, SVG Export Plug-In . SVG Version: 6.00 Build 0)  -->
<!DOCTYPE svg PUBLIC "-//W3C//DTD SVG 1.1//EN" "http://www.w3.org/Graphics/SVG/1.1/DTD/svg11.dtd">
<svg version="1.1" id="Layer_1" xmlns="http://www.w3.org/2000/svg" xmlns:xlink="http://www.w3.org/1999/xlink" x="0px" y="0px"
	 width="516.588px" height="587.166px" viewBox="0 0 516.588 587.166" enable-background="new 0 0 516.588 587.166"
	 xml:space="preserve">
<g>
	<g>
		<g>
			<g>
				<defs>
					<path id="SVGID_1_" d="M52.095,73.186c20.644,3.573,34.68,22.94,31.348,43.261c-3.333,20.323-22.769,33.899-43.414,30.328
						c-20.646-3.57-34.681-22.938-31.349-43.258C12.012,83.195,31.45,69.616,52.095,73.186z"/>
				</defs>
				<clipPath id="SVGID_2_">
					<use xlink:href="#SVGID_1_"  overflow="visible"/>
				</clipPath>
				<g clip-path="url(#SVGID_2_)">
					
						<linearGradient id="SVGID_3_" gradientUnits="userSpaceOnUse" x1="-177.6543" y1="561.2412" x2="-68.9272" y2="561.2412" gradientTransform="matrix(1 0 0 -1 116 666.166)">
						<stop  offset="0" style="stop-color:#FFC431"/>
						<stop  offset="1" style="stop-color:#FF8300"/>
					</linearGradient>
					<polygon fill="url(#SVGID_3_)" points="47.073,178.687 45.865,179.531 -61.654,31.162 -60.446,30.318 					"/>
					
						<linearGradient id="SVGID_4_" gradientUnits="userSpaceOnUse" x1="-170.5894" y1="560.0195" x2="-61.8628" y2="560.0195" gradientTransform="matrix(1 0 0 -1 116 666.166)">
						<stop  offset="0" style="stop-color:#FFC431"/>
						<stop  offset="1" style="stop-color:#FF8300"/>
					</linearGradient>
					<polygon fill="url(#SVGID_4_)" points="54.137,179.909 52.927,180.753 -54.589,32.384 -53.381,31.54 					"/>
					
						<linearGradient id="SVGID_5_" gradientUnits="userSpaceOnUse" x1="-163.5254" y1="558.7979" x2="-54.7974" y2="558.7979" gradientTransform="matrix(1 0 0 -1 116 666.166)">
						<stop  offset="0" style="stop-color:#FFC431"/>
						<stop  offset="1" style="stop-color:#FF8300"/>
					</linearGradient>
					<polygon fill="url(#SVGID_5_)" points="61.203,181.13 59.992,181.975 -47.525,33.606 -46.316,32.761 					"/>
					
						<linearGradient id="SVGID_6_" gradientUnits="userSpaceOnUse" x1="-156.4619" y1="557.5762" x2="-47.7354" y2="557.5762" gradientTransform="matrix(1 0 0 -1 116 666.166)">
						<stop  offset="0" style="stop-color:#FFC431"/>
						<stop  offset="1" style="stop-color:#FF8300"/>
					</linearGradient>
					<polygon fill="url(#SVGID_6_)" points="68.265,182.352 67.058,183.196 -40.462,34.829 -39.252,33.983 					"/>
					
						<linearGradient id="SVGID_7_" gradientUnits="userSpaceOnUse" x1="-149.3979" y1="556.3555" x2="-40.6714" y2="556.3555" gradientTransform="matrix(1 0 0 -1 116 666.166)">
						<stop  offset="0" style="stop-color:#FFC431"/>
						<stop  offset="1" style="stop-color:#FF8300"/>
					</linearGradient>
					<polygon fill="url(#SVGID_7_)" points="75.329,183.574 74.122,184.418 -33.398,36.051 -32.188,35.203 					"/>
					
						<linearGradient id="SVGID_8_" gradientUnits="userSpaceOnUse" x1="-142.3325" y1="555.1328" x2="-33.606" y2="555.1328" gradientTransform="matrix(1 0 0 -1 116 666.166)">
						<stop  offset="0" style="stop-color:#FFC431"/>
						<stop  offset="1" style="stop-color:#FF8300"/>
					</linearGradient>
					<polygon fill="url(#SVGID_8_)" points="82.394,184.796 81.185,185.64 -26.333,37.271 -25.124,36.427 					"/>
					
						<linearGradient id="SVGID_9_" gradientUnits="userSpaceOnUse" x1="-135.269" y1="553.9111" x2="-26.5405" y2="553.9111" gradientTransform="matrix(1 0 0 -1 116 666.166)">
						<stop  offset="0" style="stop-color:#FFC431"/>
						<stop  offset="1" style="stop-color:#FF8300"/>
					</linearGradient>
					<polygon fill="url(#SVGID_9_)" points="89.459,186.018 88.251,186.862 -19.269,38.494 -18.06,37.648 					"/>
					
						<linearGradient id="SVGID_10_" gradientUnits="userSpaceOnUse" x1="-128.2041" y1="552.6885" x2="-19.4771" y2="552.6885" gradientTransform="matrix(1 0 0 -1 116 666.166)">
						<stop  offset="0" style="stop-color:#FFC431"/>
						<stop  offset="1" style="stop-color:#FF8300"/>
					</linearGradient>
					<polygon fill="url(#SVGID_10_)" points="96.523,187.24 95.313,188.085 -12.204,39.716 -10.997,38.87 					"/>
					
						<linearGradient id="SVGID_11_" gradientUnits="userSpaceOnUse" x1="-121.1411" y1="551.4678" x2="-12.4126" y2="551.4678" gradientTransform="matrix(1 0 0 -1 116 666.166)">
						<stop  offset="0" style="stop-color:#FFC431"/>
						<stop  offset="1" style="stop-color:#FF8300"/>
					</linearGradient>
					<polygon fill="url(#SVGID_11_)" points="103.587,188.461 102.378,189.306 -5.141,40.937 -3.931,40.091 					"/>
					
						<linearGradient id="SVGID_12_" gradientUnits="userSpaceOnUse" x1="-114.0757" y1="550.2441" x2="-5.3491" y2="550.2441" gradientTransform="matrix(1 0 0 -1 116 666.166)">
						<stop  offset="0" style="stop-color:#FFC431"/>
						<stop  offset="1" style="stop-color:#FF8300"/>
					</linearGradient>
					<polygon fill="url(#SVGID_12_)" points="110.651,189.684 109.442,190.528 1.924,42.16 3.132,41.315 					"/>
					
						<linearGradient id="SVGID_13_" gradientUnits="userSpaceOnUse" x1="-107.0122" y1="549.0244" x2="1.7148" y2="549.0244" gradientTransform="matrix(1 0 0 -1 116 666.166)">
						<stop  offset="0" style="stop-color:#FFC431"/>
						<stop  offset="1" style="stop-color:#FF8300"/>
					</linearGradient>
					<polygon fill="url(#SVGID_13_)" points="117.715,190.905 116.506,191.75 8.988,43.381 10.197,42.535 					"/>
					
						<linearGradient id="SVGID_14_" gradientUnits="userSpaceOnUse" x1="-99.9473" y1="547.8027" x2="8.7803" y2="547.8027" gradientTransform="matrix(1 0 0 -1 116 666.166)">
						<stop  offset="0" style="stop-color:#FFC431"/>
						<stop  offset="1" style="stop-color:#FF8300"/>
					</linearGradient>
					<polygon fill="url(#SVGID_14_)" points="124.78,192.127 123.57,192.97 16.053,44.603 17.261,43.757 					"/>
					
						<linearGradient id="SVGID_15_" gradientUnits="userSpaceOnUse" x1="-92.8833" y1="546.5791" x2="15.8433" y2="546.5791" gradientTransform="matrix(1 0 0 -1 116 666.166)">
						<stop  offset="0" style="stop-color:#FFC431"/>
						<stop  offset="1" style="stop-color:#FF8300"/>
					</linearGradient>
					<polygon fill="url(#SVGID_15_)" points="131.843,193.35 130.636,194.193 23.117,45.825 24.326,44.98 					"/>
					
						<linearGradient id="SVGID_16_" gradientUnits="userSpaceOnUse" x1="-85.8203" y1="545.3584" x2="22.9077" y2="545.3584" gradientTransform="matrix(1 0 0 -1 116 666.166)">
						<stop  offset="0" style="stop-color:#FFC431"/>
						<stop  offset="1" style="stop-color:#FF8300"/>
					</linearGradient>
					<polygon fill="url(#SVGID_16_)" points="138.908,194.571 137.699,195.414 30.18,47.047 31.39,46.201 					"/>
					
						<linearGradient id="SVGID_17_" gradientUnits="userSpaceOnUse" x1="-78.7554" y1="544.1357" x2="29.9736" y2="544.1357" gradientTransform="matrix(1 0 0 -1 116 666.166)">
						<stop  offset="0" style="stop-color:#FFC431"/>
						<stop  offset="1" style="stop-color:#FF8300"/>
					</linearGradient>
					<polygon fill="url(#SVGID_17_)" points="145.974,195.792 144.763,196.636 37.245,48.269 38.454,47.424 					"/>
					
						<linearGradient id="SVGID_18_" gradientUnits="userSpaceOnUse" x1="-71.6904" y1="542.9131" x2="37.0366" y2="542.9131" gradientTransform="matrix(1 0 0 -1 116 666.166)">
						<stop  offset="0" style="stop-color:#FFC431"/>
						<stop  offset="1" style="stop-color:#FF8300"/>
					</linearGradient>
					<polygon fill="url(#SVGID_18_)" points="153.037,197.015 151.828,197.86 44.31,49.489 45.517,48.645 					"/>
					
						<linearGradient id="SVGID_19_" gradientUnits="userSpaceOnUse" x1="-64.626" y1="541.6924" x2="44.1006" y2="541.6924" gradientTransform="matrix(1 0 0 -1 116 666.166)">
						<stop  offset="0" style="stop-color:#FFC431"/>
						<stop  offset="1" style="stop-color:#FF8300"/>
					</linearGradient>
					<polygon fill="url(#SVGID_19_)" points="160.101,198.235 158.891,199.082 51.374,50.713 52.583,49.867 					"/>
				</g>
			</g>
		</g>
	</g>
</g>
<g>
	<g opacity="0.76">
		<g>
			<g>
				<g>
					<defs>
						<circle id="SVGID_20_" cx="213.925" cy="539.507" r="25.855"/>
					</defs>
					<clipPath id="SVGID_21_">
						<use xlink:href="#SVGID_20_"  overflow="visible"/>
					</clipPath>
					<g clip-path="url(#SVGID_21_)">
						
							<rect x="228.751" y="443.602" transform="matrix(-0.909 0.4169 -0.4169 -0.909 648.7144 870.9537)" fill="#FFACC9" width="1.019" height="125.411"/>
						
							<rect x="227.064" y="448.187" transform="matrix(-0.909 0.4169 -0.4169 -0.909 647.4037 880.402)" fill="#FFACC9" width="1.019" height="125.405"/>
						
							<rect x="225.335" y="452.796" transform="matrix(-0.9091 0.4166 -0.4166 -0.9091 645.9207 890.0318)" fill="#FFACC9" width="1.017" height="125.4"/>
						
							<rect x="223.63" y="457.394" transform="matrix(-0.9082 0.4186 -0.4186 -0.9082 645.4253 898.5994)" fill="#FFACC9" width="1.019" height="125.412"/>
						
							<rect x="221.931" y="461.938" transform="matrix(-0.9087 0.4174 -0.4174 -0.9087 643.5667 908.5396)" fill="#FFACC9" width="1.018" height="125.404"/>
						
							<rect x="220.222" y="466.531" transform="matrix(-0.9085 0.4178 -0.4178 -0.9085 642.4064 917.8194)" fill="#FFACC9" width="1.019" height="125.402"/>
						
							<rect x="218.552" y="471.115" transform="matrix(-0.9088 0.4172 -0.4172 -0.9088 640.868 927.5455)" fill="#FFACC9" width="1.018" height="125.399"/>
						
							<rect x="216.873" y="475.658" transform="matrix(-0.9085 0.4178 -0.4178 -0.9085 639.7961 936.6614)" fill="#FFACC9" width="1.017" height="125.395"/>
						
							<rect x="215.151" y="480.27" transform="matrix(-0.9094 0.4158 -0.4158 -0.9094 637.5706 947.0909)" fill="#FFACC9" width="1.017" height="125.397"/>
						
							<rect x="213.507" y="484.869" transform="matrix(-0.9085 0.4178 -0.4178 -0.9085 637.223 955.6533)" fill="#FFACC9" width="1.017" height="125.403"/>
						
							<rect x="211.809" y="489.437" transform="matrix(-0.9082 0.4186 -0.4186 -0.9082 636.2509 964.7121)" fill="#FFACC9" width="1.017" height="125.404"/>
						
							<rect x="210.081" y="494.028" transform="matrix(-0.9087 0.4174 -0.4174 -0.9087 634.3423 974.7336)" fill="#FFACC9" width="1.018" height="125.401"/>
						
							<rect x="208.406" y="498.58" transform="matrix(-0.9085 0.4178 -0.4178 -0.9085 633.213 983.9452)" fill="#FFACC9" width="1.017" height="125.395"/>
						
							<rect x="206.717" y="503.169" transform="matrix(-0.9079 0.4192 -0.4192 -0.9079 632.5695 992.7622)" fill="#FFACC9" width="1.018" height="125.405"/>
						
							<rect x="205.018" y="507.773" transform="matrix(-0.9076 0.4198 -0.4198 -0.9076 631.5471 1001.9703)" fill="#FFACC9" width="1.019" height="125.402"/>
						
							<rect x="203.339" y="512.331" transform="matrix(-0.9075 0.42 -0.42 -0.9075 630.3437 1011.2849)" fill="#FFACC9" width="1.018" height="125.401"/>
						
							<rect x="201.627" y="516.901" transform="matrix(-0.9085 0.4178 -0.4178 -0.9085 627.9288 1021.7455)" fill="#FFACC9" width="1.017" height="125.395"/>
					</g>
				</g>
			</g>
		</g>
	</g>
	
		<linearGradient id="SVGID_22_" gradientUnits="userSpaceOnUse" x1="-697.6577" y1="-734.1377" x2="-697.6577" y2="-767.5961" gradientTransform="matrix(-0.938 -0.3467 -0.3467 0.938 -837.1151 925.8972)">
		<stop  offset="0.0025" style="stop-color:#FFE7DD;stop-opacity:0"/>
		<stop  offset="1" style="stop-color:#FFC0A2"/>
	</linearGradient>
	<circle fill="url(#SVGID_22_)" cx="78.67" cy="460.61" r="22.776"/>
	
		<linearGradient id="SVGID_23_" gradientUnits="userSpaceOnUse" x1="-890.8374" y1="-719.3472" x2="-890.8374" y2="-759.2544" gradientTransform="matrix(-0.938 -0.3467 -0.3467 0.938 -837.1151 925.8972)">
		<stop  offset="0.0025" style="stop-color:#FFE7DD;stop-opacity:0"/>
		<stop  offset="0.1802" style="stop-color:#FFDBCC;stop-opacity:0.1782"/>
		<stop  offset="0.4767" style="stop-color:#FFCCB5;stop-opacity:0.4754"/>
		<stop  offset="0.7565" style="stop-color:#FFC3A7;stop-opacity:0.7559"/>
		<stop  offset="1" style="stop-color:#FFC0A2"/>
	</linearGradient>
	<circle fill="url(#SVGID_23_)" cx="256.064" cy="537.888" r="27.166"/>
	
		<linearGradient id="SVGID_24_" gradientUnits="userSpaceOnUse" x1="-840.3481" y1="-747.3296" x2="-840.3481" y2="-768.6934" gradientTransform="matrix(-0.938 -0.3467 -0.3467 0.938 -837.1151 925.8972)">
		<stop  offset="0.0025" style="stop-color:#FFE7DD;stop-opacity:0"/>
		<stop  offset="0.1802" style="stop-color:#FFDBCC;stop-opacity:0.1782"/>
		<stop  offset="0.4767" style="stop-color:#FFCCB5;stop-opacity:0.4754"/>
		<stop  offset="0.7565" style="stop-color:#FFC3A7;stop-opacity:0.7559"/>
		<stop  offset="1" style="stop-color:#FFC0A2"/>
	</linearGradient>
	<circle fill="url(#SVGID_24_)" cx="214.604" cy="504.423" r="14.544"/>
	
		<linearGradient id="SVGID_25_" gradientUnits="userSpaceOnUse" x1="-673.5132" y1="-802.2104" x2="-673.5132" y2="-823.5751" gradientTransform="matrix(-0.938 -0.3467 -0.3467 0.938 -837.1151 925.8972)">
		<stop  offset="0.0025" style="stop-color:#FFE7DD;stop-opacity:0"/>
		<stop  offset="0.135" style="stop-color:#FFECDA;stop-opacity:0.1328"/>
		<stop  offset="0.5971" style="stop-color:#FFFAD1;stop-opacity:0.596"/>
		<stop  offset="1" style="stop-color:#FFFFCE"/>
	</linearGradient>
	<circle fill="url(#SVGID_25_)" cx="77.142" cy="395.099" r="14.543"/>
	<g>
		<g>
			<circle fill="#FFFFFF" cx="262.492" cy="512.955" r="0.671"/>
		</g>
		<g>
			<circle fill="#FFFFFF" cx="267.86" cy="514.939" r="0.671"/>
		</g>
		<g>
			<circle fill="#FFFFFF" cx="263.978" cy="508.941" r="0.672"/>
		</g>
		<g>
			<circle fill="#FFFFFF" cx="269.344" cy="510.926" r="0.67"/>
		</g>
		<g>
			<circle fill="#FFFFFF" cx="265.532" cy="504.733" r="0.672"/>
		</g>
		<g>
			<circle fill="#FFFFFF" cx="270.899" cy="506.718" r="0.67"/>
		</g>
		<g>
			<circle fill="#FFFFFF" cx="272.793" cy="516.762" r="0.67"/>
		</g>
		<g>
			<circle fill="#FFFFFF" cx="278.162" cy="518.748" r="0.671"/>
		</g>
		<g>
			<circle fill="#FFFFFF" cx="274.278" cy="512.749" r="0.67"/>
		</g>
		<g>
			<circle fill="#FFFFFF" cx="279.646" cy="514.733" r="0.67"/>
		</g>
		<g>
			<circle fill="#FFFFFF" cx="275.833" cy="508.541" r="0.67"/>
		</g>
		<g>
			<circle fill="#FFFFFF" cx="281.2" cy="510.526" r="0.67"/>
		</g>
	</g>
	<g>
		<circle fill="#FFFFFF" cx="141.469" cy="508.854" r="0.869"/>
		<circle fill="#FFFFFF" cx="136.965" cy="507.188" r="0.869"/>
		<circle fill="#FFFFFF" cx="132.461" cy="505.523" r="0.869"/>
	</g>
	<g opacity="0.28">
		<g>
			<g>
				<g>
					<defs>
						<circle id="SVGID_26_" cx="46.062" cy="406.851" r="20.502"/>
					</defs>
					<clipPath id="SVGID_27_">
						<use xlink:href="#SVGID_26_"  overflow="visible"/>
					</clipPath>
					<g clip-path="url(#SVGID_27_)">
						
							<rect x="57.785" y="330.808" transform="matrix(-0.9087 0.4174 -0.4174 -0.9087 269.9151 702.0273)" fill="#FFFFFF" width="0.807" height="99.444"/>
						
							<rect x="56.44" y="334.451" transform="matrix(-0.9087 0.4174 -0.4174 -0.9087 268.8684 709.5385)" fill="#FFFFFF" width="0.807" height="99.439"/>
						
							<rect x="55.117" y="338.092" transform="matrix(-0.9085 0.418 -0.418 -0.9085 268.062 716.9234)" fill="#FFFFFF" width="0.808" height="99.451"/>
						
							<rect x="53.779" y="341.702" transform="matrix(-0.9081 0.4187 -0.4187 -0.9081 267.2662 724.2014)" fill="#FFFFFF" width="0.807" height="99.439"/>
						
							<rect x="52.428" y="345.331" transform="matrix(-0.9089 0.417 -0.417 -0.9089 265.5857 732.0971)" fill="#FFFFFF" width="0.808" height="99.45"/>
						
							<rect x="51.074" y="348.992" transform="matrix(-0.9087 0.4175 -0.4175 -0.9087 264.7307 739.5228)" fill="#FFFFFF" width="0.809" height="99.449"/>
						
							<rect x="49.718" y="352.599" transform="matrix(-0.9081 0.4187 -0.4187 -0.9081 264.0801 746.6974)" fill="#FFFFFF" width="0.807" height="99.442"/>
						
							<rect x="48.397" y="356.243" transform="matrix(-0.9089 0.417 -0.417 -0.9089 262.4388 754.6049)" fill="#FFFFFF" width="0.808" height="99.446"/>
						
							<rect x="47.067" y="359.884" transform="matrix(-0.908 0.419 -0.419 -0.908 262.1923 761.6374)" fill="#FFFFFF" width="0.809" height="99.444"/>
						
							<rect x="45.722" y="363.511" transform="matrix(-0.9086 0.4177 -0.4177 -0.9086 260.6329 769.432)" fill="#FFFFFF" width="0.807" height="99.447"/>
						
							<rect x="44.349" y="367.148" transform="matrix(-0.9086 0.4177 -0.4177 -0.9086 259.5306 776.9457)" fill="#FFFFFF" width="0.807" height="99.444"/>
						
							<rect x="43.049" y="370.785" transform="matrix(-0.908 0.419 -0.419 -0.908 259.0941 784.1176)" fill="#FFFFFF" width="0.809" height="99.443"/>
						
							<rect x="41.683" y="374.426" transform="matrix(-0.9084 0.4181 -0.4181 -0.9084 257.668 791.8397)" fill="#FFFFFF" width="0.806" height="99.444"/>
						
							<rect x="40.314" y="378.061" transform="matrix(-0.9093 0.4162 -0.4162 -0.9093 255.7925 799.8118)" fill="#FFFFFF" width="0.807" height="99.452"/>
						
							<rect x="39.003" y="381.699" transform="matrix(-0.9085 0.418 -0.418 -0.9085 255.536 806.8817)" fill="#FFFFFF" width="0.808" height="99.451"/>
						
							<rect x="37.644" y="385.297" transform="matrix(-0.9083 0.4182 -0.4182 -0.9083 254.5398 814.2546)" fill="#FFFFFF" width="0.808" height="99.443"/>
						
							<rect x="36.286" y="388.939" transform="matrix(-0.9081 0.4187 -0.4187 -0.9081 253.6637 821.6597)" fill="#FFFFFF" width="0.807" height="99.439"/>
					</g>
				</g>
			</g>
		</g>
	</g>
	<g opacity="0.28">
		<g>
			<g>
				<g>
					<defs>
						<circle id="SVGID_28_" cx="287.024" cy="559.121" r="28.042"/>
					</defs>
					<clipPath id="SVGID_29_">
						<use xlink:href="#SVGID_28_"  overflow="visible"/>
					</clipPath>
					<g clip-path="url(#SVGID_29_)">
						
							<rect x="303.109" y="455.118" transform="matrix(-0.908 0.4191 -0.4191 -0.908 798.5956 870.8617)" fill="#FFFFFF" width="1.105" height="136.026"/>
						
							<rect x="301.222" y="460.095" transform="matrix(-0.9085 0.4179 -0.4179 -0.9085 796.6416 881.7526)" fill="#FFFFFF" width="1.103" height="136.017"/>
						
							<rect x="299.376" y="465.058" transform="matrix(-0.9081 0.4187 -0.4187 -0.9081 795.4814 891.6001)" fill="#FFFFFF" width="1.103" height="136.02"/>
						
							<rect x="297.568" y="470.017" transform="matrix(-0.9086 0.4176 -0.4176 -0.9086 793.678 902.3873)" fill="#FFFFFF" width="1.104" height="136.007"/>
						
							<rect x="295.741" y="475.018" transform="matrix(-0.9085 0.418 -0.418 -0.9085 792.4451 912.4974)" fill="#FFFFFF" width="1.105" height="136.025"/>
						
							<rect x="293.881" y="479.957" transform="matrix(-0.9083 0.4183 -0.4183 -0.9083 791.0945 922.5071)" fill="#FFFFFF" width="1.104" height="136.013"/>
						
							<rect x="292.066" y="484.947" transform="matrix(-0.9085 0.418 -0.418 -0.9085 789.5812 932.9822)" fill="#FFFFFF" width="1.105" height="136.023"/>
						
							<rect x="290.253" y="489.923" transform="matrix(-0.9076 0.4198 -0.4198 -0.9076 788.9614 942.2542)" fill="#FFFFFF" width="1.105" height="136.026"/>
						
							<rect x="288.37" y="494.899" transform="matrix(-0.9085 0.4179 -0.4179 -0.9085 786.6589 953.5432)" fill="#FFFFFF" width="1.103" height="136.014"/>
						
							<rect x="286.527" y="499.879" transform="matrix(-0.9086 0.4178 -0.4178 -0.9086 785.1495 963.9136)" fill="#FFFFFF" width="1.103" height="136.017"/>
						
							<rect x="284.721" y="504.809" transform="matrix(-0.9085 0.4178 -0.4178 -0.9085 783.7906 974.0469)" fill="#FFFFFF" width="1.106" height="136.021"/>
						
							<rect x="282.892" y="509.814" transform="matrix(-0.9085 0.418 -0.418 -0.9085 782.4648 984.2683)" fill="#FFFFFF" width="1.105" height="136.018"/>
						
							<rect x="281.037" y="514.788" transform="matrix(-0.9085 0.418 -0.418 -0.9085 781.0073 994.5456)" fill="#FFFFFF" width="1.105" height="136.028"/>
						
							<rect x="279.212" y="519.707" transform="matrix(-0.9084 0.4181 -0.4181 -0.9084 779.623 1004.6166)" fill="#FFFFFF" width="1.102" height="136.007"/>
						
							<rect x="277.346" y="524.691" transform="matrix(-0.9087 0.4174 -0.4174 -0.9087 777.8073 1015.3181)" fill="#FFFFFF" width="1.102" height="136.015"/>
						
							<rect x="275.527" y="529.657" transform="matrix(-0.9089 0.4171 -0.4171 -0.9089 776.2834 1025.717)" fill="#FFFFFF" width="1.105" height="136.025"/>
						
							<rect x="273.714" y="534.643" transform="matrix(-0.9089 0.4171 -0.4171 -0.9089 774.8998 1035.9794)" fill="#FFFFFF" width="1.105" height="136.014"/>
					</g>
				</g>
			</g>
		</g>
	</g>
	
		<linearGradient id="SVGID_30_" gradientUnits="userSpaceOnUse" x1="-894.0488" y1="-817.1523" x2="-898.4389" y2="-795.7507" gradientTransform="matrix(-0.938 -0.3467 -0.3467 0.938 -837.1151 925.8972)">
		<stop  offset="0" style="stop-color:#FFC431"/>
		<stop  offset="1" style="stop-color:#FF8300"/>
	</linearGradient>
	<circle fill="url(#SVGID_30_)" cx="283.095" cy="480.592" r="6.86"/>
	
		<linearGradient id="SVGID_31_" gradientUnits="userSpaceOnUse" x1="-721.5586" y1="-752.8091" x2="-707.8354" y2="-752.8091" gradientTransform="matrix(-0.938 -0.3467 -0.3467 0.938 -837.1151 925.8972)">
		<stop  offset="0" style="stop-color:#FFC431"/>
		<stop  offset="1" style="stop-color:#FF8300"/>
	</linearGradient>
	<circle fill="url(#SVGID_31_)" cx="94.247" cy="467.539" r="6.86"/>
	
		<linearGradient id="SVGID_32_" gradientUnits="userSpaceOnUse" x1="-728.4839" y1="-753.124" x2="-729.3622" y2="-748.8423" gradientTransform="matrix(-0.938 -0.3467 -0.3467 0.938 -837.1151 925.8972)">
		<stop  offset="0" style="stop-color:#FFC431"/>
		<stop  offset="1" style="stop-color:#FF8300"/>
	</linearGradient>
	<circle fill="url(#SVGID_32_)" cx="106.965" cy="474.288" r="1.372"/>
	
		<linearGradient id="SVGID_33_" gradientUnits="userSpaceOnUse" x1="-814.2861" y1="-774.2568" x2="-817.4473" y2="-758.8463" gradientTransform="matrix(-0.938 -0.3467 -0.3467 0.938 -837.1151 925.8972)">
		<stop  offset="0" style="stop-color:#FFC431"/>
		<stop  offset="1" style="stop-color:#FF8300"/>
	</linearGradient>
	<circle fill="url(#SVGID_33_)" cx="193.885" cy="490.036" r="4.939"/>
	
		<linearGradient id="SVGID_34_" gradientUnits="userSpaceOnUse" x1="-826.7207" y1="-781.8926" x2="-828.1252" y2="-775.0455" gradientTransform="matrix(-0.938 -0.3467 -0.3467 0.938 -837.1151 925.8972)">
		<stop  offset="0" style="stop-color:#FFC431"/>
		<stop  offset="1" style="stop-color:#FF8300"/>
	</linearGradient>
	<circle fill="url(#SVGID_34_)" cx="208.881" cy="482.706" r="2.195"/>
	
		<linearGradient id="SVGID_35_" gradientUnits="userSpaceOnUse" x1="-813.0972" y1="-732.3604" x2="-817.4875" y2="-710.9576" gradientTransform="matrix(-0.938 -0.3467 -0.3467 0.938 -837.1151 925.8972)">
		<stop  offset="0" style="stop-color:#FF2F7F"/>
		<stop  offset="0.1584" style="stop-color:#FF3879"/>
		<stop  offset="0.4112" style="stop-color:#FF4F6A"/>
		<stop  offset="0.7249" style="stop-color:#FF7450"/>
		<stop  offset="1" style="stop-color:#FF9B36"/>
	</linearGradient>
	<circle fill="url(#SVGID_35_)" cx="177.766" cy="532.057" r="6.86"/>
	
		<radialGradient id="SVGID_36_" cx="-716.6235" cy="-827.7554" r="6.8613" gradientTransform="matrix(-0.938 -0.3467 -0.3467 0.938 -837.1151 925.8972)" gradientUnits="userSpaceOnUse">
		<stop  offset="0" style="stop-color:#00ECFF"/>
		<stop  offset="0.1521" style="stop-color:#03DEF9"/>
		<stop  offset="0.2984" style="stop-color:#0AB9E8"/>
		<stop  offset="1" style="stop-color:#262CA9"/>
	</radialGradient>
	<circle fill="url(#SVGID_36_)" cx="122.023" cy="397.94" r="6.86"/>
	
		<linearGradient id="SVGID_37_" gradientUnits="userSpaceOnUse" x1="-669.9482" y1="-775.9014" x2="-673.1088" y2="-760.4935" gradientTransform="matrix(-0.938 -0.3467 -0.3467 0.938 -837.1151 925.8972)">
		<stop  offset="0" style="stop-color:#FF9B36"/>
		<stop  offset="0.1609" style="stop-color:#FF7A48"/>
		<stop  offset="0.4402" style="stop-color:#FF4665"/>
		<stop  offset="0.6833" style="stop-color:#FF207A"/>
		<stop  offset="0.878" style="stop-color:#FF0986"/>
		<stop  offset="1" style="stop-color:#FF008B"/>
	</linearGradient>
	<circle fill="url(#SVGID_37_)" cx="59.07" cy="438.445" r="4.94"/>
	
		<linearGradient id="SVGID_38_" gradientUnits="userSpaceOnUse" x1="-684.0322" y1="-758.293" x2="-685.4367" y2="-751.446" gradientTransform="matrix(-0.938 -0.3467 -0.3467 0.938 -837.1151 925.8972)">
		<stop  offset="0" style="stop-color:#FF9B36"/>
		<stop  offset="0.1609" style="stop-color:#FF7A48"/>
		<stop  offset="0.4402" style="stop-color:#FF4665"/>
		<stop  offset="0.6833" style="stop-color:#FF207A"/>
		<stop  offset="0.878" style="stop-color:#FF0986"/>
		<stop  offset="1" style="stop-color:#FF008B"/>
	</linearGradient>
	<circle fill="url(#SVGID_38_)" cx="66.858" cy="455.367" r="2.196"/>
	
		<linearGradient id="SVGID_39_" gradientUnits="userSpaceOnUse" x1="-717.146" y1="-850.0752" x2="-719.2533" y2="-839.8022" gradientTransform="matrix(-0.938 -0.3467 -0.3467 0.938 -837.1151 925.8972)">
		<stop  offset="0" style="stop-color:#68C5FF"/>
		<stop  offset="1" style="stop-color:#3239FF"/>
	</linearGradient>
	<circle fill="url(#SVGID_39_)" cx="129.466" cy="382.552" r="3.293"/>
	
		<linearGradient id="SVGID_40_" gradientUnits="userSpaceOnUse" x1="-795.8022" y1="-729.5464" x2="-797.5588" y2="-720.9824" gradientTransform="matrix(-0.938 -0.3467 -0.3467 0.938 -837.1151 925.8972)">
		<stop  offset="0" style="stop-color:#FF2F7F"/>
		<stop  offset="0.1584" style="stop-color:#FF3879"/>
		<stop  offset="0.4112" style="stop-color:#FF4F6A"/>
		<stop  offset="0.7249" style="stop-color:#FF7450"/>
		<stop  offset="1" style="stop-color:#FF9B36"/>
	</linearGradient>
	<circle fill="url(#SVGID_40_)" cx="161.595" cy="521.983" r="2.744"/>
	
		<linearGradient id="SVGID_41_" gradientUnits="userSpaceOnUse" x1="-884.8032" y1="-820.7544" x2="-886.384" y2="-813.0483" gradientTransform="matrix(-0.938 -0.3467 -0.3467 0.938 -837.1151 925.8972)">
		<stop  offset="0" style="stop-color:#FFC431"/>
		<stop  offset="1" style="stop-color:#FF8300"/>
	</linearGradient>
	<circle fill="url(#SVGID_41_)" cx="276.767" cy="466.844" r="2.47"/>
</g>
<g>
	<g opacity="0.76">
		<g>
			<g>
				<g>
					<defs>
						<circle id="SVGID_42_" cx="465.026" cy="136.629" r="17.602"/>
					</defs>
					<clipPath id="SVGID_43_">
						<use xlink:href="#SVGID_42_"  overflow="visible"/>
					</clipPath>
					<g clip-path="url(#SVGID_43_)">
						
							<rect x="448.267" y="75.232" transform="matrix(0.0113 0.9999 -0.9999 0.0113 561.4695 -331.9952)" fill="#FFACC9" width="0.693" height="85.373"/>
						
							<rect x="450.656" y="77.546" transform="matrix(0.0127 0.9999 -0.9999 0.0127 565.5037 -332.2597)" fill="#FFACC9" width="0.693" height="85.37"/>
						
							<rect x="453.043" y="79.838" transform="matrix(0.0099 1 -1 0.0099 571.4283 -332.0521)" fill="#FFACC9" width="0.692" height="85.374"/>
						
							<rect x="455.42" y="82.202" transform="matrix(0.0127 0.9999 -0.9999 0.0127 574.8651 -332.4246)" fill="#FFACC9" width="0.693" height="85.375"/>
						
							<rect x="457.793" y="84.534" transform="matrix(0.0113 0.9999 -0.9999 0.0113 580.1793 -332.3254)" fill="#FFACC9" width="0.692" height="85.374"/>
						
							<rect x="460.178" y="86.851" transform="matrix(0.0127 0.9999 -0.9999 0.0127 584.2108 -332.5923)" fill="#FFACC9" width="0.693" height="85.375"/>
						
							<rect x="462.57" y="89.175" transform="matrix(0.0127 0.9999 -0.9999 0.0127 588.8859 -332.6932)" fill="#FFACC9" width="0.692" height="85.371"/>
						
							<rect x="464.934" y="91.501" transform="matrix(0.0113 0.9999 -0.9999 0.0113 594.1992 -332.5802)" fill="#FFACC9" width="0.691" height="85.369"/>
						
							<rect x="467.32" y="93.784" transform="matrix(0.0099 1 -1 0.0099 599.5232 -332.5163)" fill="#FFACC9" width="0.693" height="85.378"/>
						
							<rect x="469.691" y="96.148" transform="matrix(0.0113 0.9999 -0.9999 0.0113 603.5613 -332.74)" fill="#FFACC9" width="0.693" height="85.369"/>
						
							<rect x="472.064" y="98.472" transform="matrix(0.0113 0.9999 -0.9999 0.0113 608.2309 -332.8156)" fill="#FFACC9" width="0.693" height="85.369"/>
						
							<rect x="474.46" y="100.804" transform="matrix(0.0113 0.9999 -0.9999 0.0113 612.9251 -332.906)" fill="#FFACC9" width="0.692" height="85.371"/>
						
							<rect x="476.836" y="103.126" transform="matrix(0.0113 0.9999 -0.9999 0.0113 617.5939 -332.9882)" fill="#FFACC9" width="0.692" height="85.367"/>
						
							<rect x="479.211" y="105.432" transform="matrix(0.0141 0.9999 -0.9999 0.0141 620.9046 -333.4774)" fill="#FFACC9" width="0.693" height="85.376"/>
						
							<rect x="481.579" y="107.758" transform="matrix(0.0141 0.9999 -0.9999 0.0141 625.5728 -333.5512)" fill="#FFACC9" width="0.694" height="85.372"/>
						
							<rect x="483.969" y="110.075" transform="matrix(0.0141 0.9999 -0.9999 0.0141 630.2358 -333.6592)" fill="#FFACC9" width="0.693" height="85.372"/>
						
							<rect x="486.351" y="112.424" transform="matrix(0.0113 0.9999 -0.9999 0.0113 636.2916 -333.3118)" fill="#FFACC9" width="0.691" height="85.368"/>
					</g>
				</g>
			</g>
		</g>
	</g>
	
		<linearGradient id="SVGID_44_" gradientUnits="userSpaceOnUse" x1="-546.0898" y1="-702.79" x2="-546.0898" y2="-725.5682" gradientTransform="matrix(-0.6987 0.7154 0.7154 0.6987 509.3262 1089.9695)">
		<stop  offset="0.0025" style="stop-color:#FFE7DD;stop-opacity:0"/>
		<stop  offset="1" style="stop-color:#FFC0A2"/>
	</linearGradient>
	<circle fill="url(#SVGID_44_)" cx="378.459" cy="198.839" r="15.506"/>
	
		<linearGradient id="SVGID_45_" gradientUnits="userSpaceOnUse" x1="-677.6089" y1="-692.7207" x2="-677.6089" y2="-719.8893" gradientTransform="matrix(-0.6987 0.7154 0.7154 0.6987 509.3262 1089.9695)">
		<stop  offset="0.0025" style="stop-color:#FFE7DD;stop-opacity:0"/>
		<stop  offset="0.1802" style="stop-color:#FFDBCC;stop-opacity:0.1782"/>
		<stop  offset="0.4767" style="stop-color:#FFCCB5;stop-opacity:0.4754"/>
		<stop  offset="0.7565" style="stop-color:#FFC3A7;stop-opacity:0.7559"/>
		<stop  offset="1" style="stop-color:#FFC0A2"/>
	</linearGradient>
	<circle fill="url(#SVGID_45_)" cx="475.707" cy="109.981" r="18.495"/>
	
		<linearGradient id="SVGID_46_" gradientUnits="userSpaceOnUse" x1="-643.2363" y1="-711.7705" x2="-643.2363" y2="-726.3143" gradientTransform="matrix(-0.6987 0.7154 0.7154 0.6987 509.3262 1089.9695)">
		<stop  offset="0.0025" style="stop-color:#FFE7DD;stop-opacity:0"/>
		<stop  offset="0.1802" style="stop-color:#FFDBCC;stop-opacity:0.1782"/>
		<stop  offset="0.4767" style="stop-color:#FFCCB5;stop-opacity:0.4754"/>
		<stop  offset="0.7565" style="stop-color:#FFC3A7;stop-opacity:0.7559"/>
		<stop  offset="1" style="stop-color:#FFC0A2"/>
	</linearGradient>
	<circle fill="url(#SVGID_46_)" cx="443.402" cy="126.476" r="9.901"/>
	
		<linearGradient id="SVGID_47_" gradientUnits="userSpaceOnUse" x1="-529.6558" y1="-749.1328" x2="-529.6558" y2="-763.6782" gradientTransform="matrix(-0.6987 0.7154 0.7154 0.6987 509.3262 1089.9695)">
		<stop  offset="0.0025" style="stop-color:#FFE7DD;stop-opacity:0"/>
		<stop  offset="0.135" style="stop-color:#FFECDA;stop-opacity:0.1328"/>
		<stop  offset="0.5971" style="stop-color:#FFFAD1;stop-opacity:0.596"/>
		<stop  offset="1" style="stop-color:#FFFFCE"/>
	</linearGradient>
	<circle fill="url(#SVGID_47_)" cx="337.306" cy="181.618" r="9.901"/>
	<g>
		<g>
			<circle fill="#FFFFFF" cx="461.989" cy="99.069" r="0.457"/>
		</g>
		<g>
			<circle fill="#FFFFFF" cx="464.711" cy="96.281" r="0.457"/>
		</g>
		<g>
			<circle fill="#FFFFFF" cx="459.905" cy="97.032" r="0.457"/>
		</g>
		<g>
			<circle fill="#FFFFFF" cx="462.627" cy="94.246" r="0.456"/>
		</g>
		<g>
			<circle fill="#FFFFFF" cx="457.721" cy="94.898" r="0.457"/>
		</g>
		<g>
			<circle fill="#FFFFFF" cx="460.444" cy="92.111" r="0.456"/>
		</g>
		<g>
			<circle fill="#FFFFFF" cx="467.213" cy="93.72" r="0.456"/>
		</g>
		<g>
			<circle fill="#FFFFFF" cx="469.936" cy="90.934" r="0.457"/>
		</g>
		<g>
			<circle fill="#FFFFFF" cx="465.129" cy="91.684" r="0.456"/>
		</g>
		<g>
			<circle fill="#FFFFFF" cx="467.852" cy="88.897" r="0.456"/>
		</g>
		<g>
			<circle fill="#FFFFFF" cx="462.944" cy="89.55" r="0.456"/>
		</g>
		<g>
			<circle fill="#FFFFFF" cx="465.667" cy="86.764" r="0.456"/>
		</g>
	</g>
	<g>
		<circle fill="#FFFFFF" cx="425.872" cy="173.176" r="0.592"/>
		<circle fill="#FFFFFF" cx="423.587" cy="175.514" r="0.591"/>
		<circle fill="#FFFFFF" cx="421.302" cy="177.853" r="0.592"/>
	</g>
	<g opacity="0.28">
		<g>
			<g>
				<g>
					<defs>
						<circle id="SVGID_48_" cx="335.99" cy="204.201" r="13.958"/>
					</defs>
					<clipPath id="SVGID_49_">
						<use xlink:href="#SVGID_48_"  overflow="visible"/>
					</clipPath>
					<g clip-path="url(#SVGID_49_)">
						
							<rect x="322.7" y="155.509" transform="matrix(0.0107 0.9999 -0.9999 0.0107 508.8774 -135.6175)" fill="#FFFFFF" width="0.549" height="67.699"/>
						
							<rect x="324.59" y="157.355" transform="matrix(0.0107 0.9999 -0.9999 0.0107 512.5884 -135.6838)" fill="#FFFFFF" width="0.549" height="67.697"/>
						
							<rect x="326.47" y="159.198" transform="matrix(0.0107 0.9999 -0.9999 0.0107 516.2995 -135.7364)" fill="#FFFFFF" width="0.55" height="67.699"/>
						
							<rect x="328.394" y="161.039" transform="matrix(0.0142 0.9999 -0.9999 0.0142 518.8591 -136.5207)" fill="#FFFFFF" width="0.549" height="67.699"/>
						
							<rect x="330.269" y="162.898" transform="matrix(0.0107 0.9999 -0.9999 0.0107 523.7589 -135.8723)" fill="#FFFFFF" width="0.55" height="67.702"/>
						
							<rect x="332.157" y="164.739" transform="matrix(0.0106 0.9999 -0.9999 0.0106 527.4744 -135.937)" fill="#FFFFFF" width="0.551" height="67.701"/>
						
							<rect x="334.05" y="166.577" transform="matrix(0.0125 0.9999 -0.9999 0.0125 530.574 -136.3663)" fill="#FFFFFF" width="0.549" height="67.702"/>
						
							<rect x="335.904" y="168.414" transform="matrix(0.0106 0.9999 -0.9999 0.0106 534.8525 -136.0495)" fill="#FFFFFF" width="0.55" height="67.7"/>
						
							<rect x="337.815" y="170.254" transform="matrix(0.0124 0.9999 -0.9999 0.0124 537.983 -136.494)" fill="#FFFFFF" width="0.551" height="67.7"/>
						
							<rect x="339.682" y="172.098" transform="matrix(0.0107 0.9999 -0.9999 0.0107 542.2671 -136.1866)" fill="#FFFFFF" width="0.549" height="67.699"/>
						
							<rect x="341.566" y="173.939" transform="matrix(0.0107 0.9999 -0.9999 0.0107 545.9697 -136.2496)" fill="#FFFFFF" width="0.549" height="67.701"/>
						
							<rect x="343.481" y="175.798" transform="matrix(0.0106 0.9999 -0.9999 0.0106 549.7342 -136.3216)" fill="#FFFFFF" width="0.551" height="67.695"/>
						
							<rect x="345.345" y="177.617" transform="matrix(0.0142 0.9999 -0.9999 0.0142 552.1454 -137.1279)" fill="#FFFFFF" width="0.549" height="67.7"/>
						<rect x="313.667" y="213.04" fill="#FFFFFF" width="67.703" height="0.549"/>
						
							<rect x="349.133" y="181.313" transform="matrix(0.0142 0.9999 -0.9999 0.0142 559.5952 -137.2604)" fill="#FFFFFF" width="0.551" height="67.702"/>
						
							<rect x="351" y="183.154" transform="matrix(0.0107 0.9999 -0.9999 0.0107 564.5203 -136.5641)" fill="#FFFFFF" width="0.549" height="67.701"/>
						
							<rect x="352.915" y="185.007" transform="matrix(0.0142 0.9999 -0.9999 0.0142 567.0073 -137.4071)" fill="#FFFFFF" width="0.55" height="67.701"/>
					</g>
				</g>
			</g>
		</g>
	</g>
	<g opacity="0.28">
		<g>
			<g>
				<g>
					<defs>
						<circle id="SVGID_50_" cx="497.496" cy="96.62" r="19.091"/>
					</defs>
					<clipPath id="SVGID_51_">
						<use xlink:href="#SVGID_50_"  overflow="visible"/>
					</clipPath>
					<g clip-path="url(#SVGID_51_)">
						
							<rect x="479.339" y="30.012" transform="matrix(0.0143 0.9999 -0.9999 0.0143 549.1682 -404.4435)" fill="#FFFFFF" width="0.752" height="92.601"/>
						
							<rect x="481.903" y="32.55" transform="matrix(0.0117 0.9999 -0.9999 0.0117 555.4856 -404.3195)" fill="#FFFFFF" width="0.752" height="92.597"/>
						
							<rect x="484.497" y="35.078" transform="matrix(0.0117 0.9999 -0.9999 0.0117 560.5694 -404.414)" fill="#FFFFFF" width="0.751" height="92.599"/>
						
							<rect x="487.09" y="37.588" transform="matrix(0.0117 0.9999 -0.9999 0.0117 565.6355 -404.5299)" fill="#FFFFFF" width="0.751" height="92.592"/>
						
							<rect x="489.657" y="40.116" transform="matrix(0.0117 0.9999 -0.9999 0.0117 570.7143 -404.5954)" fill="#FFFFFF" width="0.752" height="92.597"/>
						
							<rect x="492.238" y="42.635" transform="matrix(0.0117 0.9999 -0.9999 0.0117 575.7841 -404.6867)" fill="#FFFFFF" width="0.752" height="92.597"/>
						
							<rect x="494.81" y="45.155" transform="matrix(0.0117 0.9999 -0.9999 0.0117 580.8456 -404.7677)" fill="#FFFFFF" width="0.752" height="92.596"/>
						
							<rect x="497.418" y="47.66" transform="matrix(0.0143 0.9999 -0.9999 0.0143 584.6245 -405.126)" fill="#FFFFFF" width="0.751" height="92.601"/>
						
							<rect x="499.991" y="50.196" transform="matrix(0.0117 0.9999 -0.9999 0.0117 590.9979 -404.9683)" fill="#FFFFFF" width="0.751" height="92.594"/>
						
							<rect x="502.574" y="52.723" transform="matrix(0.0117 0.9999 -0.9999 0.0117 596.0778 -405.0523)" fill="#FFFFFF" width="0.751" height="92.597"/>
						
							<rect x="505.13" y="55.249" transform="matrix(0.0104 0.9999 -0.9999 0.0104 601.7963 -404.9869)" fill="#FFFFFF" width="0.752" height="92.596"/>
						
							<rect x="507.723" y="57.756" transform="matrix(0.0117 0.9999 -0.9999 0.0117 606.2056 -405.2276)" fill="#FFFFFF" width="0.752" height="92.593"/>
						
							<rect x="510.307" y="60.296" transform="matrix(0.0104 0.9999 -0.9999 0.0104 611.9661 -405.1678)" fill="#FFFFFF" width="0.752" height="92.597"/>
						
							<rect x="512.897" y="62.801" transform="matrix(0.0117 0.9999 -0.9999 0.0117 616.3557 -405.4176)" fill="#FFFFFF" width="0.751" height="92.592"/>
						
							<rect x="515.459" y="65.331" transform="matrix(0.0104 0.9999 -0.9999 0.0104 622.0988 -405.338)" fill="#FFFFFF" width="0.752" height="92.595"/>
						
							<rect x="518.044" y="67.809" transform="matrix(0.0091 1 -1 0.0091 627.8174 -405.3244)" fill="#FFFFFF" width="0.752" height="92.605"/>
						
							<rect x="520.623" y="70.37" transform="matrix(0.0104 0.9999 -0.9999 0.0104 632.2448 -405.5182)" fill="#FFFFFF" width="0.752" height="92.589"/>
					</g>
				</g>
			</g>
		</g>
	</g>
	
		<linearGradient id="SVGID_52_" gradientUnits="userSpaceOnUse" x1="-679.7959" y1="-759.3271" x2="-682.7849" y2="-744.7557" gradientTransform="matrix(-0.6987 0.7154 0.7154 0.6987 509.3262 1089.9695)">
		<stop  offset="0" style="stop-color:#FFC431"/>
		<stop  offset="1" style="stop-color:#FF8300"/>
	</linearGradient>
	<circle fill="url(#SVGID_52_)" cx="447.583" cy="77.283" r="4.67"/>
	
		<linearGradient id="SVGID_53_" gradientUnits="userSpaceOnUse" x1="-562.2578" y1="-715.5225" x2="-552.9175" y2="-715.5225" gradientTransform="matrix(-0.6987 0.7154 0.7154 0.6987 509.3262 1089.9695)">
		<stop  offset="0" style="stop-color:#FFC431"/>
		<stop  offset="1" style="stop-color:#FF8300"/>
	</linearGradient>
	<circle fill="url(#SVGID_53_)" cx="387.087" cy="191.075" r="4.67"/>
	
		<linearGradient id="SVGID_54_" gradientUnits="userSpaceOnUse" x1="-567.0732" y1="-715.7373" x2="-567.6712" y2="-712.8226" gradientTransform="matrix(-0.6987 0.7154 0.7154 0.6987 509.3262 1089.9695)">
		<stop  offset="0" style="stop-color:#FFC431"/>
		<stop  offset="1" style="stop-color:#FF8300"/>
	</linearGradient>
	<circle fill="url(#SVGID_54_)" cx="394.812" cy="185.04" r="0.934"/>
	
		<linearGradient id="SVGID_55_" gradientUnits="userSpaceOnUse" x1="-625.4883" y1="-730.1226" x2="-627.6398" y2="-719.6333" gradientTransform="matrix(-0.6987 0.7154 0.7154 0.6987 509.3262 1089.9695)">
		<stop  offset="0" style="stop-color:#FFC431"/>
		<stop  offset="1" style="stop-color:#FF8300"/>
	</linearGradient>
	<circle fill="url(#SVGID_55_)" cx="428.709" cy="135.368" r="3.363"/>
	
		<linearGradient id="SVGID_56_" gradientUnits="userSpaceOnUse" x1="-633.9556" y1="-735.3237" x2="-634.9118" y2="-730.6622" gradientTransform="matrix(-0.6987 0.7154 0.7154 0.6987 509.3262 1089.9695)">
		<stop  offset="0" style="stop-color:#FFC431"/>
		<stop  offset="1" style="stop-color:#FF8300"/>
	</linearGradient>
	<circle fill="url(#SVGID_56_)" cx="428.313" cy="124.011" r="1.495"/>
	
		<linearGradient id="SVGID_57_" gradientUnits="userSpaceOnUse" x1="-624.6782" y1="-701.6011" x2="-627.6671" y2="-687.0302" gradientTransform="matrix(-0.6987 0.7154 0.7154 0.6987 509.3262 1089.9695)">
		<stop  offset="0" style="stop-color:#FF2F7F"/>
		<stop  offset="0.1584" style="stop-color:#FF3879"/>
		<stop  offset="0.4112" style="stop-color:#FF4F6A"/>
		<stop  offset="0.7249" style="stop-color:#FF7450"/>
		<stop  offset="1" style="stop-color:#FF9B36"/>
	</linearGradient>
	<circle fill="url(#SVGID_57_)" cx="450.365" cy="157.044" r="4.671"/>
	
		<radialGradient id="SVGID_58_" cx="-558.8979" cy="-766.522" r="4.6694" gradientTransform="matrix(-0.6987 0.7154 0.7154 0.6987 509.3262 1089.9695)" gradientUnits="userSpaceOnUse">
		<stop  offset="0" style="stop-color:#00ECFF"/>
		<stop  offset="0.1521" style="stop-color:#03DEF9"/>
		<stop  offset="0.2984" style="stop-color:#0AB9E8"/>
		<stop  offset="1" style="stop-color:#262CA9"/>
	</radialGradient>
	<circle fill="url(#SVGID_58_)" cx="351.521" cy="154.502" r="4.671"/>
	
		<linearGradient id="SVGID_59_" gradientUnits="userSpaceOnUse" x1="-527.2236" y1="-731.2461" x2="-529.3759" y2="-720.7543" gradientTransform="matrix(-0.6987 0.7154 0.7154 0.6987 509.3262 1089.9695)">
		<stop  offset="0" style="stop-color:#FF9B36"/>
		<stop  offset="0.1609" style="stop-color:#FF7A48"/>
		<stop  offset="0.4402" style="stop-color:#FF4665"/>
		<stop  offset="0.6833" style="stop-color:#FF207A"/>
		<stop  offset="0.878" style="stop-color:#FF0986"/>
		<stop  offset="1" style="stop-color:#FF008B"/>
	</linearGradient>
	<circle fill="url(#SVGID_59_)" cx="359.242" cy="204.877" r="3.363"/>
	
		<linearGradient id="SVGID_60_" gradientUnits="userSpaceOnUse" x1="-536.8105" y1="-719.2568" x2="-537.7672" y2="-714.5934" gradientTransform="matrix(-0.6987 0.7154 0.7154 0.6987 509.3262 1089.9695)">
		<stop  offset="0" style="stop-color:#FF9B36"/>
		<stop  offset="0.1609" style="stop-color:#FF7A48"/>
		<stop  offset="0.4402" style="stop-color:#FF4665"/>
		<stop  offset="0.6833" style="stop-color:#FF207A"/>
		<stop  offset="0.878" style="stop-color:#FF0986"/>
		<stop  offset="1" style="stop-color:#FF008B"/>
	</linearGradient>
	<circle fill="url(#SVGID_60_)" cx="371.923" cy="204.729" r="1.495"/>
	
		<linearGradient id="SVGID_61_" gradientUnits="userSpaceOnUse" x1="-559.3604" y1="-781.7437" x2="-560.795" y2="-774.7493" gradientTransform="matrix(-0.6987 0.7154 0.7154 0.6987 509.3262 1089.9695)">
		<stop  offset="0" style="stop-color:#68C5FF"/>
		<stop  offset="1" style="stop-color:#3239FF"/>
	</linearGradient>
	<circle fill="url(#SVGID_61_)" cx="344.017" cy="145.607" r="2.242"/>
	
		<linearGradient id="SVGID_62_" gradientUnits="userSpaceOnUse" x1="-612.9053" y1="-699.6841" x2="-614.101" y2="-693.8546" gradientTransform="matrix(-0.6987 0.7154 0.7154 0.6987 509.3262 1089.9695)">
		<stop  offset="0" style="stop-color:#FF2F7F"/>
		<stop  offset="0.1584" style="stop-color:#FF3879"/>
		<stop  offset="0.4112" style="stop-color:#FF4F6A"/>
		<stop  offset="0.7249" style="stop-color:#FF7450"/>
		<stop  offset="1" style="stop-color:#FF9B36"/>
	</linearGradient>
	<circle fill="url(#SVGID_62_)" cx="439.617" cy="164.304" r="1.868"/>
	
		<linearGradient id="SVGID_63_" gradientUnits="userSpaceOnUse" x1="-673.501" y1="-761.7813" x2="-674.5771" y2="-756.5356" gradientTransform="matrix(-0.6987 0.7154 0.7154 0.6987 509.3262 1089.9695)">
		<stop  offset="0" style="stop-color:#FFC431"/>
		<stop  offset="1" style="stop-color:#FF8300"/>
	</linearGradient>
	<circle fill="url(#SVGID_63_)" cx="437.279" cy="77.404" r="1.681"/>
</g>
<g>
	
		<linearGradient id="SVGID_64_" gradientUnits="userSpaceOnUse" x1="246.0864" y1="-605.5557" x2="246.0864" y2="-633.9139" gradientTransform="matrix(0.3049 -0.9524 0.9524 0.3049 592.1199 586.5663)">
		<stop  offset="0.0025" style="stop-color:#FFE7DD;stop-opacity:0"/>
		<stop  offset="0.1802" style="stop-color:#FFDBCC;stop-opacity:0.1782"/>
		<stop  offset="0.4767" style="stop-color:#FFCCB5;stop-opacity:0.4754"/>
		<stop  offset="0.7565" style="stop-color:#FFC3A7;stop-opacity:0.7559"/>
		<stop  offset="1" style="stop-color:#FFC0A2"/>
	</linearGradient>
	<path fill="url(#SVGID_64_)" d="M80.12,144.34c10.141,3.295,15.806,14.067,12.654,24.062c-3.15,9.994-13.925,15.424-24.065,12.129
		c-10.141-3.295-15.807-14.068-12.655-24.063C59.204,146.477,69.979,141.046,80.12,144.34z"/>
	
		<radialGradient id="SVGID_65_" cx="-36.2266" cy="500.416" r="6.0403" gradientTransform="matrix(1 0 0 -1 116 666.166)" gradientUnits="userSpaceOnUse">
		<stop  offset="0" style="stop-color:#00ECFF"/>
		<stop  offset="0.1521" style="stop-color:#03DEF9"/>
		<stop  offset="0.2984" style="stop-color:#0AB9E8"/>
		<stop  offset="1" style="stop-color:#262CA9"/>
	</radialGradient>
	<path fill="url(#SVGID_65_)" d="M78.36,159.933c3.276-0.765,6.563,1.218,7.345,4.431c0.78,3.214-1.242,6.439-4.518,7.204
		c-3.277,0.765-6.563-1.219-7.344-4.432C73.061,163.923,75.084,160.699,78.36,159.933z"/>
	
		<radialGradient id="SVGID_66_" cx="-56.2988" cy="506.3975" r="2.1876" gradientTransform="matrix(1 0 0 -1 116 666.166)" gradientUnits="userSpaceOnUse">
		<stop  offset="0" style="stop-color:#00ECFF"/>
		<stop  offset="0.1521" style="stop-color:#03DEF9"/>
		<stop  offset="0.2984" style="stop-color:#0AB9E8"/>
		<stop  offset="1" style="stop-color:#262CA9"/>
	</radialGradient>
	<path fill="url(#SVGID_66_)" d="M59.189,157.662c1.187-0.277,2.377,0.441,2.66,1.605c0.282,1.164-0.45,2.332-1.637,2.609
		c-1.186,0.277-2.377-0.442-2.659-1.605C57.271,159.107,58.003,157.94,59.189,157.662z"/>
</g>
</svg>
