<?xml version="1.0" encoding="utf-8"?>
<!-- Generator: Adobe Illustrator 16.0.0, SVG Export Plug-In . SVG Version: 6.00 Build 0)  -->
<!DOCTYPE svg PUBLIC "-//W3C//DTD SVG 1.1//EN" "http://www.w3.org/Graphics/SVG/1.1/DTD/svg11.dtd">
<svg version="1.1" id="Layer_1" xmlns="http://www.w3.org/2000/svg" xmlns:xlink="http://www.w3.org/1999/xlink" x="0px" y="0px"
	 width="621.707px" height="219.259px" viewBox="0 0 621.707 219.259" enable-background="new 0 0 621.707 219.259"
	 xml:space="preserve">
<g>
	<g>
		<g>
			<path fill="#FFFFFF" d="M9.353,9c27,0,54.228,0,81.518,0c-0.429,11-0.858,22.222-1.288,33.317
				c-16.028-1.713-32.035-3.6-48.017-5.695c-0.226,8.965-0.339,13.454-0.564,22.418c13.458,3.247,26.979,6.236,40.55,8.972
				c-0.385,10.188-0.769,20.377-1.155,30.565c-13.459-4.265-26.779-8.791-40.048-13.616c-0.439,17.479-0.703,34.959-1.144,52.438
				c-10.261-6.691-20.852-13.758-29.852-21.176C9.353,80.502,9.353,45,9.353,9z"/>
			<path fill="#FFFFFF" d="M178.442,9c11.013,0,22.027,0,33.04,0c-1.054,39-2.102,78.848-3.157,118.256
				c-0.624,11.064-1.454,21.882-3.93,32.699c-2.292,10.014-5.756,18.475-10.32,25.189c-4.565,6.716-9.297,10.909-14.132,12.672
				c-6.729,2.454-14.719,2.184-23.87-0.891c-5.293-1.778-11.026-4.439-17.17-7.97c-6.147-3.532-11.197-7.954-15.179-13.071
				c-3.982-5.119-7.542-11.518-10.688-19.077c-3.146-7.562-5.19-14.79-6.199-21.714c-1.377-9.453-2.226-19.124-1.926-28.713
				C106.199,73.931,107.489,42,108.779,9c11.014,0,22.027,0,33.041,0c-1.383,36-2.763,72.088-4.144,108.116
				c-0.371,9.663,0.961,17.635,4.006,24.011c3.045,6.377,7.463,10.465,13.274,12.002c5.761,1.524,10.398-0.151,13.883-5.093
				c3.484-4.941,5.401-12.786,5.751-23.302C175.874,86.166,177.159,48,178.442,9z"/>
			<path fill="#FFFFFF" d="M233.63,9c10.307,0,20.614,0,30.921,0c13.136,39,26.397,77.614,40.017,116.277
				C304.679,86.519,304.79,48,304.901,9c10.404,0,20.809,0,31.213,0c0.396,70,0.781,139.91,1.192,209.851
				c-11.024,0.351-21.977,0.483-33.006,0.366c-13.966-38.746-27.493-77.633-40.81-116.605c-0.521,37.975-1.039,75.952-1.556,113.927
				c-10.95-1.281-21.793-2.812-32.679-4.558C230.716,144.33,232.175,77,233.63,9z"/>
			<path fill="#FFFFFF" d="M351.497,119.373c14.845-0.686,29.637-1.633,44.447-2.848c0.301,14.579,0.606,29.157,0.905,43.736
				c-14.964,1.711-29.894,3.042-44.924,4.008C351.783,149.304,351.637,134.339,351.497,119.373z"/>
			<path fill="#FFFFFF" d="M400.438,9.061c33.553,0,67.106-0.002,100.659,0c0.556,14.188,1.112,28.376,1.672,42.564
				c-11.267,1.101-22.534,2.133-33.813,3.095c1.65,46.418,3.305,92.836,4.972,139.254c-11.179,3.678-22.487,6.962-33.896,9.853
				c-1.464-48.891-2.924-97.782-4.384-146.673c-11.362,0.69-22.723,1.313-34.092,1.869C401.187,42.369,400.818,25.715,400.438,9.061
				z"/>
			<path fill="#FFFFFF" d="M505.556,9c11.538,0,23.075,0,34.613,0c8.792,34,17.879,68.367,27.627,102.332
				C573.816,77.06,580.394,43,588.099,9c11.202,0,22.405,0,33.607,0c-15.873,43-26.356,87.622-36.06,132.241
				c-11.03,6.969-22.325,13.508-33.865,19.595C534.913,110.67,519.762,60,505.556,9z"/>
		</g>
	</g>
	<g>
		<g>
			<path fill="#00FF00" d="M0.353,0c27,0,54.228,0,81.518,0c-0.43,11-0.858,22.222-1.287,33.317
				c-16.028-1.713-32.036-3.597-48.018-5.695c-0.226,8.964-0.338,13.453-0.564,22.417c13.458,3.248,26.978,6.237,40.549,8.971
				c-0.384,10.188-0.769,20.378-1.154,30.566c-13.459-4.265-26.78-8.791-40.048-13.616c-0.439,17.479-0.704,34.959-1.144,52.438
				c-10.261-6.693-20.852-13.758-29.852-21.176C0.353,71.502,0.353,36,0.353,0z"/>
			<path fill="#00FF00" d="M169.442,0c11.013,0,22.026,0,33.039,0c-1.049,39-2.1,78.846-3.156,118.254
				c-0.624,11.065-1.455,21.882-3.932,32.701c-2.292,10.014-5.753,18.475-10.317,25.189c-4.565,6.716-9.297,10.909-14.132,12.672
				c-6.729,2.454-14.72,2.184-23.87-0.891c-5.293-1.778-11.026-4.439-17.17-7.97c-6.147-3.532-11.196-7.954-15.178-13.071
				c-3.982-5.119-7.543-11.518-10.69-19.077c-3.146-7.562-5.19-14.79-6.199-21.714c-1.377-9.453-2.226-19.124-1.926-28.713
				C97.197,64.931,98.489,33,99.779,0c11.014,0,22.027,0,33.041,0c-1.38,36-2.765,72.089-4.143,108.118
				c-0.371,9.663,0.961,17.634,4.006,24.009c3.045,6.377,7.463,10.465,13.273,12.002c5.761,1.524,10.399-0.151,13.883-5.093
				c3.484-4.941,5.4-12.785,5.75-23.301C166.875,77.167,168.156,39,169.442,0z"/>
			<path fill="#00FF00" d="M224.63,0c10.307,0,20.614,0,30.921,0c13.133,39,26.396,77.614,40.017,116.277
				C295.679,77.519,295.791,39,295.901,0c10.404,0,20.808,0,31.212,0c0.401,70,0.786,139.909,1.192,209.849
				c-11.024,0.353-21.977,0.484-33.006,0.368c-13.965-38.746-27.493-77.632-40.809-116.605
				c-0.521,37.975-1.041,75.953-1.556,113.928c-10.95-1.282-21.793-2.813-32.678-4.559C221.714,135.33,223.175,68,224.63,0z"/>
			<path fill="#00FF00" d="M342.498,110.373c14.844-0.688,29.636-1.632,44.446-2.85c0.301,14.579,0.606,29.159,0.905,43.738
				c-14.965,1.711-29.895,3.042-44.926,4.008C342.781,140.304,342.638,125.339,342.498,110.373z"/>
			<path fill="#00FF00" d="M391.438,0.061c33.553,0,67.106-0.002,100.659,0c0.557,14.188,1.112,28.376,1.672,42.564
				c-11.267,1.101-22.534,2.133-33.813,3.095c1.653,46.418,3.309,92.837,4.972,139.255c-11.179,3.678-22.487,6.962-33.896,9.853
				c-1.472-48.891-2.923-97.782-4.384-146.673c-11.362,0.69-22.722,1.313-34.091,1.869C392.186,33.37,391.818,16.715,391.438,0.061z
				"/>
			<path fill="#00FF00" d="M496.557,0c11.537,0,23.075,0,34.612,0c8.793,34,17.88,68.367,27.627,102.332
				C564.815,68.06,571.4,34,579.099,0c11.202,0,22.405,0,33.607,0c-15.88,43-26.355,87.624-36.061,132.243
				c-11.03,6.968-22.325,13.502-33.863,19.594C525.908,101.673,510.767,51,496.557,0z"/>
		</g>
	</g>
</g>
<g>
	<g>
		<path fill="#06B7FC" d="M-13.838,573c27.29,0,54.58,0,81.87,0c-0.429,11-0.858,21.994-1.287,33.09
			c-16.028-1.717-32.035-3.714-48.018-5.811c-0.226,8.964-0.339,13.397-0.565,22.361c13.458,3.246,26.978,6.211,40.55,8.943
			c-0.384,10.188-0.769,20.362-1.154,30.549c-13.459-4.264-26.779-8.797-40.048-13.62c-0.44,17.479-0.88,34.956-1.319,52.435
			c-10.261-6.693-20.279-13.563-30.029-20.981C-13.837,644.245-13.838,608-13.838,573z"/>
		<path fill="#06B7FC" d="M155.603,573c11.013,0,22.027,0,33.04,0c-1.05,39-2.1,78.618-3.158,118.025
			c-0.622,11.065-1.454,21.769-3.93,32.587c-2.292,10.014-5.754,18.419-10.318,25.133c-4.565,6.716-9.297,10.88-14.132,12.643
			c-6.729,2.454-14.719,2.171-23.87-0.903c-5.293-1.778-11.027-4.448-17.17-7.979c-6.147-3.532-11.196-7.955-15.179-13.073
			c-3.982-5.118-7.542-11.521-10.689-19.08c-3.146-7.562-5.19-14.792-6.199-21.715c-1.377-9.453-2.225-18.896-1.927-28.483
			C83.36,637.703,84.65,605,85.94,573c11.014,0,22.027,0,33.041,0c-1.381,36-2.759,71.86-4.144,107.889
			c-0.37,9.662,0.961,17.52,4.006,23.896c3.045,6.376,7.463,10.41,13.274,11.947c5.761,1.524,10.397-0.182,13.882-5.123
			c3.484-4.941,5.403-12.571,5.753-23.087C153.033,649.953,154.318,611,155.603,573z"/>
		<path fill="#06B7FC" d="M210.793,573c10.307,0,20.613,0,30.919,0c13.133,38,26.396,77.613,40.017,116.275
			c0.112-38.758,0.223-78.275,0.334-116.275c10.404,0,20.809,0,31.213,0c0.396,70,0.786,139.683,1.192,209.622
			c-11.024,0.351-21.978,0.368-33.007,0.252c-13.966-38.745-27.491-77.689-40.809-116.661c-0.521,37.974-1.04,75.923-1.557,113.896
			c-10.95-1.281-21.793-2.598-32.679-4.344C207.877,708.115,209.328,640,210.793,573z"/>
		<path fill="#06B7FC" d="M328.656,682.915c14.846-0.685,29.639-1.632,44.45-2.847c0.301,14.578,0.603,29.157,0.905,43.736
			c-14.966,1.711-29.895,3.042-44.927,4.008C328.943,712.847,328.798,697.881,328.656,682.915z"/>
		<path fill="#06B7FC" d="M377.604,572.604c33.551,0,67.103,0.002,100.653,0c0.559,14.189,1.114,28.377,1.674,42.565
			c-11.267,1.101-22.534,2.132-33.813,3.095c1.664,46.418,3.314,92.836,4.972,139.253c-11.179,3.681-22.487,6.964-33.896,9.854
			c-1.472-48.891-2.931-97.783-4.384-146.674c-11.362,0.691-22.722,1.314-34.091,1.869
			C378.346,605.912,377.974,589.258,377.604,572.604z"/>
		<path fill="#06B7FC" d="M482.716,573c11.539,0,23.077,0,34.616,0c8.786,34,17.881,68.365,27.623,102.331
			C550.984,641.061,557.552,607,565.262,573c11.202,0,22.403,0,33.605,0c-15.887,42-26.361,87.398-36.06,132.014
			c-11.028,6.972-22.327,13.613-33.863,19.709C512.068,674.559,496.929,624,482.716,573z"/>
	</g>
</g>
<g>
	<g>
		<path fill="#06B7FC" d="M-19.647,584c28,0,54.847,0,82.137,0c-0.428,11-0.858,22.195-1.287,33.291
			c-16.028-1.715-32.036-3.611-48.018-5.71c-0.226,8.964-0.339,13.449-0.565,22.414c13.458,3.245,26.979,6.233,40.55,8.968
			c-0.384,10.188-0.769,20.375-1.154,30.562c-13.458-4.266-26.779-8.792-40.048-13.615c-0.439,17.479-1.013,34.959-1.454,52.438
			c-10.259-6.697-20.161-13.756-30.161-21.181C-19.647,655.447-19.647,620-19.647,584z"/>
		<path fill="#06B7FC" d="M150.061,584c11.013,0,22.027,0,33.04,0c-1.053,39-2.103,78.819-3.156,118.227
			c-0.624,11.065-1.455,21.871-3.932,32.69c-2.293,10.015-5.754,18.468-10.318,25.182c-4.565,6.716-9.297,10.903-14.132,12.665
			c-6.729,2.455-14.719,2.186-23.87-0.889c-5.293-1.778-11.026-4.439-17.17-7.97c-6.147-3.532-11.196-7.955-15.178-13.073
			c-3.982-5.118-7.543-11.518-10.69-19.077c-3.146-7.562-5.189-14.789-6.197-21.713c-1.376-9.454-2.228-19.098-1.927-28.687
			C77.818,648.905,79.108,616,80.398,584c11.014,0,22.027,0,33.041,0c-1.38,36-2.76,72.063-4.143,108.092
			c-0.37,9.663,0.961,17.616,4.006,23.992c3.045,6.377,7.462,10.463,13.273,12c5.761,1.524,10.399-0.154,13.884-5.096
			c3.484-4.941,5.401-12.763,5.751-23.278C147.491,661.142,148.778,623,150.061,584z"/>
		<path fill="#06B7FC" d="M205.251,584c10.307,0,20.613,0,30.919,0c13.133,39,26.398,77.613,40.016,116.277
			C276.3,661.519,276.41,623,276.521,584c10.404,0,20.809,0,31.213,0c0.396,70,0.804,139.882,1.19,209.82
			c-11.023,0.353-21.976,0.472-33.004,0.356c-13.965-38.745-27.49-77.639-40.81-116.61c-0.517,37.974-1.042,75.947-1.556,113.92
			c-10.949-1.281-21.793-2.788-32.679-4.53C202.34,719.306,203.786,652,205.251,584z"/>
		<path fill="#06B7FC" d="M323.115,694.318c14.846-0.685,29.638-1.631,44.449-2.849c0.302,14.579,0.604,29.158,0.905,43.737
			c-14.966,1.714-29.896,3.041-44.929,4.007C323.4,724.249,323.257,709.283,323.115,694.318z"/>
		<path fill="#06B7FC" d="M372.06,584c33.552,0,67.104,0,100.656,0c0.555,14,1.115,28.382,1.672,42.57
			c-11.267,1.1-22.533,2.132-33.812,3.095c1.657,46.418,3.306,92.837,4.973,139.254c-11.182,3.674-22.489,6.968-33.899,9.856
			c-1.457-48.893-2.926-97.783-4.382-146.675c-11.36,0.692-22.72,1.309-34.088,1.865C372.8,617.313,372.442,601,372.06,584z"/>
		<path fill="#06B7FC" d="M477.175,584c11.538,0,23.076,0,34.614,0c8.791,34,17.882,68.365,27.626,102.331
			C545.435,652.06,552.02,618,559.718,584c11.202,0,22.405,0,33.607,0c-15.873,43-26.358,87.595-36.058,132.214
			c-11.027,6.973-22.327,13.515-33.864,19.606C506.527,685.657,491.384,635,477.175,584z"/>
	</g>
</g>
<g>
	<g>
		<path fill="#06B7FC" d="M-19.647,1186c28,0,54.847,0,82.137,0c-0.428,11-0.858,22.195-1.287,33.291
			c-16.028-1.713-32.035-3.613-48.018-5.709c-0.226,8.965-0.339,13.448-0.565,22.413c13.458,3.245,26.979,6.233,40.55,8.968
			c-0.384,10.188-0.769,20.375-1.154,30.562c-13.458-4.266-26.78-8.792-40.048-13.616c-0.439,17.479-1.013,34.958-1.454,52.438
			c-10.262-6.693-20.161-13.762-30.161-21.179C-19.647,1257.447-19.647,1222-19.647,1186z"/>
		<path fill="#06B7FC" d="M150.061,1186c11.013,0,22.027,0,33.04,0c-1.054,39-2.103,78.819-3.156,118.227
			c-0.623,11.065-1.456,21.87-3.932,32.689c-2.292,10.014-5.754,18.467-10.318,25.181c-4.565,6.716-9.297,10.905-14.132,12.667
			c-6.729,2.455-14.719,2.186-23.87-0.889c-5.293-1.778-11.026-4.438-17.17-7.969c-6.147-3.533-11.196-7.957-15.178-13.075
			c-3.982-5.118-7.543-11.518-10.69-19.077c-3.146-7.562-5.189-14.791-6.197-21.715c-1.376-9.453-2.228-19.096-1.927-28.684
			c1.288-32.45,2.578-65.355,3.867-97.355c11.014,0,22.027,0,33.041,0c-1.38,36-2.76,72.062-4.143,108.091
			c-0.37,9.663,0.961,17.617,4.006,23.993c3.045,6.377,7.462,10.463,13.273,12c5.761,1.524,10.399-0.154,13.884-5.096
			c3.484-4.941,5.401-12.764,5.751-23.279C147.491,1263.141,148.778,1225,150.061,1186z"/>
		<path fill="#06B7FC" d="M205.251,1186c10.307,0,20.613,0,30.919,0c13.133,39,26.396,77.614,40.016,116.277
			c0.114-38.759,0.224-77.277,0.334-116.277c10.404,0,20.809,0,31.213,0c0.396,70,0.805,139.882,1.19,209.821
			c-11.023,0.352-21.976,0.469-33.004,0.354c-13.969-38.744-27.491-77.639-40.81-116.61c-0.516,37.974-1.041,75.948-1.556,113.923
			c-10.949-1.281-21.793-2.789-32.679-4.531C202.34,1321.307,203.786,1254,205.251,1186z"/>
		<path fill="#06B7FC" d="M323.115,1296.32c14.846-0.686,29.638-1.634,44.449-2.852c0.302,14.579,0.604,29.159,0.905,43.738
			c-14.966,1.714-29.896,3.045-44.929,4.007C323.4,1326.249,323.257,1311.285,323.115,1296.32z"/>
		<path fill="#06B7FC" d="M372.06,1186c33.552,0,67.104,0,100.656,0c0.555,14,1.115,28.382,1.672,42.57
			c-11.267,1.1-22.533,2.132-33.812,3.095c1.657,46.418,3.306,92.837,4.973,139.254c-11.182,3.676-22.488,6.968-33.899,9.854
			c-1.457-48.891-2.925-97.781-4.382-146.673c-11.361,0.691-22.72,1.309-34.088,1.865C372.8,1219.313,372.442,1203,372.06,1186z"/>
		<path fill="#06B7FC" d="M477.175,1186c11.538,0,23.076,0,34.614,0c8.791,34,17.879,68.366,27.626,102.331
			c6.02-34.271,12.604-68.331,20.303-102.331c11.202,0,22.405,0,33.607,0c-15.873,43-26.358,87.595-36.058,132.214
			c-11.025,6.975-22.328,13.516-33.864,19.607C506.529,1287.657,491.386,1237,477.175,1186z"/>
	</g>
</g>
<text transform="matrix(1 0 0 1 -223.9727 -514.7998)" font-family="'Arial-Black'" font-size="135.3063">FUN-TV</text>
</svg>
