<?xml version="1.0" encoding="utf-8"?>
<!-- Generator: Adobe Illustrator 16.0.0, SVG Export Plug-In . SVG Version: 6.00 Build 0)  -->
<!DOCTYPE svg PUBLIC "-//W3C//DTD SVG 1.1//EN" "http://www.w3.org/Graphics/SVG/1.1/DTD/svg11.dtd">
<svg version="1.1" id="Layer_1" xmlns="http://www.w3.org/2000/svg" xmlns:xlink="http://www.w3.org/1999/xlink" x="0px" y="0px"
	 width="588.664px" height="572.635px" viewBox="0 0 588.664 572.635" enable-background="new 0 0 588.664 572.635"
	 xml:space="preserve">
<g>
	<g>
		<g>
			<g>
				<defs>
					<path id="SVGID_1_" d="M546.326,147.732c-5.007,53.607-51.814,93.45-104.541,88.989
						c-52.733-4.457-91.417-51.532-86.408-105.141c5.007-53.61,51.81-93.451,104.54-88.993
						C512.646,47.048,551.333,94.123,546.326,147.732z"/>
				</defs>
				<clipPath id="SVGID_2_">
					<use xlink:href="#SVGID_1_"  overflow="visible"/>
				</clipPath>
				<g clip-path="url(#SVGID_2_)">
					
						<linearGradient id="SVGID_3_" gradientUnits="userSpaceOnUse" x1="156.627" y1="649.6816" x2="517.583" y2="649.6816" gradientTransform="matrix(1 0 0 -1 116 651.6348)">
						<stop  offset="0" style="stop-color:#FFC431"/>
						<stop  offset="1" style="stop-color:#FF8300"/>
					</linearGradient>
					<polygon fill="url(#SVGID_3_)" points="275.033,156.027 272.627,153.098 631.177,-152.12 633.583,-149.191 					"/>
					
						<linearGradient id="SVGID_4_" gradientUnits="userSpaceOnUse" x1="154.9131" y1="631.3379" x2="515.8691" y2="631.3379" gradientTransform="matrix(1 0 0 -1 116 651.6348)">
						<stop  offset="0" style="stop-color:#FFC431"/>
						<stop  offset="1" style="stop-color:#FF8300"/>
					</linearGradient>
					<polygon fill="url(#SVGID_4_)" points="273.32,174.371 270.913,171.444 629.464,-133.776 631.869,-130.847 					"/>
					
						<linearGradient id="SVGID_5_" gradientUnits="userSpaceOnUse" x1="153.2012" y1="612.9932" x2="514.1553" y2="612.9932" gradientTransform="matrix(1 0 0 -1 116 651.6348)">
						<stop  offset="0" style="stop-color:#FFC431"/>
						<stop  offset="1" style="stop-color:#FF8300"/>
					</linearGradient>
					<polygon fill="url(#SVGID_5_)" points="271.606,192.715 269.201,189.787 627.751,-115.432 630.155,-112.504 					"/>
					
						<linearGradient id="SVGID_6_" gradientUnits="userSpaceOnUse" x1="151.4883" y1="594.6514" x2="512.4424" y2="594.6514" gradientTransform="matrix(1 0 0 -1 116 651.6348)">
						<stop  offset="0" style="stop-color:#FFC431"/>
						<stop  offset="1" style="stop-color:#FF8300"/>
					</linearGradient>
					<polygon fill="url(#SVGID_6_)" points="269.894,211.056 267.488,208.13 626.036,-97.089 628.442,-94.163 					"/>
					
						<linearGradient id="SVGID_7_" gradientUnits="userSpaceOnUse" x1="149.772" y1="576.3066" x2="510.7275" y2="576.3066" gradientTransform="matrix(1 0 0 -1 116 651.6348)">
						<stop  offset="0" style="stop-color:#FFC431"/>
						<stop  offset="1" style="stop-color:#FF8300"/>
					</linearGradient>
					<polygon fill="url(#SVGID_7_)" points="268.18,229.401 265.772,226.476 624.323,-78.746 626.728,-75.816 					"/>
					
						<linearGradient id="SVGID_8_" gradientUnits="userSpaceOnUse" x1="148.0615" y1="557.9639" x2="509.0146" y2="557.9639" gradientTransform="matrix(1 0 0 -1 116 651.6348)">
						<stop  offset="0" style="stop-color:#FFC431"/>
						<stop  offset="1" style="stop-color:#FF8300"/>
					</linearGradient>
					<polygon fill="url(#SVGID_8_)" points="266.466,247.746 264.062,244.818 622.612,-60.403 625.015,-57.474 					"/>
					
						<linearGradient id="SVGID_9_" gradientUnits="userSpaceOnUse" x1="146.3477" y1="539.6201" x2="507.3018" y2="539.6201" gradientTransform="matrix(1 0 0 -1 116 651.6348)">
						<stop  offset="0" style="stop-color:#FFC431"/>
						<stop  offset="1" style="stop-color:#FF8300"/>
					</linearGradient>
					<polygon fill="url(#SVGID_9_)" points="264.754,266.09 262.348,263.161 620.896,-42.059 623.302,-39.13 					"/>
					
						<linearGradient id="SVGID_10_" gradientUnits="userSpaceOnUse" x1="144.6328" y1="521.2764" x2="505.5889" y2="521.2764" gradientTransform="matrix(1 0 0 -1 116 651.6348)">
						<stop  offset="0" style="stop-color:#FFC431"/>
						<stop  offset="1" style="stop-color:#FF8300"/>
					</linearGradient>
					<polygon fill="url(#SVGID_10_)" points="263.04,284.431 260.633,281.506 619.183,-23.715 621.589,-20.787 					"/>
					
						<linearGradient id="SVGID_11_" gradientUnits="userSpaceOnUse" x1="142.9219" y1="502.9336" x2="503.873" y2="502.9336" gradientTransform="matrix(1 0 0 -1 116 651.6348)">
						<stop  offset="0" style="stop-color:#FFC431"/>
						<stop  offset="1" style="stop-color:#FF8300"/>
					</linearGradient>
					<polygon fill="url(#SVGID_11_)" points="261.327,302.773 258.922,299.848 617.47,-5.371 619.873,-2.443 					"/>
					
						<linearGradient id="SVGID_12_" gradientUnits="userSpaceOnUse" x1="141.2075" y1="484.5898" x2="502.1631" y2="484.5898" gradientTransform="matrix(1 0 0 -1 116 651.6348)">
						<stop  offset="0" style="stop-color:#FFC431"/>
						<stop  offset="1" style="stop-color:#FF8300"/>
					</linearGradient>
					<polygon fill="url(#SVGID_12_)" points="259.614,321.118 257.208,318.19 615.757,12.972 618.163,15.9 					"/>
					
						<linearGradient id="SVGID_13_" gradientUnits="userSpaceOnUse" x1="139.4922" y1="466.2451" x2="500.4482" y2="466.2451" gradientTransform="matrix(1 0 0 -1 116 651.6348)">
						<stop  offset="0" style="stop-color:#FFC431"/>
						<stop  offset="1" style="stop-color:#FF8300"/>
					</linearGradient>
					<polygon fill="url(#SVGID_13_)" points="257.901,339.464 255.492,336.532 614.043,31.316 616.448,34.245 					"/>
					
						<linearGradient id="SVGID_14_" gradientUnits="userSpaceOnUse" x1="137.7793" y1="447.9033" x2="498.7354" y2="447.9033" gradientTransform="matrix(1 0 0 -1 116 651.6348)">
						<stop  offset="0" style="stop-color:#FFC431"/>
						<stop  offset="1" style="stop-color:#FF8300"/>
					</linearGradient>
					<polygon fill="url(#SVGID_14_)" points="256.188,357.804 253.779,354.88 612.33,49.659 614.735,52.584 					"/>
					
						<linearGradient id="SVGID_15_" gradientUnits="userSpaceOnUse" x1="136.0659" y1="429.5615" x2="497.0215" y2="429.5615" gradientTransform="matrix(1 0 0 -1 116 651.6348)">
						<stop  offset="0" style="stop-color:#FFC431"/>
						<stop  offset="1" style="stop-color:#FF8300"/>
					</linearGradient>
					<polygon fill="url(#SVGID_15_)" points="254.47,376.146 252.066,373.22 610.615,68.002 613.021,70.931 					"/>
					
						<linearGradient id="SVGID_16_" gradientUnits="userSpaceOnUse" x1="134.353" y1="411.2168" x2="495.3066" y2="411.2168" gradientTransform="matrix(1 0 0 -1 116 651.6348)">
						<stop  offset="0" style="stop-color:#FFC431"/>
						<stop  offset="1" style="stop-color:#FF8300"/>
					</linearGradient>
					<polygon fill="url(#SVGID_16_)" points="252.761,394.489 250.353,391.563 608.902,86.346 611.307,89.274 					"/>
					
						<linearGradient id="SVGID_17_" gradientUnits="userSpaceOnUse" x1="132.6387" y1="392.874" x2="493.5957" y2="392.874" gradientTransform="matrix(1 0 0 -1 116 651.6348)">
						<stop  offset="0" style="stop-color:#FFC431"/>
						<stop  offset="1" style="stop-color:#FF8300"/>
					</linearGradient>
					<polygon fill="url(#SVGID_17_)" points="251.047,412.831 248.639,409.909 607.19,104.69 609.596,107.618 					"/>
					
						<linearGradient id="SVGID_18_" gradientUnits="userSpaceOnUse" x1="130.9258" y1="374.5283" x2="491.8809" y2="374.5283" gradientTransform="matrix(1 0 0 -1 116 651.6348)">
						<stop  offset="0" style="stop-color:#FFC431"/>
						<stop  offset="1" style="stop-color:#FF8300"/>
					</linearGradient>
					<polygon fill="url(#SVGID_18_)" points="249.333,431.179 246.926,428.251 605.477,123.034 607.881,125.959 					"/>
					
						<linearGradient id="SVGID_19_" gradientUnits="userSpaceOnUse" x1="129.2124" y1="356.1846" x2="490.1689" y2="356.1846" gradientTransform="matrix(1 0 0 -1 116 651.6348)">
						<stop  offset="0" style="stop-color:#FFC431"/>
						<stop  offset="1" style="stop-color:#FF8300"/>
					</linearGradient>
					<polygon fill="url(#SVGID_19_)" points="247.619,449.522 245.212,446.591 603.762,141.378 606.169,144.306 					"/>
				</g>
			</g>
		</g>
	</g>
</g>
<g>
	<g>
		<g>
			<g>
				<defs>
					<path id="SVGID_20_" d="M372.103,513.117c17.545,1.638,30.586,16.96,29.126,34.217c-1.458,17.26-16.866,29.921-34.412,28.282
						c-17.548-1.639-30.588-16.958-29.129-34.217C339.147,524.141,354.556,511.478,372.103,513.117z"/>
				</defs>
				<clipPath id="SVGID_21_">
					<use xlink:href="#SVGID_20_"  overflow="visible"/>
				</clipPath>
				<g clip-path="url(#SVGID_21_)">
					
						<linearGradient id="SVGID_22_" gradientUnits="userSpaceOnUse" x1="-221.1299" y1="372.3291" x2="-102.9844" y2="372.3291" gradientTransform="matrix(-4.371139e-008 -1 -1 4.371139e-008 696.7158 381.5708)">
						<stop  offset="0" style="stop-color:#FFC431"/>
						<stop  offset="1" style="stop-color:#FF8300"/>
					</linearGradient>
					<polygon fill="url(#SVGID_22_)" points="374.817,601.913 373.858,602.701 273.958,485.345 274.917,484.556 					"/>
					
						<linearGradient id="SVGID_23_" gradientUnits="userSpaceOnUse" x1="-221.6904" y1="366.3252" x2="-103.5469" y2="366.3252" gradientTransform="matrix(-4.371139e-008 -1 -1 4.371139e-008 696.7158 381.5708)">
						<stop  offset="0" style="stop-color:#FFC431"/>
						<stop  offset="1" style="stop-color:#FF8300"/>
					</linearGradient>
					<polygon fill="url(#SVGID_23_)" points="380.821,602.475 379.864,603.262 279.962,485.904 280.921,485.118 					"/>
					
						<linearGradient id="SVGID_24_" gradientUnits="userSpaceOnUse" x1="-222.251" y1="360.3203" x2="-104.1064" y2="360.3203" gradientTransform="matrix(-4.371139e-008 -1 -1 4.371139e-008 696.7158 381.5708)">
						<stop  offset="0" style="stop-color:#FFC431"/>
						<stop  offset="1" style="stop-color:#FF8300"/>
					</linearGradient>
					<polygon fill="url(#SVGID_24_)" points="386.825,603.035 385.867,603.822 285.966,486.466 286.925,485.678 					"/>
					
						<linearGradient id="SVGID_25_" gradientUnits="userSpaceOnUse" x1="-222.8115" y1="354.3164" x2="-104.668" y2="354.3164" gradientTransform="matrix(-4.371139e-008 -1 -1 4.371139e-008 696.7158 381.5708)">
						<stop  offset="0" style="stop-color:#FFC431"/>
						<stop  offset="1" style="stop-color:#FF8300"/>
					</linearGradient>
					<polygon fill="url(#SVGID_25_)" points="392.829,603.595 391.871,604.383 291.97,487.027 292.928,486.239 					"/>
					
						<linearGradient id="SVGID_26_" gradientUnits="userSpaceOnUse" x1="-223.373" y1="348.3125" x2="-105.2285" y2="348.3125" gradientTransform="matrix(-4.371139e-008 -1 -1 4.371139e-008 696.7158 381.5708)">
						<stop  offset="0" style="stop-color:#FFC431"/>
						<stop  offset="1" style="stop-color:#FF8300"/>
					</linearGradient>
					<polygon fill="url(#SVGID_26_)" points="398.833,604.156 397.875,604.944 297.974,487.587 298.933,486.8 					"/>
					
						<linearGradient id="SVGID_27_" gradientUnits="userSpaceOnUse" x1="-223.9336" y1="342.3086" x2="-105.7891" y2="342.3086" gradientTransform="matrix(-4.371139e-008 -1 -1 4.371139e-008 696.7158 381.5708)">
						<stop  offset="0" style="stop-color:#FFC431"/>
						<stop  offset="1" style="stop-color:#FF8300"/>
					</linearGradient>
					<polygon fill="url(#SVGID_27_)" points="404.837,604.718 403.879,605.505 303.978,488.147 304.937,487.36 					"/>
					
						<linearGradient id="SVGID_28_" gradientUnits="userSpaceOnUse" x1="-224.4941" y1="336.3037" x2="-106.3506" y2="336.3037" gradientTransform="matrix(-4.371139e-008 -1 -1 4.371139e-008 696.7158 381.5708)">
						<stop  offset="0" style="stop-color:#FFC431"/>
						<stop  offset="1" style="stop-color:#FF8300"/>
					</linearGradient>
					<polygon fill="url(#SVGID_28_)" points="410.842,605.277 409.883,606.065 309.982,488.71 310.941,487.922 					"/>
					
						<linearGradient id="SVGID_29_" gradientUnits="userSpaceOnUse" x1="-225.0547" y1="330.2998" x2="-106.9121" y2="330.2998" gradientTransform="matrix(-4.371139e-008 -1 -1 4.371139e-008 696.7158 381.5708)">
						<stop  offset="0" style="stop-color:#FFC431"/>
						<stop  offset="1" style="stop-color:#FF8300"/>
					</linearGradient>
					<polygon fill="url(#SVGID_29_)" points="416.845,605.839 415.889,606.626 315.986,489.271 316.944,488.483 					"/>
					
						<linearGradient id="SVGID_30_" gradientUnits="userSpaceOnUse" x1="-225.6152" y1="324.2959" x2="-107.4727" y2="324.2959" gradientTransform="matrix(-4.371139e-008 -1 -1 4.371139e-008 696.7158 381.5708)">
						<stop  offset="0" style="stop-color:#FFC431"/>
						<stop  offset="1" style="stop-color:#FF8300"/>
					</linearGradient>
					<polygon fill="url(#SVGID_30_)" points="422.849,606.399 421.892,607.187 321.99,489.831 322.948,489.044 					"/>
					
						<linearGradient id="SVGID_31_" gradientUnits="userSpaceOnUse" x1="-226.1768" y1="318.292" x2="-108.0313" y2="318.292" gradientTransform="matrix(-4.371139e-008 -1 -1 4.371139e-008 696.7158 381.5708)">
						<stop  offset="0" style="stop-color:#FFC431"/>
						<stop  offset="1" style="stop-color:#FF8300"/>
					</linearGradient>
					<polygon fill="url(#SVGID_31_)" points="428.854,606.96 427.896,607.748 327.994,490.392 328.952,489.603 					"/>
					
						<linearGradient id="SVGID_32_" gradientUnits="userSpaceOnUse" x1="-226.7383" y1="312.2881" x2="-108.5947" y2="312.2881" gradientTransform="matrix(-4.371139e-008 -1 -1 4.371139e-008 696.7158 381.5708)">
						<stop  offset="0" style="stop-color:#FFC431"/>
						<stop  offset="1" style="stop-color:#FF8300"/>
					</linearGradient>
					<polygon fill="url(#SVGID_32_)" points="434.857,607.521 433.897,608.31 333.998,490.952 334.957,490.166 					"/>
					
						<linearGradient id="SVGID_33_" gradientUnits="userSpaceOnUse" x1="-227.2988" y1="306.2842" x2="-109.1543" y2="306.2842" gradientTransform="matrix(-4.371139e-008 -1 -1 4.371139e-008 696.7158 381.5708)">
						<stop  offset="0" style="stop-color:#FFC431"/>
						<stop  offset="1" style="stop-color:#FF8300"/>
					</linearGradient>
					<polygon fill="url(#SVGID_33_)" points="440.86,608.082 439.903,608.87 340.002,491.513 340.959,490.726 					"/>
					
						<linearGradient id="SVGID_34_" gradientUnits="userSpaceOnUse" x1="-227.8594" y1="300.2803" x2="-109.7148" y2="300.2803" gradientTransform="matrix(-4.371139e-008 -1 -1 4.371139e-008 696.7158 381.5708)">
						<stop  offset="0" style="stop-color:#FFC431"/>
						<stop  offset="1" style="stop-color:#FF8300"/>
					</linearGradient>
					<polygon fill="url(#SVGID_34_)" points="446.864,608.644 445.906,609.431 346.006,492.074 346.965,491.286 					"/>
					
						<linearGradient id="SVGID_35_" gradientUnits="userSpaceOnUse" x1="-228.4199" y1="294.2764" x2="-110.2773" y2="294.2764" gradientTransform="matrix(-4.371139e-008 -1 -1 4.371139e-008 696.7158 381.5708)">
						<stop  offset="0" style="stop-color:#FFC431"/>
						<stop  offset="1" style="stop-color:#FF8300"/>
					</linearGradient>
					<polygon fill="url(#SVGID_35_)" points="452.868,609.203 451.911,609.991 352.01,492.636 352.969,491.849 					"/>
					
						<linearGradient id="SVGID_36_" gradientUnits="userSpaceOnUse" x1="-228.9814" y1="288.2734" x2="-110.8379" y2="288.2734" gradientTransform="matrix(-4.371139e-008 -1 -1 4.371139e-008 696.7158 381.5708)">
						<stop  offset="0" style="stop-color:#FFC431"/>
						<stop  offset="1" style="stop-color:#FF8300"/>
					</linearGradient>
					<polygon fill="url(#SVGID_36_)" points="458.871,609.764 457.915,610.553 358.014,493.195 358.973,492.409 					"/>
					
						<linearGradient id="SVGID_37_" gradientUnits="userSpaceOnUse" x1="-229.541" y1="282.2676" x2="-111.3975" y2="282.2676" gradientTransform="matrix(-4.371139e-008 -1 -1 4.371139e-008 696.7158 381.5708)">
						<stop  offset="0" style="stop-color:#FFC431"/>
						<stop  offset="1" style="stop-color:#FF8300"/>
					</linearGradient>
					<polygon fill="url(#SVGID_37_)" points="464.877,610.325 463.918,611.112 364.02,493.757 364.976,492.969 					"/>
					
						<linearGradient id="SVGID_38_" gradientUnits="userSpaceOnUse" x1="-230.1016" y1="276.2637" x2="-111.959" y2="276.2637" gradientTransform="matrix(-4.371139e-008 -1 -1 4.371139e-008 696.7158 381.5708)">
						<stop  offset="0" style="stop-color:#FFC431"/>
						<stop  offset="1" style="stop-color:#FF8300"/>
					</linearGradient>
					<polygon fill="url(#SVGID_38_)" points="470.882,610.886 469.921,611.673 370.022,494.318 370.981,493.53 					"/>
				</g>
			</g>
		</g>
	</g>
</g>
<g>
	
		<linearGradient id="SVGID_39_" gradientUnits="userSpaceOnUse" x1="348.8379" y1="-394.3589" x2="348.8379" y2="-453.5621" gradientTransform="matrix(0.3049 -0.9524 0.9524 0.3049 681.8466 694.9774)">
		<stop  offset="0.0025" style="stop-color:#FFE7DD;stop-opacity:0"/>
		<stop  offset="0.1802" style="stop-color:#FFDBCC;stop-opacity:0.1782"/>
		<stop  offset="0.4767" style="stop-color:#FFCCB5;stop-opacity:0.4754"/>
		<stop  offset="0.7565" style="stop-color:#FFC3A7;stop-opacity:0.7559"/>
		<stop  offset="1" style="stop-color:#FFC0A2"/>
	</linearGradient>
	<path fill="url(#SVGID_39_)" d="M391.143,194.038c21.167,6.879,32.995,29.368,26.417,50.232
		c-6.577,20.863-29.071,32.199-50.239,25.322c-21.17-6.879-32.998-29.369-26.418-50.233
		C347.479,198.496,369.975,187.159,391.143,194.038z"/>
	<path fill="#157FCE" d="M387.468,226.587c6.841-1.596,13.703,2.542,15.332,9.249c1.629,6.709-2.594,13.443-9.43,15.041
		c-6.843,1.597-13.703-2.546-15.332-9.253C376.404,234.918,380.63,228.188,387.468,226.587z"/>
	<path fill="#157FCE" d="M347.448,221.846c2.479-0.576,4.963,0.922,5.555,3.351c0.588,2.43-0.94,4.868-3.418,5.447
		c-2.478,0.578-4.961-0.923-5.551-3.351C343.441,224.864,344.973,222.426,347.448,221.846z"/>
</g>
<g>
	<g>
		<path fill="#FFFFFF" d="M109.381,565.774c1.147-2.45,4.04-3.523,6.462-2.422c2.405,1.108,3.442,3.984,2.293,6.434
			c-1.146,2.451-4.036,3.518-6.444,2.416C109.273,571.093,108.234,568.224,109.381,565.774z"/>
	</g>
	<g>
		
			<radialGradient id="SVGID_40_" cx="-39.5552" cy="100.9653" r="4.8479" gradientTransform="matrix(1 0 0 -1 116 651.6348)" gradientUnits="userSpaceOnUse">
			<stop  offset="0" style="stop-color:#00ECFF"/>
			<stop  offset="0.1521" style="stop-color:#03DEF9"/>
			<stop  offset="0.2984" style="stop-color:#0AB9E8"/>
			<stop  offset="1" style="stop-color:#262CA9"/>
		</radialGradient>
		<path fill="url(#SVGID_40_)" d="M72.077,548.667c1.146-2.446,4.026-3.529,6.442-2.417c2.419,1.101,3.442,3.975,2.295,6.424
			c-1.151,2.453-4.028,3.524-6.441,2.414C71.951,553.98,70.927,551.12,72.077,548.667z"/>
	</g>
	<g>
		<path fill="#FFFFFF" d="M122.649,537.495c1.14-2.438,4.038-3.521,6.457-2.414c2.406,1.103,3.445,3.985,2.298,6.427
			c-1.15,2.453-4.042,3.53-6.451,2.424C122.536,542.824,121.495,539.949,122.649,537.495z"/>
	</g>
	<g>
		<path fill="#FFFFFF" d="M85.341,520.39c1.146-2.441,4.022-3.526,6.442-2.418c2.417,1.108,3.438,3.982,2.296,6.421
			c-1.152,2.461-4.032,3.539-6.445,2.431C85.216,525.713,84.19,522.846,85.341,520.39z"/>
	</g>
	<g>
		<path fill="#FFFFFF" d="M136.556,507.853c1.142-2.439,4.04-3.526,6.456-2.415c2.408,1.102,3.442,3.987,2.296,6.431
			c-1.145,2.442-4.038,3.523-6.447,2.424C136.442,513.181,135.408,510.299,136.556,507.853z"/>
	</g>
	<g>
		
			<radialGradient id="SVGID_41_" cx="-12.3857" cy="158.8813" r="4.8491" gradientTransform="matrix(1 0 0 -1 116 651.6348)" gradientUnits="userSpaceOnUse">
			<stop  offset="0" style="stop-color:#00ECFF"/>
			<stop  offset="0.1521" style="stop-color:#03DEF9"/>
			<stop  offset="0.2984" style="stop-color:#0AB9E8"/>
			<stop  offset="1" style="stop-color:#262CA9"/>
		</radialGradient>
		<path fill="url(#SVGID_41_)" d="M99.247,490.748c1.146-2.439,4.023-3.527,6.446-2.424c2.411,1.107,3.435,3.991,2.291,6.431
			c-1.144,2.444-4.031,3.534-6.444,2.425C99.12,496.07,98.101,493.195,99.247,490.748z"/>
	</g>
	<g>
		<path fill="#FFFFFF" d="M37.782,532.946c1.149-2.449,4.029-3.526,6.448-2.422c2.418,1.112,3.44,3.978,2.293,6.428
			c-1.153,2.454-4.02,3.524-6.441,2.418C37.663,538.26,36.635,535.396,37.782,532.946z"/>
	</g>
	<g>
		
			<radialGradient id="SVGID_42_" cx="-111.1602" cy="133.7959" r="4.8486" gradientTransform="matrix(1 0 0 -1 116 651.6348)" gradientUnits="userSpaceOnUse">
			<stop  offset="0" style="stop-color:#00ECFF"/>
			<stop  offset="0.1521" style="stop-color:#03DEF9"/>
			<stop  offset="0.2984" style="stop-color:#0AB9E8"/>
			<stop  offset="1" style="stop-color:#262CA9"/>
		</radialGradient>
		<path fill="url(#SVGID_42_)" d="M0.47,515.838c1.148-2.449,4.029-3.528,6.444-2.422c2.407,1.102,3.446,3.982,2.298,6.433
			c-1.15,2.448-4.04,3.516-6.447,2.413C0.347,521.154-0.677,518.289,0.47,515.838z"/>
	</g>
	<g>
		
			<radialGradient id="SVGID_43_" cx="-60.585" cy="144.957" r="4.8501" gradientTransform="matrix(1 0 0 -1 116 651.6348)" gradientUnits="userSpaceOnUse">
			<stop  offset="0" style="stop-color:#00ECFF"/>
			<stop  offset="0.1521" style="stop-color:#03DEF9"/>
			<stop  offset="0.2984" style="stop-color:#0AB9E8"/>
			<stop  offset="1" style="stop-color:#262CA9"/>
		</radialGradient>
		<path fill="url(#SVGID_43_)" d="M51.049,504.667c1.142-2.437,4.026-3.525,6.445-2.414c2.419,1.107,3.435,3.981,2.29,6.421
			c-1.152,2.456-4.021,3.537-6.444,2.43C50.926,509.992,49.894,507.125,51.049,504.667z"/>
	</g>
	<g>
		<path fill="#FFFFFF" d="M13.737,487.558c1.144-2.438,4.025-3.521,6.44-2.418c2.408,1.104,3.446,3.991,2.302,6.43
			c-1.15,2.453-4.048,3.525-6.453,2.424C13.61,492.884,12.585,490.014,13.737,487.558z"/>
	</g>
	<g>
		<path fill="#FFFFFF" d="M64.954,475.028c1.146-2.442,4.029-3.531,6.449-2.422c2.421,1.109,3.433,3.985,2.29,6.427
			c-1.146,2.446-4.022,3.536-6.444,2.425C64.83,480.351,63.807,477.469,64.954,475.028z"/>
	</g>
	<g>
		<path fill="#FFFFFF" d="M27.642,457.92c1.144-2.439,4.03-3.532,6.444-2.421c2.405,1.099,3.443,3.989,2.299,6.427
			c-1.146,2.448-4.046,3.524-6.452,2.424C27.516,463.243,26.495,460.365,27.642,457.92z"/>
	</g>
</g>
<g>
	<g>
		<path fill="#FFFFFF" d="M470.714,337.333c-0.975-2.687,0.385-5.648,3.019-6.633c2.623-0.969,5.545,0.403,6.514,3.09
			c0.975,2.688-0.385,5.643-3.006,6.618C474.604,341.386,471.685,340.02,470.714,337.333z"/>
	</g>
	<g>
		
			<radialGradient id="SVGID_44_" cx="318.8398" cy="300.9863" r="5.1198" gradientTransform="matrix(1 0 0 -1 116 651.6348)" gradientUnits="userSpaceOnUse">
			<stop  offset="0" style="stop-color:#00ECFF"/>
			<stop  offset="0.1521" style="stop-color:#03DEF9"/>
			<stop  offset="0.2984" style="stop-color:#0AB9E8"/>
			<stop  offset="1" style="stop-color:#262CA9"/>
		</radialGradient>
		<path fill="url(#SVGID_44_)" d="M430.081,352.416c-0.971-2.683,0.371-5.643,3.006-6.615c2.627-0.984,5.539,0.396,6.512,3.083
			c0.972,2.69-0.377,5.64-3.008,6.612C433.956,356.478,431.056,355.106,430.081,352.416z"/>
	</g>
	<g>
		
			<radialGradient id="SVGID_45_" cx="348.2715" cy="347.0947" r="5.1257" gradientTransform="matrix(1 0 0 -1 116 651.6348)" gradientUnits="userSpaceOnUse">
			<stop  offset="0" style="stop-color:#00ECFF"/>
			<stop  offset="0.1521" style="stop-color:#03DEF9"/>
			<stop  offset="0.2984" style="stop-color:#0AB9E8"/>
			<stop  offset="1" style="stop-color:#262CA9"/>
		</radialGradient>
		<path fill="url(#SVGID_45_)" d="M459.503,306.309c-0.969-2.671,0.387-5.645,3.021-6.626c2.62-0.972,5.549,0.403,6.514,3.084
			c0.975,2.691-0.381,5.654-3.006,6.628C463.396,310.373,460.474,309.002,459.503,306.309z"/>
	</g>
	<g>
		<path fill="#FFFFFF" d="M418.872,321.395c-0.969-2.68,0.369-5.639,3.006-6.616c2.631-0.978,5.541,0.406,6.508,3.082
			c0.978,2.696-0.366,5.652-2.998,6.626C422.753,325.463,419.847,324.088,418.872,321.395z"/>
	</g>
	<g>
		<path fill="#FFFFFF" d="M447.753,273.79c-0.969-2.675,0.385-5.651,3.021-6.625c2.618-0.977,5.547,0.407,6.514,3.088
			c0.971,2.68-0.383,5.646-3.004,6.623C451.646,277.852,448.724,276.473,447.753,273.79z"/>
	</g>
	<g>
		
			<radialGradient id="SVGID_46_" cx="295.8799" cy="364.5244" r="5.1218" gradientTransform="matrix(1 0 0 -1 116 651.6348)" gradientUnits="userSpaceOnUse">
			<stop  offset="0" style="stop-color:#00ECFF"/>
			<stop  offset="0.1521" style="stop-color:#03DEF9"/>
			<stop  offset="0.2984" style="stop-color:#0AB9E8"/>
			<stop  offset="1" style="stop-color:#262CA9"/>
		</radialGradient>
		<path fill="url(#SVGID_46_)" d="M407.12,288.876c-0.967-2.677,0.371-5.64,3.004-6.624c2.629-0.973,5.545,0.415,6.512,3.092
			c0.974,2.678-0.371,5.648-3,6.623C411.001,292.946,408.093,291.558,407.12,288.876z"/>
	</g>
	<g>
		<path fill="#FFFFFF" d="M392.732,366.285c-0.971-2.688,0.375-5.643,3.009-6.623c2.635-0.974,5.537,0.4,6.512,3.088
			c0.971,2.694-0.369,5.634-3.006,6.615C396.612,370.342,393.706,368.97,392.732,366.285z"/>
	</g>
	<g>
		<path fill="#FFFFFF" d="M352.098,381.373c-0.974-2.688,0.372-5.646,3.004-6.621c2.621-0.976,5.547,0.401,6.52,3.089
			c0.969,2.687-0.393,5.642-3.014,6.614C355.975,385.433,353.068,384.059,352.098,381.373z"/>
	</g>
	<g>
		
			<radialGradient id="SVGID_47_" cx="270.2827" cy="318.1338" r="5.1223" gradientTransform="matrix(1 0 0 -1 116 651.6348)" gradientUnits="userSpaceOnUse">
			<stop  offset="0" style="stop-color:#00ECFF"/>
			<stop  offset="0.1521" style="stop-color:#03DEF9"/>
			<stop  offset="0.2984" style="stop-color:#0AB9E8"/>
			<stop  offset="1" style="stop-color:#262CA9"/>
		</radialGradient>
		<path fill="url(#SVGID_47_)" d="M381.523,335.262c-0.969-2.674,0.373-5.64,3.009-6.617c2.635-0.979,5.538,0.408,6.506,3.084
			c0.976,2.694-0.361,5.646-2.998,6.629C385.407,339.329,382.497,337.959,381.523,335.262z"/>
	</g>
	<g>
		<path fill="#FFFFFF" d="M340.886,350.347c-0.967-2.674,0.378-5.635,3.005-6.614c2.623-0.974,5.555,0.406,6.52,3.083
			c0.973,2.69-0.391,5.656-3.008,6.629C344.77,354.419,341.859,353.042,340.886,350.347z"/>
	</g>
	<g>
		<path fill="#FFFFFF" d="M369.773,302.746c-0.969-2.679,0.371-5.646,3.006-6.624c2.64-0.979,5.541,0.413,6.511,3.088
			c0.972,2.684-0.363,5.645-3.002,6.624C373.654,306.813,370.741,305.425,369.773,302.746z"/>
	</g>
	<g>
		<path fill="#FFFFFF" d="M329.139,317.833c-0.97-2.676,0.372-5.646,3.004-6.62c2.614-0.976,5.549,0.408,6.516,3.082
			c0.973,2.684-0.389,5.653-3.008,6.628C333.02,321.901,330.105,320.514,329.139,317.833z"/>
	</g>
</g>
<g opacity="0.5">
	<g>
		<g>
			<g>
				<defs>
					<path id="SVGID_48_" d="M165.821,297.887c43.098,7.459,72.401,47.892,65.443,90.315c-6.958,42.427-47.533,70.77-90.633,63.314
						c-43.102-7.455-72.403-47.887-65.446-90.31C82.14,318.781,122.72,290.432,165.821,297.887z"/>
				</defs>
				<clipPath id="SVGID_49_">
					<use xlink:href="#SVGID_48_"  overflow="visible"/>
				</clipPath>
				<g clip-path="url(#SVGID_49_)">
					<polygon fill="#FFFFFF" points="155.335,518.137 152.814,519.901 -71.651,210.152 -69.129,208.392 					"/>
					<polygon fill="#FFFFFF" points="170.083,520.69 167.558,522.453 -56.903,212.704 -54.38,210.943 					"/>
					<polygon fill="#FFFFFF" points="184.834,523.239 182.307,525.002 -42.155,215.255 -39.631,213.493 					"/>
					<polygon fill="#FFFFFF" points="199.577,525.79 197.058,527.55 -27.409,217.809 -24.883,216.044 					"/>
					<polygon fill="#FFFFFF" points="214.326,528.342 211.807,530.103 -12.661,220.36 -10.136,218.591 					"/>
					<polygon fill="#FFFFFF" points="229.074,530.891 226.551,532.654 2.089,222.907 4.613,221.144 					"/>
					<polygon fill="#FFFFFF" points="243.825,533.443 241.301,535.205 16.836,225.459 19.359,223.696 					"/>
					<polygon fill="#FFFFFF" points="258.571,535.993 256.047,537.758 31.584,228.011 34.105,226.247 					"/>
					<polygon fill="#FFFFFF" points="273.321,538.543 270.795,540.308 46.33,230.559 48.856,228.796 					"/>
					<polygon fill="#FFFFFF" points="288.063,541.095 285.543,542.858 61.081,233.113 63.603,231.35 					"/>
					<polygon fill="#FFFFFF" points="302.813,543.646 300.291,545.408 75.827,235.663 78.35,233.897 					"/>
					<polygon fill="#FFFFFF" points="317.563,546.197 315.037,547.956 90.575,238.213 93.1,236.448 					"/>
					<polygon fill="#FFFFFF" points="332.307,548.75 329.785,550.509 105.322,240.765 107.847,239 					"/>
					<polygon fill="#FFFFFF" points="347.057,551.299 344.535,553.057 120.069,243.317 122.593,241.551 					"/>
					<polygon fill="#FFFFFF" points="361.807,553.85 359.281,555.61 134.818,245.867 137.342,244.103 					"/>
					<polygon fill="#FFFFFF" points="376.553,556.398 374.029,558.164 149.568,248.416 152.089,246.652 					"/>
					<polygon fill="#FFFFFF" points="391.301,558.948 388.775,560.716 164.315,250.97 166.837,249.203 					"/>
				</g>
			</g>
		</g>
	</g>
</g>
<g>
	
		<linearGradient id="SVGID_50_" gradientUnits="userSpaceOnUse" x1="293.4375" y1="-97.1411" x2="293.4375" y2="-192.5632" gradientTransform="matrix(0.9537 -0.3009 0.3009 0.9537 230.2017 674.5245)">
		<stop  offset="0.0025" style="stop-color:#FFE7DD;stop-opacity:0"/>
		<stop  offset="0.1802" style="stop-color:#FFDBCC;stop-opacity:0.1782"/>
		<stop  offset="0.4767" style="stop-color:#FFCCB5;stop-opacity:0.4754"/>
		<stop  offset="0.7565" style="stop-color:#FFC3A7;stop-opacity:0.7559"/>
		<stop  offset="1" style="stop-color:#FFC0A2"/>
	</linearGradient>
	<path fill="url(#SVGID_50_)" d="M524.63,420.259c10.646,34.259-7.942,70.75-41.52,81.507
		c-33.578,10.761-69.429-8.294-80.074-42.551c-10.646-34.26,7.942-70.752,41.521-81.51
		C478.136,366.949,513.985,386.001,524.63,420.259z"/>
	
		<radialGradient id="SVGID_51_" cx="359.4805" cy="204.5859" r="20.319" gradientTransform="matrix(1 0 0 -1 116 651.6348)" gradientUnits="userSpaceOnUse">
		<stop  offset="0" style="stop-color:#00ECFF"/>
		<stop  offset="0.1521" style="stop-color:#03DEF9"/>
		<stop  offset="0.2984" style="stop-color:#0AB9E8"/>
		<stop  offset="1" style="stop-color:#262CA9"/>
	</radialGradient>
	<path fill="url(#SVGID_51_)" d="M488.716,431.866c8.465,7.515,9.404,20.396,2.097,28.783c-7.313,8.387-20.105,9.096-28.568,1.584
		c-8.467-7.516-9.4-20.399-2.09-28.786C467.46,425.059,480.247,424.356,488.716,431.866z"/>
	<path fill="#157FCE" d="M447.378,388.637c3.064,2.724,3.406,7.389,0.758,10.426c-2.647,3.037-7.28,3.295-10.346,0.573
		c-3.066-2.723-3.404-7.389-0.758-10.426C439.678,386.173,444.313,385.918,447.378,388.637z"/>
</g>
<g>
	
		<linearGradient id="SVGID_52_" gradientUnits="userSpaceOnUse" x1="-19.1948" y1="-227.4175" x2="-19.1948" y2="-292.5355" gradientTransform="matrix(0.9537 -0.3009 0.3009 0.9537 230.2017 674.5245)">
		<stop  offset="0.0025" style="stop-color:#FFE7DD;stop-opacity:0"/>
		<stop  offset="0.1802" style="stop-color:#FFDBCC;stop-opacity:0.1782"/>
		<stop  offset="0.4767" style="stop-color:#FFCCB5;stop-opacity:0.4754"/>
		<stop  offset="0.7565" style="stop-color:#FFC3A7;stop-opacity:0.7559"/>
		<stop  offset="1" style="stop-color:#FFC0A2"/>
	</linearGradient>
	<path fill="url(#SVGID_52_)" d="M173.36,413.372c7.266,23.38-5.42,48.282-28.334,55.622c-22.915,7.344-47.38-5.659-54.645-29.037
		c-7.265-23.38,5.42-48.283,28.335-55.624S166.096,389.993,173.36,413.372z"/>
	
		<radialGradient id="SVGID_53_" cx="23.8203" cy="219.9805" r="13.8658" gradientTransform="matrix(1 0 0 -1 116 651.6348)" gradientUnits="userSpaceOnUse">
		<stop  offset="0" style="stop-color:#00ECFF"/>
		<stop  offset="0.1521" style="stop-color:#03DEF9"/>
		<stop  offset="0.2984" style="stop-color:#0AB9E8"/>
		<stop  offset="1" style="stop-color:#262CA9"/>
	</radialGradient>
	<path fill="url(#SVGID_53_)" d="M148.852,421.293c5.776,5.128,6.417,13.919,1.43,19.643c-4.99,5.724-13.72,6.207-19.496,1.081
		c-5.778-5.129-6.415-13.921-1.425-19.645C134.346,416.648,143.073,416.168,148.852,421.293z"/>
	<path fill="#157FCE" d="M120.642,391.792c2.091,1.858,2.324,5.043,0.517,7.115c-1.807,2.073-4.968,2.249-7.06,0.391
		c-2.093-1.857-2.324-5.041-0.518-7.114C115.387,390.111,118.55,389.937,120.642,391.792z"/>
</g>
</svg>
