<?xml version="1.0" encoding="utf-8"?>
<!-- Generator: Adobe Illustrator 16.0.0, SVG Export Plug-In . SVG Version: 6.00 Build 0)  -->
<!DOCTYPE svg PUBLIC "-//W3C//DTD SVG 1.1//EN" "http://www.w3.org/Graphics/SVG/1.1/DTD/svg11.dtd">
<svg version="1.1" id="Layer_1" xmlns="http://www.w3.org/2000/svg" xmlns:xlink="http://www.w3.org/1999/xlink" x="0px" y="0px"
	 width="74.182px" height="27.298px" viewBox="2.302 8.671 74.182 27.298" enable-background="new 2.302 8.671 74.182 27.298"
	 xml:space="preserve">
<text transform="matrix(1 0 0 1 835.8313 -70.9033)" font-family="'ArialRoundedMTBold'" font-size="59.0588">my</text>
<text transform="matrix(1 0 0 1 835.8313 -70.9033)" fill="none" stroke="#000000" stroke-width="2" stroke-miterlimit="10" font-family="'ArialRoundedMTBold'" font-size="59.0588">my</text>
<text transform="matrix(1 0 0 1 776.4407 -0.0332)" font-family="'ArialRoundedMTBold'" font-size="59.0588">movies</text>
<text transform="matrix(1 0 0 1 776.4407 -0.0332)" fill="none" stroke="#000000" stroke-width="2" stroke-miterlimit="10" font-family="'ArialRoundedMTBold'" font-size="59.0588">movies</text>
<text transform="matrix(1 0 0 1 -19.158 -36.3398)" font-family="'ArialRoundedMTBold'" font-size="14.8044">my</text>
<text transform="matrix(1 0 0 1 28.4866 -33.0957)" fill="none" stroke="#000000" stroke-width="0.5013" stroke-miterlimit="10" font-family="'ArialRoundedMTBold'" font-size="14.8044">my</text>
<g>
	<path fill="#00FF00" d="M13.109,23.752v3.897c0,0.615-0.135,1.077-0.404,1.385c-0.27,0.307-0.627,0.461-1.069,0.461
		c-0.429,0-0.777-0.154-1.043-0.461c-0.266-0.308-0.399-0.77-0.399-1.385V22.98c0-0.738-0.024-1.311-0.072-1.719
		c-0.049-0.408-0.18-0.742-0.395-1.003c-0.214-0.262-0.554-0.392-1.017-0.392c-0.927,0-1.538,0.329-1.832,0.987
		c-0.294,0.659-0.441,1.604-0.441,2.834v3.961c0,0.607-0.133,1.066-0.4,1.38c-0.266,0.311-0.618,0.466-1.054,0.466
		c-0.429,0-0.78-0.155-1.054-0.466c-0.273-0.313-0.41-0.772-0.41-1.38v-8.384c0-0.551,0.123-0.97,0.369-1.255
		c0.246-0.288,0.569-0.43,0.97-0.43c0.388,0,0.711,0.134,0.971,0.402c0.259,0.269,0.389,0.639,0.389,1.112v0.278
		c0.491-0.608,1.018-1.056,1.578-1.341c0.561-0.286,1.184-0.43,1.869-0.43c0.713,0,1.325,0.147,1.837,0.44
		c0.512,0.293,0.934,0.737,1.267,1.331c0.477-0.601,0.989-1.046,1.536-1.336c0.547-0.289,1.153-0.435,1.817-0.435
		c0.775,0,1.442,0.158,2.003,0.472c0.561,0.316,0.979,0.766,1.256,1.353c0.242,0.53,0.363,1.363,0.363,2.501v5.722
		c0,0.615-0.135,1.077-0.405,1.385c-0.27,0.307-0.626,0.461-1.069,0.461c-0.429,0-0.781-0.155-1.054-0.466
		c-0.273-0.313-0.411-0.772-0.411-1.38v-4.927c0-0.629-0.025-1.135-0.078-1.514c-0.052-0.38-0.192-0.698-0.42-0.956
		c-0.229-0.257-0.575-0.386-1.038-0.386c-0.374,0-0.729,0.114-1.064,0.343c-0.336,0.229-0.597,0.537-0.784,0.923
		C13.213,21.626,13.109,22.5,13.109,23.752z"/>
	<path fill="#00FF00" d="M25.108,29.861l0.26-0.655l-3.488-9.083c-0.215-0.522-0.322-0.902-0.322-1.137
		c0-0.25,0.063-0.484,0.187-0.698c0.125-0.215,0.296-0.387,0.514-0.516c0.218-0.129,0.444-0.193,0.68-0.193
		c0.409,0,0.716,0.134,0.924,0.402c0.207,0.269,0.391,0.653,0.55,1.154l2.398,7.214l2.273-6.71c0.18-0.543,0.342-0.969,0.487-1.277
		c0.146-0.308,0.3-0.515,0.462-0.623c0.163-0.108,0.393-0.161,0.69-0.161c0.214,0,0.421,0.059,0.618,0.178
		c0.197,0.117,0.349,0.277,0.457,0.477c0.107,0.201,0.161,0.413,0.161,0.634c-0.028,0.136-0.072,0.329-0.135,0.58
		s-0.139,0.504-0.229,0.762l-3.695,10.004c-0.318,0.881-0.63,1.571-0.934,2.073c-0.305,0.502-0.708,0.887-1.209,1.154
		s-1.178,0.402-2.029,0.402c-0.831,0-1.453-0.094-1.869-0.279c-0.415-0.188-0.622-0.525-0.622-1.019
		c0-0.337,0.098-0.597,0.295-0.779c0.197-0.182,0.489-0.274,0.877-0.274c0.152,0,0.301,0.022,0.446,0.064
		c0.18,0.044,0.335,0.065,0.467,0.065c0.325,0,0.582-0.052,0.768-0.151c0.187-0.1,0.354-0.272,0.503-0.521
		C24.743,30.704,24.914,30.339,25.108,29.861z"/>
	<path fill="#00FF00" d="M34.17,17.837h0.312v-1.761c0-0.473,0.012-0.843,0.036-1.111c0.024-0.268,0.092-0.499,0.202-0.693
		c0.111-0.2,0.271-0.363,0.478-0.488c0.208-0.125,0.439-0.188,0.695-0.188c0.36,0,0.686,0.14,0.976,0.418
		c0.194,0.186,0.317,0.413,0.368,0.682c0.052,0.268,0.078,0.649,0.078,1.143v1.997h1.038c0.401,0,0.708,0.098,0.919,0.295
		c0.211,0.196,0.316,0.449,0.316,0.757c0,0.394-0.15,0.669-0.452,0.827c-0.3,0.157-0.731,0.235-1.292,0.235h-0.529v5.39
		c0,0.457,0.016,0.81,0.046,1.058c0.031,0.246,0.115,0.446,0.25,0.602c0.135,0.153,0.355,0.229,0.659,0.229
		c0.167,0,0.392-0.03,0.675-0.09c0.283-0.063,0.504-0.092,0.664-0.092c0.229,0,0.434,0.094,0.618,0.284
		c0.183,0.188,0.275,0.423,0.275,0.702c0,0.474-0.249,0.835-0.748,1.085c-0.498,0.25-1.214,0.375-2.148,0.375
		c-0.886,0-1.557-0.154-2.014-0.461c-0.457-0.308-0.756-0.733-0.897-1.278c-0.142-0.542-0.213-1.269-0.213-2.179v-5.625h-0.374
		c-0.408,0-0.72-0.1-0.934-0.3s-0.322-0.455-0.322-0.762c0-0.308,0.112-0.561,0.337-0.757C33.414,17.936,33.741,17.837,34.17,17.837
		z"/>
	<path fill="#00FF00" d="M43.543,19.404l2.294,6.656l2.471-6.946c0.193-0.558,0.384-0.954,0.571-1.187
		c0.187-0.232,0.47-0.349,0.851-0.349c0.359,0,0.666,0.125,0.919,0.376c0.252,0.25,0.378,0.541,0.378,0.87
		c0,0.127-0.021,0.278-0.066,0.45c-0.046,0.172-0.097,0.333-0.156,0.483c-0.059,0.15-0.126,0.322-0.202,0.515l-2.72,6.978
		c-0.076,0.2-0.175,0.454-0.296,0.762c-0.121,0.309-0.257,0.572-0.405,0.791c-0.148,0.217-0.331,0.387-0.55,0.509
		c-0.218,0.122-0.482,0.182-0.794,0.182c-0.401,0-0.722-0.094-0.96-0.284c-0.239-0.189-0.416-0.396-0.529-0.621
		c-0.114-0.227-0.307-0.673-0.576-1.338l-2.699-6.902c-0.062-0.172-0.126-0.344-0.191-0.516c-0.066-0.171-0.122-0.347-0.167-0.525
		c-0.045-0.179-0.067-0.333-0.067-0.462c0-0.2,0.059-0.398,0.176-0.596c0.118-0.197,0.28-0.357,0.488-0.483
		c0.207-0.125,0.432-0.188,0.674-0.188c0.47,0,0.794,0.14,0.971,0.419C43.133,18.277,43.328,18.746,43.543,19.404z"/>
</g>
<text transform="matrix(0.9457 0 0 1 0.5281 -6.6426)" fill="#00FF00" font-family="'ArialRoundedMTBold'" font-size="21.0738">mytv</text>
<text transform="matrix(1 0 0 1 -45.5627 -30.5781)" fill="none" stroke="#000000" stroke-width="0.5013" stroke-miterlimit="10" font-family="'ArialRoundedMTBold'" font-size="14.8044">tv</text>
<g>
	<path fill="#00FF00" d="M-633.384,45.751c-0.777,0-1.556,0-2.332,0c-2.625-0.604-3.667-2.504-4.29-4.924
		c-0.922-3.582-0.715-7.217-0.608-10.824c0.09-3.037-0.979-4.582-3.978-5.648c-31.524-11.22-50.431-33.331-56.352-66.291
		c-0.814-4.538-1.162-9.226-1.151-13.91c0.06-28.626-0.107-57.253,0.089-85.878c0.095-13.875,2.629-27.369,9.326-39.706
		c13.731-25.298,34.984-39.958,63.454-44.162c1.802-0.266,3.619-0.198,5.433-0.198c15.024-0.005,30.051-0.054,45.076,0.042
		c3.063,0.02,4.665-0.946,5.492-4.063c1.944-7.317,7.13-12.149,13.316-16.034c3.624-2.275,3.74-2.445,1.5-5.956
		c-15.326-24.021-31.016-47.805-46.479-71.736c-1.642-2.539-3.581-4.006-6.682-4.669c-7.366-1.575-11.409-9.001-9.162-16.206
		c1.392-4.458,4.389-7.161,9.108-7.788c1.813,0,3.627,0,5.44,0c7.985,1.941,11.422,7.457,9.479,15.556
		c-0.575,2.396,0.05,4.258,1.328,6.184c15.107,22.771,29.724,45.864,44.776,68.671c1.643,2.487,3.112,5.079,4.763,7.562
		c1.113,1.675,2.441,2.395,4.541,2.227c4.906-0.393,9.844-0.405,14.749-0.001c2.303,0.189,3.644-0.74,4.779-2.522
		c8.487-13.327,17.183-26.521,25.756-39.792c1.362-2.109,0.949-4.108,0.444-6.314c-1.805-7.876,3.829-15.532,11.68-16.026
		c7.244-0.456,12.833,3.912,13.824,10.805c1.059,7.35-2.96,13.556-10.318,14.949c-3.459,0.655-5.486,2.362-7.204,5.146
		c-6.939,11.241-14.451,22.117-21.428,33.335c-2.648,4.258-2.619,4.182,1.465,6.795c6.273,4.015,11.389,9.056,13.213,16.58
		c0.738,3.043,2.749,3.293,5.256,3.287c14.248-0.032,28.497-0.036,42.745-0.011c19.635,0.035,36.785,6.941,51.541,19.557
		c15.551,13.296,24.942,30.257,27.848,50.594c0.693,4.85,1.231,9.746,1.226,14.687c-0.043,28.108-0.011,56.216-0.026,84.324
		c-0.007,11.909-1.918,23.474-6.663,34.459c-9.789,22.668-26.571,37.884-49.686,46.219c-4.977,1.796-5.017,1.634-5.057,7.097
		c-0.022,3.229,0.175,6.463-0.644,9.662c-0.619,2.422-1.658,4.32-4.281,4.926c-0.777,0-1.555,0-2.332,0
		c-5.297-1.711-8.63-5.896-11.12-10.311c-3.33-5.904-7.777-7.346-14.271-7.313c-50.172,0.252-100.349,0.201-150.521,0.041
		c-4.958-0.014-8.13,1.461-10.789,5.701C-624.162,38.74-627.481,43.673-633.384,45.751z"/>
	<path fill="#FEFEFE" d="M-546.014-6.119c-34.193,0-68.388,0.006-102.583-0.002c-14.572-0.004-21.786-7.259-21.787-21.911
		c-0.007-47.216,0.229-94.431-0.158-141.642c-0.104-12.612,8.095-22.079,21.999-22.006c68.539,0.358,137.081,0.346,205.619-0.002
		c12.701-0.064,22.024,8.186,21.898,22.06c-0.431,47.21-0.427,94.43-0.004,141.641c0.125,13.979-9.306,22.198-21.948,22.024
		C-477.318-6.428-511.669-6.119-546.014-6.119z"/>
	<path fill="#FEFEFE" d="M-385.742-80.054c0.052,6.985-5.547,12.645-12.49,12.623c-6.851-0.02-12.402-5.555-12.452-12.415
		c-0.05-6.886,5.411-12.5,12.246-12.59C-391.405-92.529-385.794-87.056-385.742-80.054z"/>
	<path fill="#FEFEFE" d="M-385.739-128.584c0.023,6.909-5.418,12.457-12.292,12.529c-7.024,0.074-12.627-5.435-12.649-12.436
		c-0.021-6.992,5.602-12.611,12.556-12.545C-391.227-140.972-385.765-135.48-385.739-128.584z"/>
	<g>
		<path fill="#00FF00" stroke="#00FF00" stroke-width="2" stroke-miterlimit="10" d="M-560.768-132.627v11.763
			c0,1.859-0.421,3.252-1.265,4.18c-0.843,0.93-1.956,1.394-3.338,1.394c-1.339,0-2.425-0.464-3.256-1.394
			c-0.832-0.928-1.248-2.321-1.248-4.18v-14.096c0-2.225-0.076-3.953-0.228-5.185c-0.151-1.231-0.562-2.241-1.23-3.03
			c-0.669-0.788-1.729-1.183-3.176-1.183c-2.896,0-4.802,0.994-5.721,2.981c-0.918,1.988-1.377,4.84-1.377,8.556v11.957
			c0,1.837-0.416,3.225-1.248,4.165c-0.832,0.939-1.928,1.409-3.289,1.409c-1.34,0-2.436-0.47-3.289-1.409
			c-0.854-0.94-1.28-2.328-1.28-4.165v-25.309c0-1.663,0.384-2.927,1.15-3.791c0.767-0.864,1.777-1.297,3.03-1.297
			c1.209,0,2.219,0.405,3.03,1.215c0.81,0.81,1.215,1.928,1.215,3.354v0.842c1.534-1.836,3.176-3.187,4.926-4.051
			c1.749-0.864,3.694-1.296,5.833-1.296c2.226,0,4.136,0.443,5.736,1.329c1.598,0.886,2.916,2.225,3.953,4.019
			c1.49-1.815,3.089-3.16,4.796-4.035s3.597-1.313,5.671-1.313c2.42,0,4.505,0.476,6.254,1.426c1.75,0.951,3.059,2.312,3.921,4.083
			c0.756,1.6,1.136,4.116,1.136,7.551v17.272c0,1.859-0.422,3.252-1.266,4.18c-0.843,0.93-1.956,1.394-3.337,1.394
			c-1.34,0-2.437-0.47-3.29-1.409c-0.853-0.94-1.28-2.328-1.28-4.165v-14.874c0-1.901-0.081-3.424-0.241-4.569
			c-0.163-1.145-0.602-2.106-1.313-2.884c-0.713-0.778-1.794-1.167-3.241-1.167c-1.167,0-2.273,0.346-3.321,1.037
			c-1.049,0.691-1.864,1.62-2.447,2.787C-560.444-139.044-560.768-136.408-560.768-132.627z"/>
		<path fill="#00FF00" stroke="#00FF00" stroke-width="2" stroke-miterlimit="10" d="M-523.307-114.189l0.811-1.977l-10.889-27.416
			c-0.67-1.576-1.005-2.722-1.005-3.435c0-0.756,0.194-1.458,0.583-2.106c0.391-0.648,0.925-1.167,1.604-1.556
			c0.68-0.389,1.388-0.583,2.123-0.583c1.273,0,2.236,0.405,2.884,1.215c0.648,0.81,1.22,1.972,1.717,3.484l7.487,21.776
			l7.097-20.253c0.562-1.642,1.069-2.928,1.522-3.856c0.454-0.929,0.935-1.556,1.441-1.88c0.509-0.324,1.228-0.486,2.155-0.486
			c0.669,0,1.313,0.178,1.928,0.535c0.616,0.356,1.092,0.837,1.426,1.442c0.335,0.605,0.503,1.242,0.503,1.912
			c-0.088,0.411-0.229,0.994-0.422,1.75s-0.433,1.523-0.712,2.301l-11.536,30.202c-0.994,2.657-1.966,4.742-2.916,6.254
			c-0.951,1.513-2.211,2.673-3.776,3.483c-1.566,0.81-3.678,1.216-6.335,1.216c-2.592,0-4.537-0.281-5.833-0.843
			c-1.296-0.563-1.944-1.588-1.944-3.078c0-1.017,0.31-1.799,0.924-2.35c0.616-0.551,1.528-0.826,2.738-0.826
			c0.475,0,0.94,0.065,1.395,0.194c0.562,0.129,1.048,0.194,1.458,0.194c1.015,0,1.813-0.152,2.397-0.454
			c0.583-0.303,1.107-0.826,1.571-1.572C-524.447-111.645-523.912-112.742-523.307-114.189z"/>
	</g>
	<g>
		<path fill="#00FF00" stroke="#00FF00" stroke-width="2" stroke-miterlimit="10" d="M-626.536-62.112v11.764
			c0,1.859-0.421,3.251-1.264,4.18c-0.844,0.931-1.956,1.394-3.339,1.394c-1.339,0-2.425-0.463-3.256-1.394
			c-0.832-0.929-1.248-2.32-1.248-4.18v-14.097c0-2.224-0.075-3.953-0.227-5.185s-0.563-2.24-1.231-3.031
			c-0.669-0.787-1.729-1.183-3.176-1.183c-2.895,0-4.801,0.994-5.72,2.982c-0.918,1.989-1.377,4.84-1.377,8.556v11.957
			c0,1.838-0.416,3.225-1.248,4.164s-1.928,1.409-3.289,1.409c-1.34,0-2.438-0.47-3.289-1.409c-0.854-0.939-1.281-2.326-1.281-4.164
			v-25.308c0-1.664,0.384-2.929,1.151-3.793c0.766-0.862,1.776-1.295,3.03-1.295c1.209,0,2.219,0.403,3.029,1.214
			c0.811,0.81,1.216,1.929,1.216,3.354v0.843c1.533-1.835,3.176-3.187,4.926-4.05c1.75-0.864,3.693-1.297,5.833-1.297
			c2.224,0,4.136,0.443,5.736,1.328c1.598,0.887,2.916,2.226,3.952,4.019c1.49-1.815,3.09-3.158,4.795-4.034
			c1.707-0.876,3.599-1.313,5.672-1.313c2.42,0,4.505,0.477,6.254,1.427c1.75,0.95,3.057,2.312,3.921,4.082
			c0.756,1.601,1.135,4.115,1.135,7.551v17.272c0,1.859-0.421,3.251-1.264,4.18c-0.843,0.931-1.956,1.394-3.337,1.394
			c-1.34,0-2.437-0.47-3.29-1.409S-615-48.51-615-50.348v-14.874c0-1.9-0.081-3.424-0.243-4.569c-0.162-1.146-0.6-2.107-1.313-2.884
			c-0.713-0.777-1.794-1.168-3.241-1.168c-1.167,0-2.274,0.347-3.322,1.038c-1.048,0.691-1.862,1.62-2.447,2.787
			C-626.212-68.528-626.536-65.891-626.536-62.112z"/>
		<path fill="#00FF00" stroke="#00FF00" stroke-width="2" stroke-miterlimit="10" d="M-564.123-62.759
			c0,2.636-0.411,5.065-1.231,7.291c-0.819,2.226-2.009,4.138-3.563,5.735c-1.556,1.6-3.414,2.824-5.574,3.679
			c-2.161,0.854-4.59,1.279-7.291,1.279c-2.679,0-5.087-0.433-7.227-1.295c-2.14-0.865-3.991-2.101-5.558-3.712
			c-1.566-1.608-2.754-3.509-3.564-5.702c-0.811-2.192-1.216-4.617-1.216-7.275c0-2.678,0.41-5.132,1.231-7.357
			c0.821-2.223,1.998-4.126,3.532-5.702c1.533-1.578,3.391-2.792,5.573-3.646s4.592-1.279,7.228-1.279
			c2.679,0,5.107,0.433,7.291,1.295c2.182,0.864,4.051,2.096,5.606,3.693c1.556,1.601,2.738,3.501,3.549,5.705
			C-564.527-67.847-564.123-65.417-564.123-62.759z M-573.002-62.759c0-3.608-0.793-6.416-2.381-8.426
			c-1.589-2.009-3.722-3.014-6.4-3.014c-1.729,0-3.251,0.447-4.569,1.346c-1.317,0.896-2.333,2.219-3.045,3.968
			c-0.713,1.752-1.069,3.793-1.069,6.126c0,2.311,0.352,4.332,1.054,6.06c0.701,1.729,1.707,3.051,3.014,3.971
			c1.308,0.917,2.845,1.376,4.618,1.376c2.679,0,4.813-1.01,6.4-3.028C-573.795-56.403-573.002-59.195-573.002-62.759z"/>
		<path fill="#00FF00" stroke="#00FF00" stroke-width="2" stroke-miterlimit="10" d="M-551.775-75.235l7.162,20.092l7.712-20.968
			c0.604-1.686,1.2-2.879,1.782-3.582c0.584-0.699,1.47-1.051,2.658-1.051c1.123,0,2.078,0.377,2.866,1.133
			c0.788,0.757,1.184,1.633,1.184,2.625c0,0.388-0.07,0.843-0.21,1.36c-0.142,0.521-0.303,1.005-0.486,1.46
			c-0.185,0.452-0.395,0.972-0.632,1.554l-8.491,21.065c-0.238,0.604-0.545,1.372-0.923,2.301c-0.378,0.928-0.8,1.723-1.264,2.381
			c-0.464,0.658-1.037,1.172-1.718,1.539c-0.681,0.368-1.507,0.551-2.479,0.551c-1.253,0-2.252-0.285-2.997-0.858
			c-0.746-0.573-1.297-1.198-1.653-1.879c-0.355-0.681-0.957-2.025-1.799-4.034l-8.426-20.837c-0.194-0.519-0.395-1.038-0.599-1.557
			c-0.206-0.518-0.379-1.047-0.52-1.587s-0.211-1.005-0.211-1.394c0-0.605,0.184-1.205,0.551-1.8
			c0.368-0.593,0.875-1.08,1.523-1.457c0.647-0.378,1.35-0.566,2.106-0.566c1.47,0,2.479,0.419,3.03,1.262
			C-553.055-78.639-552.445-77.223-551.775-75.235z"/>
		<path fill="#00FF00" stroke="#00FF00" stroke-width="2" stroke-miterlimit="10" d="M-517.588-84.861
			c-1.231,0-2.284-0.378-3.16-1.133c-0.875-0.758-1.313-1.826-1.313-3.209c0-1.253,0.449-2.285,1.347-3.095
			c0.896-0.81,1.938-1.216,3.126-1.216c1.146,0,2.161,0.369,3.046,1.102c0.886,0.735,1.329,1.805,1.329,3.209
			c0,1.361-0.434,2.426-1.296,3.191C-515.374-85.243-516.399-84.861-517.588-84.861z M-513.212-75.722v25.567
			c0,1.773-0.421,3.112-1.265,4.02c-0.842,0.909-1.911,1.361-3.208,1.361c-1.296,0-2.35-0.463-3.158-1.394
			c-0.811-0.929-1.217-2.257-1.217-3.986v-25.309c0-1.749,0.406-3.065,1.217-3.952c0.81-0.887,1.862-1.328,3.158-1.328
			c1.297,0,2.366,0.441,3.208,1.328C-513.634-78.529-513.212-77.298-513.212-75.722z"/>
		<path fill="#00FF00" stroke="#00FF00" stroke-width="2" stroke-miterlimit="10" d="M-479.382-60.588h-17.305
			c0.021,2.01,0.427,3.781,1.215,5.315c0.788,1.534,1.837,2.688,3.144,3.466c1.307,0.779,2.749,1.168,4.326,1.168
			c1.059,0,2.025-0.126,2.899-0.374c0.876-0.248,1.724-0.636,2.544-1.165c0.821-0.529,1.577-1.098,2.27-1.703
			c0.69-0.604,1.588-1.425,2.688-2.463c0.455-0.388,1.103-0.581,1.945-0.581c0.908,0,1.642,0.248,2.204,0.744
			c0.562,0.498,0.843,1.198,0.843,2.106c0,0.799-0.313,1.734-0.938,2.803c-0.628,1.069-1.573,2.097-2.835,3.079
			c-1.266,0.983-2.854,1.798-4.765,2.445c-1.912,0.649-4.11,0.973-6.594,0.973c-5.683,0-10.101-1.62-13.254-4.859
			c-3.154-3.242-4.731-7.638-4.731-13.191c0-2.611,0.389-5.037,1.167-7.273c0.778-2.236,1.912-4.152,3.403-5.752
			c1.49-1.599,3.327-2.825,5.509-3.679c2.183-0.852,4.603-1.28,7.259-1.28c3.456,0,6.422,0.729,8.896,2.188
			c2.474,1.458,4.326,3.343,5.557,5.654c1.231,2.311,1.848,4.666,1.848,7.064c0,2.226-0.638,3.668-1.912,4.326
			C-475.277-60.917-477.069-60.588-479.382-60.588z M-496.686-65.611h16.041c-0.216-3.024-1.033-5.287-2.446-6.79
			c-1.415-1.502-3.278-2.252-5.591-2.252c-2.204,0-4.013,0.762-5.428,2.284C-495.524-70.845-496.384-68.593-496.686-65.611z"/>
		<path fill="#00FF00" stroke="#00FF00" stroke-width="2" stroke-miterlimit="10" d="M-436.151-56.344
			c0,2.443-0.595,4.532-1.782,6.271c-1.188,1.741-2.943,3.058-5.267,3.955c-2.322,0.896-5.146,1.344-8.474,1.344
			c-3.177,0-5.897-0.485-8.166-1.457c-2.27-0.973-3.943-2.188-5.023-3.646c-1.081-1.457-1.621-2.921-1.621-4.392
			c0-0.972,0.346-1.802,1.037-2.495c0.691-0.689,1.566-1.036,2.625-1.036c0.928,0,1.642,0.226,2.139,0.681
			c0.497,0.454,0.973,1.091,1.426,1.911c0.907,1.578,1.992,2.755,3.257,3.531c1.264,0.779,2.985,1.168,5.168,1.168
			c1.771,0,3.224-0.393,4.358-1.183c1.135-0.788,1.701-1.69,1.701-2.706c0-1.555-0.589-2.689-1.766-3.402
			c-1.18-0.713-3.117-1.394-5.817-2.041c-3.046-0.758-5.524-1.55-7.438-2.382c-1.912-0.832-3.44-1.929-4.585-3.29
			c-1.146-1.36-1.718-3.035-1.718-5.023c0-1.771,0.529-3.444,1.589-5.022c1.058-1.575,2.618-2.835,4.683-3.774
			c2.062-0.939,4.552-1.409,7.469-1.409c2.289,0,4.349,0.237,6.173,0.711c1.826,0.477,3.35,1.113,4.569,1.912
			c1.221,0.801,2.15,1.686,2.788,2.657c0.637,0.973,0.956,1.923,0.956,2.852c0,1.016-0.34,1.848-1.022,2.495
			c-0.68,0.65-1.646,0.973-2.898,0.973c-0.907,0-1.681-0.259-2.317-0.777c-0.638-0.518-1.366-1.297-2.188-2.333
			c-0.669-0.864-1.458-1.556-2.366-2.074c-0.907-0.518-2.139-0.776-3.694-0.776c-1.599,0-2.928,0.34-3.985,1.021
			c-1.06,0.681-1.589,1.527-1.589,2.544c0,0.928,0.389,1.689,1.167,2.284c0.778,0.593,1.825,1.085,3.144,1.473
			c1.318,0.391,3.133,0.865,5.444,1.427c2.743,0.67,4.985,1.471,6.725,2.399c1.738,0.928,3.056,2.023,3.953,3.288
			C-436.6-59.406-436.151-57.963-436.151-56.344z"/>
	</g>
</g>
<g>
	<g>
		<path fill="#00FF00" d="M-7.094,77.9c-0.06,0-0.119,0-0.179,0c-0.201-0.041-0.281-0.166-0.329-0.324
			c-0.071-0.236-0.055-0.475-0.047-0.713c0.007-0.198-0.075-0.301-0.304-0.371c-2.415-0.738-3.864-2.191-4.317-4.357
			c-0.062-0.299-0.089-0.607-0.088-0.914c0.004-1.884-0.008-3.765,0.007-5.646c0.007-0.913,0.201-1.799,0.714-2.611
			c1.052-1.663,2.682-2.627,4.861-2.902c0.139-0.018,0.277-0.014,0.417-0.014c1.151,0,2.303-0.003,3.453,0.003
			c0.233,0.001,0.357-0.062,0.421-0.267c0.149-0.48,0.546-0.799,1.02-1.055c0.277-0.149,0.287-0.16,0.115-0.392
			c-1.173-1.579-2.375-3.144-3.561-4.716c-0.125-0.167-0.274-0.264-0.513-0.307c-0.563-0.104-0.874-0.592-0.701-1.066
			c0.105-0.292,0.336-0.471,0.697-0.512c0.14,0,0.277,0,0.417,0c0.612,0.127,0.875,0.49,0.728,1.022
			c-0.044,0.158,0.004,0.28,0.102,0.407c1.157,1.497,2.277,3.016,3.431,4.516c0.126,0.162,0.237,0.332,0.364,0.496
			c0.085,0.109,0.188,0.157,0.349,0.146c0.376-0.026,0.754-0.026,1.13,0c0.176,0.012,0.278-0.049,0.366-0.168
			c0.649-0.875,1.315-1.742,1.973-2.615c0.104-0.139,0.073-0.27,0.034-0.416c-0.139-0.518,0.293-1.021,0.895-1.055
			c0.557-0.028,0.983,0.259,1.061,0.711c0.081,0.484-0.229,0.892-0.791,0.982c-0.267,0.043-0.42,0.155-0.553,0.34
			c-0.53,0.738-1.105,1.453-1.641,2.19c-0.203,0.28-0.201,0.274,0.112,0.446c0.479,0.265,0.872,0.596,1.012,1.091
			c0.057,0.2,0.21,0.216,0.403,0.216c1.091-0.002,2.183-0.003,3.274-0.001c1.504,0.002,2.818,0.456,3.949,1.286
			c1.191,0.874,1.91,1.988,2.134,3.327c0.054,0.317,0.095,0.641,0.094,0.964c-0.004,1.848-0.001,3.695-0.003,5.544
			c0,0.782-0.146,1.543-0.51,2.267c-0.75,1.489-2.036,2.49-3.807,3.039c-0.381,0.116-0.384,0.106-0.387,0.465
			c-0.002,0.213,0.013,0.426-0.05,0.635c-0.048,0.16-0.127,0.285-0.328,0.324c-0.06,0-0.118,0-0.179,0
			c-0.404-0.111-0.661-0.388-0.852-0.678c-0.255-0.388-0.597-0.482-1.093-0.48c-3.845,0.017-7.688,0.014-11.532,0.004
			c-0.38-0.002-0.623,0.096-0.826,0.375C-6.388,77.439-6.641,77.763-7.094,77.9z"/>
		<path fill="#FEFEFE" d="M-0.123,74.187c-2.663,0-5.327,0-7.99,0c-1.136,0-1.697-0.453-1.697-1.363
			c-0.001-2.938,0.019-5.875-0.012-8.811c-0.008-0.783,0.63-1.373,1.713-1.369c5.338,0.022,10.678,0.021,16.017,0
			c0.989-0.004,1.716,0.51,1.706,1.373c-0.032,2.937-0.032,5.873,0,8.81c0.01,0.87-0.725,1.381-1.71,1.37
			C5.227,74.167,2.552,74.187-0.123,74.187z"/>
		<g>
			<path fill="#FEFEFE" d="M12.478,69.627c0.004,0.459-0.425,0.832-0.957,0.83c-0.525-0.001-0.95-0.365-0.954-0.815
				c-0.004-0.453,0.415-0.822,0.938-0.828C12.046,68.808,12.474,69.167,12.478,69.627z"/>
			<path fill="#FEFEFE" d="M12.479,66.437c0.002,0.455-0.415,0.819-0.942,0.824c-0.537,0.006-0.967-0.357-0.969-0.816
				c-0.002-0.461,0.43-0.83,0.961-0.825C12.058,65.624,12.477,65.984,12.479,66.437z"/>
		</g>
	</g>
	<g>
		<path fill="#00FF00" stroke="#00FF00" stroke-width="0.7443" stroke-miterlimit="10" d="M-37.259,68.144v4.303
			c0,0.681-0.158,1.191-0.479,1.529c-0.319,0.34-0.741,0.51-1.264,0.51c-0.508,0-0.919-0.17-1.233-0.51
			c-0.315-0.338-0.472-0.849-0.472-1.529v-5.156c0-0.814-0.029-1.445-0.086-1.896c-0.059-0.451-0.214-0.82-0.468-1.108
			c-0.253-0.288-0.653-0.433-1.202-0.433c-1.096,0-1.817,0.363-2.166,1.09c-0.348,0.728-0.521,1.771-0.521,3.131v4.373
			c0,0.673-0.158,1.181-0.473,1.523c-0.315,0.344-0.729,0.516-1.245,0.516c-0.507,0-0.922-0.172-1.246-0.516
			s-0.485-0.852-0.485-1.523v-9.258c0-0.607,0.146-1.07,0.438-1.387c0.29-0.316,0.672-0.475,1.146-0.475
			c0.458,0,0.84,0.148,1.147,0.445c0.307,0.295,0.46,0.705,0.46,1.228v0.308c0.581-0.672,1.202-1.166,1.865-1.481
			c0.662-0.315,1.398-0.474,2.208-0.474c0.843,0,1.565,0.162,2.172,0.485c0.604,0.324,1.104,0.813,1.497,1.47
			c0.563-0.664,1.169-1.156,1.814-1.476c0.646-0.319,1.362-0.479,2.147-0.479c0.917,0,1.706,0.174,2.368,0.521
			c0.661,0.349,1.156,0.847,1.483,1.493c0.286,0.585,0.43,1.506,0.43,2.762v6.318c0,0.681-0.159,1.191-0.479,1.529
			c-0.319,0.34-0.741,0.51-1.264,0.51c-0.508,0-0.923-0.172-1.246-0.516s-0.485-0.852-0.485-1.523v-5.44
			c0-0.694-0.031-1.252-0.092-1.671c-0.062-0.418-0.228-0.771-0.497-1.055c-0.271-0.285-0.679-0.428-1.228-0.428
			c-0.441,0-0.86,0.127-1.258,0.381c-0.396,0.252-0.706,0.593-0.926,1.019C-37.136,65.796-37.259,66.761-37.259,68.144z"/>
		<path fill="#00FF00" stroke="#00FF00" stroke-width="0.7443" stroke-miterlimit="10" d="M-23.074,74.888l0.307-0.723
			l-4.123-10.029c-0.253-0.576-0.381-0.996-0.381-1.256c0-0.277,0.074-0.533,0.221-0.771c0.148-0.236,0.351-0.426,0.608-0.568
			s0.525-0.214,0.803-0.214c0.482,0,0.848,0.149,1.092,0.444c0.246,0.297,0.463,0.722,0.65,1.274l2.835,7.966l2.688-7.408
			c0.212-0.602,0.404-1.072,0.576-1.412c0.171-0.34,0.354-0.568,0.545-0.688c0.192-0.119,0.465-0.18,0.816-0.18
			c0.253,0,0.497,0.066,0.73,0.197c0.232,0.131,0.412,0.307,0.54,0.527c0.126,0.221,0.189,0.454,0.189,0.699
			c-0.033,0.15-0.086,0.363-0.16,0.641c-0.074,0.276-0.164,0.557-0.27,0.842l-4.369,11.047c-0.376,0.973-0.744,1.736-1.104,2.289
			c-0.359,0.553-0.836,0.977-1.429,1.273s-1.393,0.445-2.398,0.445c-0.981,0-1.719-0.104-2.208-0.309
			c-0.49-0.207-0.736-0.582-0.736-1.127c0-0.371,0.117-0.658,0.35-0.859c0.233-0.201,0.578-0.303,1.037-0.303
			c0.181,0,0.356,0.023,0.527,0.071c0.213,0.048,0.396,0.071,0.552,0.071c0.384,0,0.688-0.057,0.908-0.166
			c0.221-0.111,0.419-0.303,0.595-0.575C-23.507,75.82-23.304,75.418-23.074,74.888z"/>
	</g>
</g>
<g>
	<path fill="#00FF00" d="M56.433,34.022c-0.056,0-0.113,0-0.169,0c-0.193-0.041-0.27-0.169-0.315-0.329
		c-0.068-0.24-0.053-0.482-0.046-0.725c0.009-0.201-0.07-0.305-0.289-0.377c-2.31-0.749-3.695-2.225-4.127-4.424
		c-0.06-0.305-0.086-0.617-0.084-0.929c0.003-1.913-0.008-3.823,0.006-5.734c0.007-0.928,0.192-1.827,0.682-2.652
		c1.007-1.689,2.564-2.668,4.647-2.948c0.132-0.018,0.266-0.014,0.399-0.014c1.1,0,2.201-0.003,3.301,0.003
		c0.222,0.001,0.343-0.063,0.402-0.271c0.144-0.488,0.522-0.811,0.974-1.071c0.266-0.152,0.275-0.163,0.11-0.398
		c-1.98-1.233-6.066-3.103-6.214-3.205c-0.12-0.169-0.263-0.268-0.49-0.312c-0.54-0.106-0.837-0.601-0.671-1.083
		c0.102-0.296,0.322-0.478,0.668-0.52c0.132,0,0.265,0,0.396,0c0.586,0.129,0.837,0.498,0.696,1.039
		c-0.042,0.16-0.09,0.156,0.004,0.285c2.249,1.193,6.411,3.467,6.533,3.634c0.079,0.111,0.179,0.16,0.332,0.148
		c0.36-0.027,0.721-0.027,1.081,0c0.168,0.012,0.265-0.049,0.349-0.17c0.622-0.888,1.259-1.77,1.886-2.656
		c0.099-0.141,0.071-0.274,0.034-0.422c-0.133-0.526,0.279-1.038,0.855-1.071c0.531-0.029,0.938,0.263,1.014,0.722
		c0.076,0.492-0.219,0.905-0.757,0.998c-0.255,0.044-0.401,0.158-0.528,0.345c-0.508,0.75-1.057,1.476-1.567,2.224
		c-0.195,0.285-0.193,0.279,0.105,0.453c0.459,0.269,0.834,0.605,0.967,1.108c0.055,0.203,0.201,0.219,0.388,0.219
		c1.041-0.002,2.084-0.003,3.129-0.001c1.438,0.002,2.693,0.463,3.774,1.306c1.139,0.887,1.827,2.019,2.042,3.378
		c0.05,0.323,0.089,0.65,0.089,0.979c-0.005,1.877-0.002,3.753-0.005,5.63c0,0.794-0.139,1.566-0.486,2.302
		c-0.718,1.513-1.946,2.528-3.639,3.087c-0.364,0.117-0.366,0.107-0.37,0.472c-0.001,0.217,0.014,0.432-0.047,0.644
		c-0.047,0.163-0.122,0.291-0.313,0.33c-0.058,0-0.114,0-0.171,0c-0.388-0.113-0.632-0.394-0.815-0.688
		c-0.243-0.394-0.568-0.489-1.043-0.488c-3.677,0.018-7.351,0.015-11.025,0.004c-0.361-0.002-0.596,0.099-0.79,0.381
		C57.11,33.554,56.866,33.883,56.433,34.022z"/>
	<path fill="#FEFEFE" d="M63.097,30.251c-2.545,0-5.092,0-7.639,0c-1.085,0-1.622-0.46-1.622-1.385c0-2.982,0.02-5.966-0.012-8.947
		c-0.007-0.795,0.604-1.395,1.638-1.391c5.104,0.023,10.207,0.022,15.312,0c0.945-0.004,1.64,0.518,1.63,1.395
		c-0.029,2.982-0.029,5.964,0,8.946c0.01,0.884-0.692,1.402-1.634,1.393C68.212,30.232,65.655,30.251,63.097,30.251z"/>
	<g>
		<path fill="#FEFEFE" d="M75.143,25.622c0.003,0.466-0.405,0.845-0.915,0.843c-0.502-0.001-0.907-0.371-0.911-0.828
			c-0.004-0.461,0.396-0.835,0.897-0.841C74.73,24.79,75.14,25.154,75.143,25.622z"/>
		<path fill="#FEFEFE" d="M75.144,22.381c0.002,0.462-0.396,0.832-0.901,0.837c-0.513,0.007-0.924-0.362-0.926-0.829
			c-0.002-0.468,0.411-0.843,0.918-0.838C74.741,21.555,75.143,21.921,75.144,22.381z"/>
	</g>
</g>
<g>
	<path fill="#00FF00" stroke="#00FF00" stroke-width="0.7443" stroke-miterlimit="10" d="M-54.128,24.51v4.303
		c0,0.681-0.158,1.191-0.479,1.529c-0.319,0.34-0.741,0.51-1.264,0.51c-0.508,0-0.919-0.17-1.233-0.51
		c-0.315-0.338-0.472-0.849-0.472-1.529v-5.156c0-0.814-0.029-1.445-0.086-1.896c-0.059-0.451-0.214-0.82-0.468-1.108
		c-0.253-0.288-0.653-0.433-1.202-0.433c-1.096,0-1.817,0.363-2.166,1.09c-0.348,0.728-0.521,1.771-0.521,3.131v4.373
		c0,0.673-0.158,1.181-0.473,1.523c-0.315,0.344-0.729,0.516-1.245,0.516c-0.507,0-0.922-0.172-1.246-0.516
		s-0.485-0.852-0.485-1.523v-9.258c0-0.607,0.146-1.07,0.438-1.387c0.29-0.316,0.672-0.475,1.146-0.475
		c0.458,0,0.84,0.148,1.147,0.445c0.307,0.295,0.46,0.705,0.46,1.228v0.308c0.581-0.672,1.202-1.166,1.865-1.481
		c0.662-0.315,1.398-0.474,2.208-0.474c0.843,0,1.565,0.162,2.172,0.485c0.604,0.324,1.104,0.813,1.497,1.47
		c0.563-0.664,1.169-1.156,1.814-1.476c0.646-0.319,1.362-0.479,2.147-0.479c0.917,0,1.706,0.174,2.368,0.521
		c0.661,0.349,1.156,0.847,1.483,1.493c0.286,0.585,0.43,1.506,0.43,2.762v6.318c0,0.681-0.159,1.191-0.479,1.529
		c-0.319,0.34-0.741,0.51-1.264,0.51c-0.508,0-0.923-0.172-1.246-0.516s-0.485-0.852-0.485-1.523v-5.44
		c0-0.694-0.031-1.252-0.092-1.671c-0.062-0.418-0.228-0.771-0.497-1.055c-0.271-0.285-0.679-0.428-1.228-0.428
		c-0.441,0-0.86,0.127-1.258,0.381c-0.396,0.252-0.706,0.593-0.926,1.019C-54.005,22.163-54.128,23.127-54.128,24.51z"/>
	<path fill="#00FF00" stroke="#00FF00" stroke-width="0.7443" stroke-miterlimit="10" d="M-39.944,31.254l0.307-0.723l-4.123-10.029
		c-0.253-0.576-0.381-0.996-0.381-1.256c0-0.277,0.074-0.533,0.221-0.771c0.148-0.236,0.351-0.426,0.608-0.568
		s0.525-0.214,0.803-0.214c0.482,0,0.848,0.149,1.092,0.444c0.246,0.297,0.463,0.722,0.65,1.274l2.835,7.966l2.688-7.408
		c0.212-0.602,0.404-1.072,0.576-1.412c0.171-0.34,0.354-0.568,0.545-0.688c0.192-0.119,0.465-0.18,0.816-0.18
		c0.253,0,0.497,0.066,0.73,0.197c0.232,0.131,0.412,0.307,0.54,0.527c0.126,0.221,0.189,0.454,0.189,0.699
		c-0.033,0.15-0.086,0.363-0.16,0.641c-0.074,0.276-0.164,0.557-0.27,0.842l-4.369,11.047c-0.376,0.973-0.744,1.736-1.104,2.289
		c-0.359,0.553-0.836,0.977-1.429,1.273s-1.393,0.445-2.398,0.445c-0.981,0-1.719-0.104-2.208-0.309
		c-0.49-0.207-0.736-0.582-0.736-1.127c0-0.371,0.117-0.658,0.35-0.859c0.233-0.201,0.578-0.303,1.037-0.303
		c0.181,0,0.356,0.023,0.527,0.071c0.213,0.048,0.396,0.071,0.552,0.071c0.384,0,0.688-0.057,0.908-0.166
		c0.221-0.111,0.419-0.303,0.595-0.575C-40.376,32.186-40.173,31.785-39.944,31.254z"/>
</g>
<g>
	<path fill="#00FF00" stroke="#00FF00" stroke-width="0.7521" stroke-miterlimit="10" d="M-45.783,90.476v4.455
		c0,0.703-0.157,1.23-0.473,1.584c-0.314,0.352-0.729,0.526-1.247,0.526c-0.5,0-0.905-0.177-1.216-0.526
		c-0.311-0.354-0.466-0.881-0.466-1.584v-5.336c0-0.844-0.028-1.498-0.084-1.965c-0.057-0.466-0.21-0.85-0.46-1.146
		c-0.25-0.299-0.645-0.447-1.186-0.447c-1.081,0-1.793,0.376-2.138,1.129c-0.344,0.753-0.514,1.833-0.514,3.238v4.527
		c0,0.696-0.155,1.221-0.466,1.577c-0.312,0.354-0.722,0.533-1.229,0.533c-0.501,0-0.91-0.179-1.229-0.533
		c-0.319-0.356-0.479-0.881-0.479-1.577v-9.582c0-0.629,0.145-1.109,0.432-1.436c0.286-0.327,0.663-0.491,1.132-0.491
		c0.452,0,0.828,0.153,1.131,0.46s0.454,0.73,0.454,1.27v0.32c0.573-0.695,1.186-1.207,1.84-1.533
		c0.653-0.328,1.38-0.492,2.179-0.492c0.831,0,1.544,0.168,2.144,0.502c0.597,0.337,1.088,0.844,1.476,1.523
		c0.558-0.688,1.154-1.197,1.791-1.527c0.638-0.332,1.344-0.498,2.119-0.498c0.904,0,1.683,0.181,2.336,0.541
		c0.653,0.359,1.142,0.875,1.464,1.545c0.283,0.605,0.424,1.559,0.424,2.859v6.539c0,0.703-0.157,1.23-0.473,1.584
		c-0.313,0.352-0.731,0.526-1.247,0.526c-0.5,0-0.91-0.179-1.229-0.533c-0.318-0.356-0.478-0.881-0.478-1.577v-5.632
		c0-0.72-0.031-1.296-0.091-1.729s-0.225-0.799-0.49-1.092c-0.267-0.293-0.67-0.441-1.211-0.441c-0.436,0-0.85,0.13-1.241,0.393
		c-0.392,0.262-0.695,0.614-0.914,1.057C-45.661,88.047-45.783,89.046-45.783,90.476z"/>
	<path fill="#00FF00" stroke="#00FF00" stroke-width="0.7521" stroke-miterlimit="10" d="M-22.471,90.234
		c0,0.996-0.152,1.916-0.46,2.76c-0.307,0.842-0.75,1.566-1.332,2.172s-1.274,1.068-2.082,1.393
		c-0.807,0.323-1.715,0.484-2.723,0.484c-1,0-1.9-0.165-2.699-0.49c-0.799-0.328-1.491-0.795-2.076-1.406
		c-0.585-0.607-1.028-1.328-1.332-2.158c-0.302-0.83-0.454-1.748-0.454-2.754c0-1.014,0.153-1.943,0.461-2.785
		c0.307-0.842,0.745-1.563,1.318-2.16s1.268-1.057,2.082-1.379c0.815-0.323,1.714-0.484,2.699-0.484
		c1.001,0,1.908,0.164,2.723,0.491c0.815,0.327,1.514,0.793,2.096,1.397c0.58,0.605,1.021,1.324,1.324,2.16
		C-22.621,88.306-22.471,89.226-22.471,90.234z M-25.786,90.234c0-1.367-0.296-2.43-0.891-3.19c-0.593-0.763-1.39-1.142-2.391-1.142
		c-0.646,0-1.214,0.168-1.707,0.51c-0.492,0.339-0.871,0.84-1.137,1.502c-0.268,0.663-0.4,1.436-0.4,2.32
		c0,0.873,0.132,1.64,0.395,2.293c0.262,0.654,0.638,1.154,1.126,1.504c0.487,0.348,1.063,0.521,1.725,0.521
		c1.001,0,1.797-0.384,2.391-1.146C-26.083,92.638-25.786,91.583-25.786,90.234z"/>
	<path fill="#00FF00" stroke="#00FF00" stroke-width="0.7521" stroke-miterlimit="10" d="M-17.859,85.508l2.675,7.606l2.881-7.938
		c0.227-0.639,0.448-1.09,0.666-1.355c0.219-0.266,0.549-0.398,0.993-0.398c0.419,0,0.776,0.143,1.071,0.43
		c0.295,0.285,0.441,0.617,0.441,0.994c0,0.146-0.025,0.317-0.078,0.514c-0.053,0.197-0.113,0.381-0.183,0.554
		c-0.068,0.171-0.146,0.366-0.234,0.588l-3.173,7.978c-0.089,0.229-0.203,0.519-0.345,0.871c-0.141,0.351-0.299,0.651-0.472,0.9
		s-0.388,0.443-0.642,0.583s-0.563,0.208-0.926,0.208c-0.468,0-0.841-0.107-1.12-0.325c-0.277-0.217-0.483-0.454-0.617-0.712
		c-0.133-0.257-0.357-0.768-0.672-1.525l-3.146-7.891c-0.072-0.195-0.147-0.395-0.225-0.59c-0.076-0.195-0.142-0.396-0.193-0.602
		c-0.053-0.205-0.079-0.379-0.079-0.527c0-0.229,0.069-0.457,0.206-0.682s0.328-0.408,0.569-0.551
		c0.242-0.143,0.504-0.215,0.786-0.215c0.549,0,0.927,0.158,1.133,0.479C-18.337,84.22-18.109,84.755-17.859,85.508z"/>
	<path fill="#00FF00" stroke="#00FF00" stroke-width="0.7521" stroke-miterlimit="10" d="M-5.09,81.865
		c-0.459,0-0.853-0.143-1.18-0.43s-0.49-0.69-0.49-1.215c0-0.474,0.167-0.865,0.502-1.171c0.334-0.306,0.725-0.46,1.167-0.46
		c0.429,0,0.808,0.139,1.139,0.417s0.496,0.683,0.496,1.214c0,0.516-0.161,0.918-0.484,1.209C-4.262,81.72-4.646,81.865-5.09,81.865
		z M-3.454,85.326v9.68c0,0.672-0.157,1.178-0.473,1.521c-0.313,0.344-0.714,0.516-1.197,0.516c-0.484,0-0.878-0.176-1.181-0.527
		c-0.303-0.353-0.454-0.854-0.454-1.51v-9.584c0-0.662,0.151-1.16,0.454-1.496c0.302-0.335,0.695-0.503,1.181-0.503
		c0.483,0,0.884,0.167,1.197,0.503C-3.613,84.263-3.454,84.728-3.454,85.326z"/>
	<path fill="#00FF00" stroke="#00FF00" stroke-width="0.7521" stroke-miterlimit="10" d="M9.181,91.054H2.718
		c0.009,0.762,0.159,1.432,0.454,2.014c0.295,0.58,0.686,1.018,1.174,1.312c0.488,0.296,1.026,0.442,1.616,0.442
		c0.396,0,0.757-0.049,1.083-0.143s0.643-0.24,0.949-0.441c0.307-0.199,0.589-0.414,0.848-0.645
		c0.258-0.229,0.594-0.539,1.006-0.934c0.169-0.146,0.411-0.219,0.726-0.219c0.339,0,0.614,0.094,0.824,0.281
		c0.21,0.188,0.314,0.452,0.314,0.797c0,0.303-0.118,0.656-0.352,1.063c-0.234,0.404-0.588,0.793-1.059,1.166
		c-0.474,0.371-1.065,0.68-1.779,0.925c-0.715,0.246-1.536,0.369-2.463,0.369c-2.123,0-3.772-0.614-4.951-1.84
		c-1.179-1.229-1.767-2.894-1.767-4.994c0-0.989,0.145-1.908,0.436-2.754c0.291-0.849,0.714-1.573,1.271-2.179
		c0.557-0.605,1.242-1.07,2.059-1.393c0.815-0.322,1.719-0.484,2.711-0.484c1.291,0,2.399,0.274,3.322,0.828
		c0.924,0.551,1.617,1.267,2.076,2.141c0.459,0.875,0.689,1.767,0.689,2.675c0,0.845-0.237,1.39-0.714,1.64
		S10.047,91.054,9.181,91.054z M2.718,89.154H8.71c-0.08-1.146-0.386-2.002-0.914-2.571S6.571,85.73,5.708,85.73
		c-0.823,0-1.499,0.287-2.027,0.865C3.151,87.17,2.83,88.025,2.718,89.154z"/>
	<path fill="#00FF00" stroke="#00FF00" stroke-width="0.7521" stroke-miterlimit="10" d="M25.329,92.661
		c0,0.926-0.223,1.718-0.666,2.375c-0.443,0.659-1.101,1.157-1.967,1.498c-0.867,0.339-1.922,0.509-3.166,0.509
		c-1.186,0-2.202-0.186-3.049-0.553s-1.473-0.829-1.876-1.381c-0.405-0.551-0.606-1.105-0.606-1.662
		c0-0.367,0.129-0.682,0.388-0.944c0.259-0.261,0.585-0.394,0.979-0.394c0.348,0,0.614,0.086,0.8,0.259
		c0.185,0.172,0.362,0.413,0.532,0.724c0.338,0.598,0.745,1.043,1.218,1.338c0.472,0.295,1.114,0.441,1.93,0.441
		c0.662,0,1.205-0.148,1.629-0.448c0.423-0.298,0.635-0.64,0.635-1.024c0-0.588-0.221-1.019-0.66-1.287
		c-0.438-0.271-1.164-0.526-2.172-0.772c-1.138-0.286-2.063-0.587-2.776-0.901c-0.716-0.314-1.285-0.73-1.714-1.246
		c-0.428-0.514-0.642-1.148-0.642-1.901c0-0.671,0.197-1.304,0.593-1.901c0.396-0.597,0.978-1.074,1.749-1.429
		c0.771-0.356,1.701-0.534,2.79-0.534c0.854,0,1.624,0.09,2.307,0.27c0.682,0.182,1.25,0.422,1.707,0.725
		c0.455,0.303,0.803,0.639,1.041,1.005c0.237,0.368,0.356,0.729,0.356,1.08c0,0.384-0.127,0.699-0.381,0.944
		c-0.254,0.246-0.616,0.369-1.083,0.369c-0.339,0-0.627-0.1-0.866-0.295c-0.237-0.195-0.51-0.492-0.816-0.885
		c-0.25-0.326-0.544-0.589-0.884-0.785c-0.338-0.195-0.799-0.293-1.38-0.293c-0.596,0-1.093,0.129-1.487,0.387
		c-0.396,0.258-0.594,0.578-0.594,0.963c0,0.352,0.146,0.641,0.436,0.865c0.291,0.225,0.682,0.41,1.173,0.558
		c0.494,0.147,1.172,0.327,2.034,0.54c1.024,0.254,1.861,0.559,2.512,0.908c0.648,0.351,1.142,0.767,1.477,1.246
		C25.161,91.501,25.329,92.047,25.329,92.661z"/>
</g>
</svg>
