<?xml version="1.0" encoding="utf-8"?>
<!-- Generator: Adobe Illustrator 16.0.0, SVG Export Plug-In . SVG Version: 6.00 Build 0)  -->
<!DOCTYPE svg PUBLIC "-//W3C//DTD SVG 1.1//EN" "http://www.w3.org/Graphics/SVG/1.1/DTD/svg11.dtd">
<svg version="1.1" id="Layer_1" xmlns="http://www.w3.org/2000/svg" xmlns:xlink="http://www.w3.org/1999/xlink" x="0px" y="0px"
	 width="120.909px" height="143.039px" viewBox="0 0 120.909 143.039" enable-background="new 0 0 120.909 143.039"
	 xml:space="preserve">
<text transform="matrix(1 0 0 1 854.1958 -32.6426)"><tspan x="0" y="0" stroke="#000000" stroke-width="2" stroke-miterlimit="10" font-family="'ArialRoundedMTBold'" font-size="59.0588">my</tspan><tspan x="-59.39" y="70.87" stroke="#000000" stroke-width="2" stroke-miterlimit="10" font-family="'ArialRoundedMTBold'" font-size="59.0588">movies</tspan></text>
<g>
	<path fill-rule="evenodd" clip-rule="evenodd" fill="#00FF00" d="M-615.019,84.012c-0.777,0-1.555,0-2.332,0
		c-2.625-0.603-3.667-2.504-4.29-4.923c-0.922-3.583-0.715-7.217-0.608-10.825c0.09-3.036-0.979-4.581-3.978-5.648
		c-31.524-11.22-50.43-33.331-56.351-66.291c-0.815-4.538-1.162-9.226-1.152-13.91c0.06-28.626-0.107-57.253,0.089-85.878
		c0.095-13.875,2.629-27.369,9.326-39.706c13.732-25.298,34.985-39.958,63.455-44.162c1.801-0.266,3.619-0.198,5.432-0.198
		c15.025-0.005,30.051-0.054,45.076,0.042c3.063,0.02,4.665-0.946,5.493-4.063c1.944-7.317,7.129-12.149,13.316-16.034
		c3.624-2.275,3.74-2.445,1.5-5.956c-15.326-24.021-31.016-47.805-46.479-71.736c-1.641-2.539-3.581-4.006-6.681-4.669
		c-7.366-1.575-11.409-9.001-9.162-16.206c1.391-4.458,4.388-7.161,9.108-7.788c1.813,0,3.627,0,5.441,0
		c7.985,1.941,11.421,7.457,9.479,15.556c-0.575,2.396,0.05,4.258,1.328,6.184c15.108,22.771,29.724,45.864,44.777,68.671
		c1.642,2.487,3.112,5.079,4.762,7.562c1.114,1.675,2.442,2.395,4.541,2.227c4.907-0.393,9.844-0.405,14.749-0.001
		c2.303,0.189,3.644-0.74,4.78-2.522c8.487-13.327,17.182-26.521,25.755-39.792c1.363-2.109,0.95-4.108,0.445-6.314
		c-1.805-7.876,3.829-15.532,11.679-16.026c7.245-0.456,12.833,3.912,13.825,10.805c1.058,7.35-2.96,13.556-10.319,14.949
		c-3.459,0.655-5.486,2.362-7.204,5.146c-6.939,11.241-14.451,22.117-21.428,33.335c-2.648,4.258-2.619,4.182,1.465,6.795
		c6.274,4.015,11.389,9.056,13.213,16.58c0.738,3.043,2.749,3.293,5.256,3.287c14.248-0.032,28.497-0.036,42.745-0.011
		c19.635,0.035,36.785,6.941,51.541,19.557c15.551,13.296,24.943,30.257,27.848,50.594c0.693,4.85,1.231,9.746,1.225,14.687
		c-0.043,28.108-0.01,56.216-0.026,84.324c-0.007,11.909-1.918,23.474-6.663,34.459c-9.789,22.668-26.571,37.884-49.686,46.219
		c-4.976,1.795-5.016,1.634-5.056,7.096c-0.023,3.23,0.175,6.463-0.644,9.662c-0.619,2.422-1.658,4.321-4.281,4.927
		c-0.777,0-1.555,0-2.332,0c-5.297-1.712-8.63-5.897-11.12-10.311c-3.33-5.904-7.778-7.346-14.272-7.313
		c-50.172,0.252-100.348,0.201-150.521,0.042c-4.958-0.015-8.13,1.461-10.789,5.7C-605.797,77-609.116,81.935-615.019,84.012z"/>
	<path fill-rule="evenodd" clip-rule="evenodd" fill="#FEFEFE" d="M-527.649,32.142c-34.194,0-68.388,0.006-102.583-0.002
		c-14.573-0.004-21.787-7.259-21.788-21.911c-0.006-47.216,0.23-94.431-0.158-141.642c-0.104-12.612,8.095-22.079,21.999-22.006
		c68.539,0.358,137.081,0.346,205.619-0.002c12.702-0.064,22.025,8.186,21.899,22.06c-0.431,47.21-0.427,94.43-0.004,141.641
		c0.125,13.979-9.306,22.198-21.948,22.024C-458.953,31.833-493.304,32.142-527.649,32.142z"/>
	<path fill-rule="evenodd" clip-rule="evenodd" fill="#FEFEFE" d="M-367.377-41.793c0.052,6.985-5.547,12.645-12.49,12.623
		c-6.851-0.02-12.403-5.555-12.452-12.415c-0.05-6.886,5.411-12.5,12.246-12.59C-373.04-54.268-367.429-48.795-367.377-41.793z"/>
	<path fill-rule="evenodd" clip-rule="evenodd" fill="#FEFEFE" d="M-367.374-90.324c0.023,6.909-5.418,12.457-12.292,12.529
		c-7.024,0.074-12.627-5.435-12.649-12.436c-0.022-6.992,5.601-12.611,12.555-12.545
		C-372.862-102.711-367.399-97.219-367.374-90.324z"/>
	<g>
		<path fill="#00FF00" stroke="#00FF00" stroke-width="2" stroke-miterlimit="10" d="M-542.402-94.367v11.763
			c0,1.859-0.421,3.252-1.265,4.18c-0.843,0.93-1.956,1.394-3.338,1.394c-1.339,0-2.425-0.464-3.256-1.394
			c-0.832-0.928-1.248-2.321-1.248-4.18V-96.7c0-2.225-0.076-3.953-0.227-5.185c-0.152-1.231-0.562-2.241-1.231-3.03
			c-0.669-0.788-1.729-1.183-3.176-1.183c-2.895,0-4.801,0.994-5.72,2.981c-0.918,1.988-1.377,4.84-1.377,8.556v11.957
			c0,1.837-0.416,3.225-1.248,4.165c-0.832,0.939-1.928,1.409-3.289,1.409c-1.34,0-2.436-0.47-3.289-1.409
			c-0.854-0.94-1.281-2.328-1.281-4.165v-25.309c0-1.663,0.384-2.927,1.151-3.791c0.766-0.864,1.777-1.297,3.03-1.297
			c1.209,0,2.219,0.405,3.03,1.215c0.81,0.81,1.215,1.928,1.215,3.354v0.842c1.534-1.836,3.176-3.187,4.926-4.051
			c1.749-0.864,3.694-1.296,5.833-1.296c2.225,0,4.136,0.443,5.736,1.329c1.598,0.886,2.916,2.225,3.953,4.019
			c1.49-1.815,3.089-3.16,4.796-4.035c1.707-0.875,3.597-1.313,5.671-1.313c2.42,0,4.505,0.476,6.254,1.426
			c1.75,0.951,3.058,2.312,3.921,4.083c0.756,1.6,1.135,4.116,1.135,7.551v17.272c0,1.859-0.421,3.252-1.265,4.18
			c-0.843,0.93-1.956,1.394-3.337,1.394c-1.34,0-2.437-0.47-3.29-1.409c-0.853-0.94-1.28-2.328-1.28-4.165v-14.874
			c0-1.901-0.081-3.424-0.242-4.569c-0.163-1.145-0.601-2.106-1.313-2.884c-0.713-0.778-1.794-1.167-3.241-1.167
			c-1.167,0-2.274,0.346-3.322,1.037c-1.048,0.691-1.864,1.62-2.447,2.787C-542.079-100.784-542.402-98.147-542.402-94.367z"/>
		<path fill="#00FF00" stroke="#00FF00" stroke-width="2" stroke-miterlimit="10" d="M-504.941-75.928l0.81-1.977l-10.889-27.416
			c-0.669-1.576-1.004-2.722-1.004-3.435c0-0.756,0.194-1.458,0.583-2.106c0.39-0.648,0.924-1.167,1.604-1.556
			c0.68-0.389,1.388-0.583,2.123-0.583c1.274,0,2.236,0.405,2.884,1.215c0.648,0.81,1.22,1.972,1.717,3.484l7.487,21.776
			l7.097-20.253c0.561-1.642,1.069-2.928,1.522-3.856c0.454-0.929,0.935-1.556,1.442-1.88c0.508-0.324,1.227-0.486,2.155-0.486
			c0.669,0,1.313,0.178,1.928,0.535c0.616,0.356,1.091,0.837,1.425,1.442c0.335,0.605,0.503,1.242,0.503,1.912
			c-0.087,0.411-0.228,0.994-0.421,1.75c-0.194,0.756-0.433,1.523-0.712,2.301l-11.537,30.202c-0.994,2.657-1.965,4.742-2.916,6.254
			c-0.951,1.513-2.21,2.673-3.776,3.483s-3.678,1.216-6.335,1.216c-2.592,0-4.537-0.281-5.833-0.843
			c-1.296-0.563-1.944-1.588-1.944-3.078c0-1.017,0.309-1.799,0.924-2.35c0.616-0.551,1.528-0.826,2.738-0.826
			c0.475,0,0.94,0.065,1.394,0.194c0.562,0.129,1.048,0.194,1.458,0.194c1.015,0,1.814-0.152,2.398-0.454
			c0.583-0.303,1.107-0.826,1.571-1.572C-506.082-73.384-505.547-74.481-504.941-75.928z"/>
	</g>
	<g>
		<path fill="#00FF00" stroke="#00FF00" stroke-width="2" stroke-miterlimit="10" d="M-608.17-23.851v11.764
			c0,1.859-0.421,3.251-1.264,4.18c-0.843,0.931-1.956,1.394-3.338,1.394c-1.339,0-2.425-0.463-3.256-1.394
			c-0.832-0.929-1.248-2.32-1.248-4.18v-14.097c0-2.224-0.076-3.953-0.227-5.185s-0.562-2.24-1.231-3.031
			c-0.669-0.787-1.729-1.183-3.176-1.183c-2.895,0-4.801,0.994-5.72,2.982c-0.918,1.989-1.377,4.84-1.377,8.556v11.957
			c0,1.838-0.416,3.225-1.248,4.164c-0.832,0.939-1.928,1.409-3.289,1.409c-1.34,0-2.437-0.47-3.289-1.409
			c-0.854-0.939-1.281-2.326-1.281-4.164v-25.308c0-1.664,0.384-2.929,1.151-3.793c0.766-0.862,1.776-1.295,3.03-1.295
			c1.209,0,2.219,0.403,3.03,1.214c0.81,0.81,1.215,1.929,1.215,3.354v0.843c1.534-1.835,3.176-3.187,4.926-4.05
			c1.75-0.864,3.694-1.297,5.833-1.297c2.224,0,4.136,0.443,5.736,1.328c1.598,0.887,2.916,2.226,3.953,4.019
			c1.49-1.815,3.089-3.158,4.795-4.034c1.707-0.876,3.598-1.313,5.671-1.313c2.42,0,4.505,0.477,6.254,1.427
			c1.75,0.95,3.057,2.312,3.921,4.082c0.756,1.601,1.135,4.115,1.135,7.551v17.272c0,1.859-0.421,3.251-1.264,4.18
			c-0.843,0.931-1.956,1.394-3.337,1.394c-1.34,0-2.436-0.47-3.29-1.409c-0.853-0.939-1.279-2.326-1.279-4.164v-14.874
			c0-1.9-0.081-3.424-0.243-4.569c-0.162-1.146-0.6-2.107-1.313-2.884c-0.713-0.777-1.794-1.168-3.241-1.168
			c-1.167,0-2.274,0.347-3.322,1.038s-1.863,1.62-2.447,2.787C-607.847-30.267-608.17-27.63-608.17-23.851z"/>
		<path fill="#00FF00" stroke="#00FF00" stroke-width="2" stroke-miterlimit="10" d="M-545.757-24.499
			c0,2.636-0.411,5.065-1.231,7.291s-2.009,4.138-3.564,5.735c-1.555,1.6-3.414,2.824-5.574,3.679
			c-2.161,0.854-4.59,1.279-7.291,1.279c-2.679,0-5.087-0.433-7.227-1.295c-2.139-0.865-3.991-2.101-5.557-3.712
			c-1.567-1.608-2.754-3.509-3.565-5.702c-0.81-2.192-1.215-4.617-1.215-7.275c0-2.678,0.41-5.132,1.231-7.357
			c0.821-2.223,1.998-4.126,3.532-5.702c1.533-1.578,3.391-2.792,5.574-3.646c2.182-0.854,4.591-1.279,7.227-1.279
			c2.679,0,5.108,0.433,7.291,1.295c2.182,0.864,4.051,2.096,5.607,3.693c1.555,1.601,2.738,3.501,3.548,5.705
			C-546.162-29.586-545.757-27.157-545.757-24.499z M-554.637-24.499c0-3.608-0.793-6.416-2.381-8.426
			c-1.588-2.009-3.721-3.014-6.4-3.014c-1.729,0-3.251,0.447-4.569,1.346c-1.318,0.896-2.333,2.219-3.045,3.968
			c-0.713,1.752-1.07,3.793-1.07,6.126c0,2.311,0.352,4.332,1.054,6.06c0.701,1.729,1.707,3.051,3.014,3.971
			c1.307,0.917,2.845,1.376,4.618,1.376c2.679,0,4.812-1.01,6.4-3.028C-555.43-18.142-554.637-20.934-554.637-24.499z"/>
		<path fill="#00FF00" stroke="#00FF00" stroke-width="2" stroke-miterlimit="10" d="M-533.41-36.974l7.162,20.092l7.712-20.968
			c0.604-1.686,1.2-2.879,1.782-3.582c0.584-0.699,1.47-1.051,2.658-1.051c1.123,0,2.078,0.377,2.867,1.133
			c0.788,0.757,1.183,1.633,1.183,2.625c0,0.388-0.07,0.843-0.21,1.36c-0.141,0.521-0.303,1.005-0.486,1.46
			c-0.185,0.452-0.395,0.972-0.632,1.554l-8.491,21.065c-0.238,0.604-0.545,1.372-0.923,2.301c-0.378,0.928-0.8,1.723-1.264,2.381
			s-1.037,1.172-1.717,1.539c-0.681,0.368-1.507,0.551-2.479,0.551c-1.253,0-2.252-0.285-2.997-0.858
			c-0.746-0.573-1.297-1.198-1.653-1.879c-0.356-0.681-0.957-2.025-1.799-4.034l-8.426-20.837c-0.194-0.519-0.394-1.038-0.599-1.557
			c-0.206-0.518-0.378-1.047-0.519-1.587s-0.211-1.005-0.211-1.394c0-0.605,0.184-1.205,0.551-1.8
			c0.368-0.593,0.875-1.08,1.523-1.457c0.648-0.378,1.35-0.566,2.107-0.566c1.469,0,2.479,0.419,3.03,1.262
			C-534.69-40.378-534.08-38.962-533.41-36.974z"/>
		<path fill="#00FF00" stroke="#00FF00" stroke-width="2" stroke-miterlimit="10" d="M-499.223-46.6
			c-1.231,0-2.284-0.378-3.16-1.133c-0.875-0.758-1.313-1.826-1.313-3.209c0-1.253,0.449-2.285,1.346-3.095
			c0.896-0.81,1.939-1.216,3.126-1.216c1.146,0,2.161,0.369,3.046,1.102c0.886,0.735,1.329,1.805,1.329,3.209
			c0,1.361-0.433,2.426-1.296,3.191C-497.008-46.982-498.034-46.6-499.223-46.6z M-494.847-37.461v25.567
			c0,1.773-0.421,3.112-1.264,4.019c-0.842,0.909-1.912,1.361-3.208,1.361s-2.35-0.463-3.159-1.394
			c-0.81-0.929-1.216-2.257-1.216-3.986v-25.309c0-1.749,0.406-3.065,1.216-3.952c0.81-0.887,1.863-1.328,3.159-1.328
			s2.366,0.441,3.208,1.328C-495.269-40.268-494.847-39.038-494.847-37.461z"/>
		<path fill="#00FF00" stroke="#00FF00" stroke-width="2" stroke-miterlimit="10" d="M-461.017-22.328h-17.304
			c0.021,2.01,0.426,3.781,1.215,5.315c0.788,1.534,1.836,2.688,3.143,3.466c1.307,0.779,2.749,1.168,4.326,1.168
			c1.059,0,2.026-0.126,2.9-0.374c0.876-0.248,1.723-0.636,2.544-1.165s1.577-1.098,2.269-1.703
			c0.691-0.604,1.588-1.425,2.689-2.463c0.455-0.388,1.102-0.581,1.945-0.581c0.908,0,1.642,0.248,2.204,0.744
			c0.562,0.498,0.843,1.198,0.843,2.106c0,0.799-0.314,1.734-0.939,2.803c-0.628,1.069-1.573,2.097-2.835,3.079
			c-1.265,0.983-2.853,1.798-4.764,2.445c-1.912,0.649-4.111,0.973-6.594,0.973c-5.683,0-10.101-1.62-13.254-4.859
			c-3.154-3.242-4.731-7.638-4.731-13.191c0-2.611,0.388-5.037,1.167-7.273c0.778-2.236,1.912-4.152,3.403-5.752
			c1.49-1.599,3.327-2.825,5.509-3.679c2.182-0.852,4.602-1.28,7.258-1.28c3.457,0,6.422,0.729,8.896,2.188
			c2.474,1.458,4.326,3.343,5.557,5.654c1.231,2.311,1.847,4.666,1.847,7.064c0,2.226-0.637,3.668-1.912,4.326
			C-456.912-22.657-458.704-22.328-461.017-22.328z M-478.32-27.35h16.041c-0.216-3.024-1.033-5.287-2.447-6.79
			c-1.415-1.502-3.278-2.252-5.59-2.252c-2.204,0-4.013,0.762-5.428,2.284C-477.159-32.584-478.019-30.333-478.32-27.35z"/>
		<path fill="#00FF00" stroke="#00FF00" stroke-width="2" stroke-miterlimit="10" d="M-417.786-18.083
			c0,2.443-0.595,4.532-1.782,6.271c-1.188,1.741-2.944,3.058-5.267,3.955c-2.322,0.896-5.146,1.344-8.474,1.344
			c-3.176,0-5.897-0.485-8.166-1.457c-2.269-0.973-3.943-2.188-5.023-3.646c-1.081-1.457-1.621-2.921-1.621-4.392
			c0-0.972,0.346-1.802,1.037-2.495c0.691-0.689,1.566-1.036,2.625-1.036c0.928,0,1.642,0.226,2.139,0.681
			c0.497,0.454,0.972,1.091,1.425,1.911c0.908,1.578,1.993,2.755,3.257,3.531c1.264,0.779,2.986,1.168,5.168,1.168
			c1.771,0,3.224-0.393,4.359-1.183c1.134-0.788,1.701-1.69,1.701-2.706c0-1.555-0.589-2.689-1.766-3.402
			c-1.179-0.713-3.117-1.394-5.817-2.041c-3.046-0.758-5.525-1.55-7.438-2.382c-1.912-0.832-3.44-1.929-4.585-3.29
			c-1.146-1.36-1.717-3.035-1.717-5.023c0-1.771,0.529-3.444,1.588-5.022c1.058-1.575,2.619-2.835,4.683-3.774
			c2.062-0.939,4.552-1.409,7.469-1.409c2.289,0,4.348,0.237,6.173,0.711c1.826,0.477,3.349,1.113,4.569,1.912
			c1.221,0.801,2.15,1.686,2.788,2.657c0.637,0.973,0.956,1.923,0.956,2.852c0,1.016-0.34,1.848-1.022,2.495
			c-0.68,0.65-1.647,0.973-2.899,0.973c-0.907,0-1.68-0.259-2.317-0.777c-0.638-0.518-1.366-1.297-2.188-2.333
			c-0.669-0.864-1.458-1.556-2.366-2.074c-0.907-0.518-2.139-0.776-3.694-0.776c-1.599,0-2.928,0.34-3.986,1.021
			c-1.059,0.681-1.588,1.527-1.588,2.544c0,0.928,0.388,1.689,1.167,2.284c0.778,0.593,1.825,1.085,3.143,1.473
			c1.318,0.391,3.133,0.865,5.444,1.427c2.744,0.67,4.986,1.471,6.725,2.399c1.738,0.928,3.056,2.023,3.953,3.288
			C-418.235-21.145-417.786-19.703-417.786-18.083z"/>
	</g>
</g>
<g>
	<path fill-rule="evenodd" clip-rule="evenodd" fill="#00FF00" d="M24.7,143.039c-0.279,0-0.559,0-0.838,0
		c-0.943-0.216-1.318-0.9-1.542-1.769c-0.332-1.289-0.257-2.595-0.219-3.892c0.033-1.092-0.352-1.646-1.43-2.03
		c-11.331-4.033-18.126-11.98-20.254-23.827c-0.293-1.632-0.418-3.316-0.414-5c0.021-10.29-0.038-20.579,0.032-30.868
		c0.034-4.987,0.945-9.837,3.352-14.271c4.936-9.094,12.575-14.363,22.808-15.874c0.647-0.096,1.301-0.071,1.952-0.071
		c5.401-0.002,10.802-0.019,16.202,0.015c1.101,0.007,1.677-0.34,1.975-1.461c0.699-2.63,2.563-4.367,4.786-5.763
		c1.303-0.818,1.344-0.879,0.539-2.141c-5.508-8.633-11.148-17.183-16.706-25.784c-0.59-0.913-1.287-1.44-2.401-1.679
		c-2.648-0.566-4.101-3.235-3.293-5.825c0.5-1.602,1.578-2.574,3.274-2.799c0.652,0,1.304,0,1.956,0
		c2.87,0.697,4.105,2.68,3.407,5.591c-0.207,0.862,0.018,1.53,0.477,2.223c5.43,8.185,10.684,16.485,16.095,24.683
		c0.59,0.894,1.118,1.826,1.711,2.718c0.401,0.602,0.878,0.861,1.632,0.8c1.764-0.142,3.539-0.146,5.302,0
		c0.828,0.068,1.31-0.266,1.718-0.907c3.05-4.79,6.176-9.532,9.257-14.303c0.49-0.758,0.342-1.477,0.16-2.27
		c-0.649-2.831,1.376-5.583,4.197-5.76c2.604-0.164,4.613,1.406,4.969,3.883c0.38,2.642-1.064,4.873-3.709,5.374
		c-1.243,0.235-1.972,0.849-2.589,1.85c-2.494,4.041-5.194,7.95-7.702,11.982c-0.952,1.531-0.941,1.503,0.526,2.442
		c2.255,1.443,4.094,3.255,4.749,5.959c0.265,1.094,0.988,1.184,1.89,1.182c5.121-0.012,10.242-0.013,15.364-0.004
		c7.057,0.012,13.222,2.495,18.525,7.029c5.59,4.779,8.966,10.876,10.01,18.186c0.249,1.743,0.442,3.503,0.44,5.279
		c-0.016,10.103-0.003,20.207-0.01,30.309c-0.002,4.281-0.689,8.438-2.395,12.386c-3.518,8.147-9.551,13.617-17.858,16.613
		c-1.789,0.645-1.803,0.587-1.817,2.55c-0.008,1.162,0.063,2.323-0.231,3.474c-0.222,0.87-0.596,1.553-1.539,1.771
		c-0.279,0-0.559,0-0.838,0c-1.904-0.615-3.102-2.119-3.998-3.705c-1.196-2.123-2.795-2.642-5.129-2.629
		c-18.034,0.091-36.069,0.072-54.103,0.016c-1.783-0.006-2.923,0.524-3.878,2.047C28.015,140.519,26.822,142.293,24.7,143.039z"/>
	<path fill-rule="evenodd" clip-rule="evenodd" fill="#FEFEFE" d="M57.397,126.055c-13.253,0-26.506,0.002-39.759-0.001
		c-5.648-0.001-8.444-2.729-8.445-8.234c-0.002-17.742,0.089-35.485-0.061-53.227c-0.041-4.739,3.137-8.297,8.526-8.27
		c26.564,0.135,53.129,0.13,79.694-0.001c4.922-0.024,8.536,3.077,8.488,8.291c-0.167,17.74-0.166,35.484-0.002,53.226
		c0.048,5.253-3.607,8.343-8.507,8.276C84.022,125.938,70.709,126.055,57.397,126.055z"/>
	<g>
		<path fill-rule="evenodd" clip-rule="evenodd" fill="#FEFEFE" d="M116.53,97.82c0.019,2.511-1.994,4.545-4.489,4.537
			c-2.463-0.007-4.458-1.997-4.476-4.463c-0.019-2.475,1.944-4.493,4.401-4.525C114.495,93.336,116.511,95.304,116.53,97.82z"/>
		<path fill-rule="evenodd" clip-rule="evenodd" fill="#FEFEFE" d="M116.531,80.376c0.008,2.483-1.948,4.477-4.418,4.503
			c-2.525,0.026-4.539-1.953-4.547-4.47c-0.008-2.514,2.013-4.533,4.513-4.509C114.558,75.924,116.522,77.898,116.531,80.376z"/>
	</g>
	<g>
		<g>
			<path fill="#00FF00" stroke="#00FF00" stroke-width="0.7572" stroke-miterlimit="10" d="M52.014,78.116v4.454
				c0,0.704-0.159,1.231-0.479,1.583c-0.319,0.352-0.741,0.528-1.264,0.528c-0.507,0-0.918-0.176-1.233-0.528
				c-0.315-0.351-0.472-0.879-0.472-1.583v-5.337c0-0.842-0.029-1.497-0.086-1.963c-0.058-0.466-0.213-0.849-0.467-1.147
				s-0.654-0.448-1.202-0.448c-1.096,0-1.818,0.376-2.166,1.129c-0.348,0.752-0.521,1.833-0.521,3.239v4.527
				c0,0.695-0.158,1.221-0.473,1.577c-0.315,0.355-0.729,0.534-1.245,0.534c-0.507,0-0.922-0.178-1.246-0.534
				c-0.323-0.356-0.485-0.881-0.485-1.577v-9.583c0-0.63,0.146-1.108,0.437-1.436c0.29-0.327,0.672-0.491,1.146-0.491
				c0.458,0,0.84,0.154,1.147,0.46c0.307,0.307,0.46,0.73,0.46,1.271v0.318c0.581-0.695,1.202-1.207,1.865-1.534
				c0.663-0.327,1.399-0.491,2.208-0.491c0.843,0,1.566,0.168,2.172,0.503c0.605,0.335,1.104,0.842,1.497,1.521
				c0.564-0.687,1.169-1.196,1.815-1.527c0.646-0.332,1.362-0.497,2.147-0.497c0.917,0,1.706,0.18,2.368,0.54
				c0.662,0.36,1.157,0.875,1.484,1.545c0.286,0.606,0.43,1.559,0.43,2.859v6.54c0,0.704-0.16,1.231-0.479,1.583
				c-0.319,0.352-0.741,0.528-1.264,0.528c-0.507,0-0.922-0.178-1.246-0.534c-0.323-0.356-0.485-0.881-0.485-1.577v-5.632
				c0-0.72-0.031-1.296-0.092-1.73c-0.061-0.433-0.227-0.798-0.497-1.092c-0.27-0.295-0.679-0.442-1.227-0.442
				c-0.442,0-0.861,0.131-1.258,0.393c-0.397,0.262-0.706,0.613-0.926,1.055C52.137,75.686,52.014,76.684,52.014,78.116z"/>
			<path fill="#00FF00" stroke="#00FF00" stroke-width="0.7572" stroke-miterlimit="10" d="M66.198,85.097l0.307-0.748l-4.123-10.38
				c-0.253-0.597-0.381-1.03-0.381-1.3c0-0.287,0.074-0.552,0.221-0.797c0.148-0.246,0.35-0.442,0.608-0.589
				s0.525-0.221,0.803-0.221c0.482,0,0.847,0.154,1.092,0.46c0.246,0.307,0.462,0.746,0.65,1.319l2.835,8.245l2.687-7.668
				c0.212-0.622,0.405-1.109,0.577-1.46c0.171-0.352,0.354-0.589,0.545-0.712c0.192-0.123,0.464-0.185,0.816-0.185
				c0.253,0,0.497,0.068,0.73,0.203c0.233,0.135,0.413,0.317,0.54,0.546c0.126,0.229,0.19,0.47,0.19,0.724
				c-0.033,0.156-0.086,0.376-0.16,0.663c-0.074,0.287-0.164,0.577-0.27,0.872l-4.369,11.435c-0.376,1.006-0.744,1.795-1.104,2.368
				c-0.36,0.572-0.836,1.011-1.429,1.318c-0.593,0.307-1.393,0.461-2.399,0.461c-0.981,0-1.718-0.106-2.208-0.319
				c-0.49-0.213-0.736-0.602-0.736-1.166c0-0.384,0.117-0.681,0.35-0.89s0.578-0.313,1.037-0.313c0.18,0,0.356,0.024,0.527,0.073
				c0.213,0.049,0.397,0.074,0.552,0.074c0.384,0,0.687-0.058,0.908-0.172c0.221-0.115,0.419-0.313,0.595-0.595
				C65.766,86.06,65.969,85.645,66.198,85.097z"/>
		</g>
		<g>
			<path fill="#00FF00" stroke="#00FF00" stroke-width="0.7572" stroke-miterlimit="10" d="M27.113,104.813v4.455
				c0,0.703-0.16,1.23-0.479,1.583c-0.319,0.352-0.741,0.527-1.264,0.527c-0.507,0-0.918-0.176-1.232-0.527
				c-0.315-0.353-0.473-0.88-0.473-1.583v-5.337c0-0.843-0.029-1.497-0.086-1.964c-0.058-0.466-0.213-0.849-0.466-1.147
				c-0.253-0.298-0.654-0.447-1.203-0.447c-1.096,0-1.818,0.376-2.166,1.129c-0.348,0.753-0.521,1.833-0.521,3.239v4.527
				c0,0.696-0.157,1.221-0.472,1.577c-0.315,0.354-0.73,0.533-1.245,0.533c-0.508,0-0.923-0.179-1.246-0.533
				c-0.323-0.356-0.485-0.881-0.485-1.577v-9.582c0-0.63,0.146-1.109,0.437-1.436c0.29-0.327,0.672-0.491,1.147-0.491
				c0.458,0,0.839,0.153,1.146,0.46c0.307,0.306,0.46,0.73,0.46,1.269v0.319c0.581-0.695,1.202-1.207,1.865-1.533
				c0.662-0.327,1.398-0.491,2.208-0.491c0.842,0,1.565,0.167,2.172,0.502c0.605,0.336,1.104,0.843,1.497,1.522
				c0.564-0.687,1.169-1.196,1.815-1.527c0.646-0.331,1.362-0.497,2.148-0.497c0.916,0,1.706,0.18,2.368,0.54
				c0.663,0.36,1.158,0.875,1.484,1.545c0.287,0.606,0.43,1.559,0.43,2.86v6.539c0,0.703-0.16,1.23-0.479,1.583
				c-0.319,0.352-0.741,0.527-1.264,0.527c-0.507,0-0.922-0.179-1.246-0.533c-0.323-0.356-0.484-0.881-0.484-1.577v-5.632
				c0-0.72-0.031-1.296-0.092-1.73c-0.061-0.433-0.228-0.798-0.497-1.092c-0.271-0.293-0.68-0.441-1.228-0.441
				c-0.442,0-0.861,0.13-1.257,0.393c-0.397,0.262-0.706,0.614-0.927,1.056C27.236,102.385,27.113,103.384,27.113,104.813z"/>
			<path fill="#00FF00" stroke="#00FF00" stroke-width="0.7572" stroke-miterlimit="10" d="M50.744,104.57
				c0,0.997-0.155,1.917-0.466,2.76c-0.311,0.842-0.761,1.566-1.35,2.172s-1.292,1.068-2.11,1.393
				c-0.818,0.323-1.738,0.484-2.761,0.484c-1.014,0-1.926-0.165-2.736-0.49c-0.81-0.328-1.511-0.795-2.104-1.406
				c-0.593-0.608-1.043-1.328-1.35-2.158c-0.307-0.831-0.46-1.748-0.46-2.754c0-1.015,0.155-1.944,0.466-2.786
				s0.756-1.563,1.337-2.16c0.581-0.597,1.284-1.057,2.11-1.379c0.826-0.323,1.738-0.484,2.736-0.484
				c1.015,0,1.935,0.164,2.761,0.491c0.826,0.327,1.534,0.793,2.123,1.397c0.589,0.606,1.036,1.325,1.343,2.161
				C50.591,102.644,50.744,103.563,50.744,104.57z M47.382,104.57c0-1.367-0.3-2.43-0.902-3.19
				c-0.601-0.762-1.409-1.142-2.423-1.142c-0.654,0-1.23,0.169-1.73,0.51c-0.499,0.339-0.883,0.84-1.153,1.502
				c-0.271,0.663-0.405,1.436-0.405,2.32c0,0.874,0.133,1.64,0.399,2.294s0.646,1.154,1.141,1.503
				c0.495,0.348,1.077,0.521,1.748,0.521c1.015,0,1.822-0.383,2.423-1.146C47.082,106.976,47.382,105.92,47.382,104.57z"/>
			<path fill="#00FF00" stroke="#00FF00" stroke-width="0.7572" stroke-miterlimit="10" d="M55.419,99.846l2.711,7.607l2.92-7.938
				c0.229-0.639,0.454-1.09,0.675-1.356c0.221-0.265,0.556-0.398,1.006-0.398c0.425,0,0.787,0.143,1.085,0.429
				c0.298,0.286,0.448,0.618,0.448,0.994c0,0.146-0.027,0.318-0.08,0.515c-0.053,0.196-0.115,0.38-0.184,0.553
				c-0.07,0.171-0.149,0.367-0.239,0.588l-3.215,7.977c-0.09,0.229-0.207,0.519-0.35,0.871c-0.143,0.351-0.303,0.652-0.479,0.901
				s-0.393,0.443-0.65,0.583c-0.258,0.139-0.571,0.208-0.939,0.208c-0.475,0-0.853-0.107-1.135-0.325
				c-0.282-0.217-0.491-0.454-0.625-0.712c-0.135-0.257-0.363-0.768-0.681-1.526l-3.19-7.89c-0.073-0.196-0.149-0.394-0.227-0.59
				c-0.078-0.196-0.144-0.396-0.196-0.601c-0.054-0.205-0.08-0.38-0.08-0.528c0-0.229,0.07-0.457,0.208-0.681
				c0.139-0.225,0.332-0.409,0.577-0.551c0.246-0.143,0.511-0.215,0.798-0.215c0.556,0,0.938,0.158,1.147,0.478
				C54.935,98.557,55.166,99.092,55.419,99.846z"/>
			<path fill="#00FF00" stroke="#00FF00" stroke-width="0.7572" stroke-miterlimit="10" d="M68.363,96.201
				c-0.466,0-0.864-0.143-1.196-0.429c-0.331-0.287-0.497-0.691-0.497-1.215c0-0.474,0.17-0.865,0.51-1.171
				c0.339-0.306,0.734-0.46,1.183-0.46c0.434,0,0.818,0.139,1.154,0.417c0.335,0.278,0.503,0.683,0.503,1.214
				c0,0.516-0.164,0.918-0.491,1.208C69.202,96.056,68.813,96.201,68.363,96.201z M70.02,99.662v9.68
				c0,0.671-0.159,1.178-0.479,1.521c-0.319,0.344-0.724,0.516-1.215,0.516s-0.89-0.176-1.196-0.527
				c-0.307-0.353-0.46-0.854-0.46-1.51v-9.583c0-0.662,0.154-1.16,0.46-1.496c0.306-0.335,0.705-0.503,1.196-0.503
				s0.896,0.167,1.215,0.503C69.86,98.599,70.02,99.065,70.02,99.662z"/>
			<path fill="#00FF00" stroke="#00FF00" stroke-width="0.7572" stroke-miterlimit="10" d="M82.829,105.391h-6.552
				c0.008,0.762,0.162,1.432,0.46,2.014c0.298,0.581,0.695,1.018,1.19,1.312c0.495,0.296,1.041,0.442,1.638,0.442
				c0.401,0,0.767-0.048,1.099-0.143c0.331-0.093,0.652-0.239,0.963-0.44c0.311-0.2,0.597-0.415,0.859-0.645
				c0.262-0.229,0.602-0.54,1.019-0.934c0.172-0.146,0.417-0.218,0.736-0.218c0.344,0,0.622,0.093,0.834,0.281
				s0.319,0.452,0.319,0.797c0,0.303-0.119,0.656-0.356,1.062c-0.238,0.405-0.596,0.793-1.073,1.166
				c-0.479,0.371-1.08,0.68-1.804,0.925c-0.724,0.246-1.556,0.369-2.497,0.369c-2.151,0-3.824-0.614-5.018-1.84
				c-1.195-1.229-1.792-2.893-1.792-4.994c0-0.989,0.146-1.908,0.441-2.754c0.294-0.848,0.724-1.573,1.289-2.179
				c0.564-0.605,1.259-1.07,2.086-1.392c0.826-0.323,1.742-0.485,2.748-0.485c1.309,0,2.432,0.275,3.368,0.828
				c0.936,0.552,1.638,1.267,2.104,2.141c0.466,0.875,0.699,1.767,0.699,2.675c0,0.844-0.241,1.389-0.724,1.639
				C84.383,105.268,83.705,105.391,82.829,105.391z M76.277,103.49h6.074c-0.082-1.146-0.391-2.002-0.926-2.571
				s-1.241-0.853-2.117-0.853c-0.834,0-1.52,0.288-2.055,0.865C76.716,101.508,76.392,102.361,76.277,103.49z"/>
			<path fill="#00FF00" stroke="#00FF00" stroke-width="0.7572" stroke-miterlimit="10" d="M99.197,106.997
				c0,0.926-0.225,1.718-0.675,2.375c-0.45,0.659-1.115,1.158-1.994,1.498c-0.879,0.339-1.948,0.509-3.208,0.509
				c-1.203,0-2.232-0.185-3.091-0.552c-0.859-0.368-1.493-0.83-1.902-1.381c-0.409-0.552-0.614-1.106-0.614-1.663
				c0-0.367,0.131-0.682,0.393-0.944c0.262-0.261,0.593-0.393,0.994-0.393c0.352,0,0.622,0.085,0.81,0.258
				c0.188,0.172,0.369,0.413,0.541,0.724c0.343,0.597,0.754,1.043,1.233,1.337c0.479,0.295,1.13,0.442,1.957,0.442
				c0.671,0,1.221-0.149,1.651-0.448c0.429-0.298,0.644-0.64,0.644-1.024c0-0.589-0.223-1.019-0.668-1.288
				c-0.446-0.27-1.181-0.526-2.203-0.772c-1.153-0.287-2.092-0.587-2.816-0.902c-0.724-0.314-1.303-0.73-1.736-1.246
				c-0.434-0.514-0.65-1.148-0.65-1.901c0-0.671,0.2-1.304,0.601-1.901c0.4-0.597,0.991-1.074,1.773-1.429
				c0.781-0.356,1.724-0.534,2.828-0.534c0.867,0,1.646,0.089,2.337,0.27c0.691,0.18,1.268,0.421,1.729,0.724
				c0.462,0.303,0.814,0.638,1.056,1.005c0.241,0.368,0.362,0.729,0.362,1.08c0,0.384-0.129,0.699-0.387,0.945
				s-0.624,0.368-1.098,0.368c-0.344,0-0.636-0.099-0.877-0.295c-0.241-0.195-0.517-0.491-0.828-0.884
				c-0.254-0.327-0.552-0.589-0.896-0.785c-0.343-0.196-0.81-0.294-1.398-0.294c-0.605,0-1.109,0.129-1.509,0.387
				s-0.601,0.578-0.601,0.963c0,0.352,0.147,0.641,0.441,0.865s0.691,0.411,1.19,0.558c0.499,0.148,1.187,0.327,2.061,0.54
				c1.039,0.254,1.888,0.558,2.547,0.908c0.658,0.351,1.157,0.767,1.497,1.246C99.027,105.839,99.197,106.385,99.197,106.997z"/>
		</g>
	</g>
</g>
</svg>
