<?xml version="1.0" encoding="utf-8"?>
<!-- Generator: Adobe Illustrator 16.0.0, SVG Export Plug-In . SVG Version: 6.00 Build 0)  -->
<!DOCTYPE svg PUBLIC "-//W3C//DTD SVG 1.1//EN" "http://www.w3.org/Graphics/SVG/1.1/DTD/svg11.dtd">
<svg version="1.1" id="Layer_1" xmlns="http://www.w3.org/2000/svg" xmlns:xlink="http://www.w3.org/1999/xlink" x="0px" y="0px"
	 width="204.333px" height="48.667px" viewBox="119.833 37.333 204.333 48.667"
	 enable-background="new 119.833 37.333 204.333 48.667" xml:space="preserve">
<g>
	<path fill="#FF0000" d="M38.08-174.748v24.199h162.86l-8.465,9.837H38.08v38.344c0,8.814,2.494,13.813,9.695,13.813
		c3.378,0,5.872-0.444,7.494-0.879l0.587,9.695c-2.501,1.028-6.466,1.764-11.459,1.764c-6.024,0-10.875-1.914-13.963-5.438
		c-3.671-3.817-4.992-10.14-4.992-18.511v-38.787H14.425v-9.837h11.017v-24.199L38.08-174.748L38.08-174.748z"/>
	<path fill="#FF0000" d="M66.687-107.999c0-4.881-0.072-2.303-0.072-6.214l6.321-6.714l0.259,8.129h0.341
		c1.885-5.559,6.418-9.07,11.471-9.07c0.855,0,1.453,0.092,2.141,0.256v7.104c-0.771-0.164-1.544-0.256-2.571-0.256
		c-5.304,0-9.074,4.025-10.104,9.681c-0.167,1.021-0.338,2.224-0.338,3.499v22.092h-7.448V-107.999L66.687-107.999z"/>
	<path fill="#FF0000" d="M103.435-132.57c0.09,2.571-1.795,4.623-4.792,4.623c-2.653,0-4.538-2.052-4.538-4.623
		c0-2.649,1.972-4.708,4.712-4.708C101.64-137.278,103.435-135.219,103.435-132.57z M95.05-79.493v-34.434l7.529-7v33.434
		L95.05-79.493z"/>
	<path fill="#FF0000" d="M114.757-79.493c0.169-2.822,0.34-7.021,0.34-10.699v-43.063l7.446-7v26.007h0.174
		c2.651-4.625,7.448-7.62,14.123-7.62c10.275,0,17.549,8.563,17.467,21.145c0,14.813-9.333,22.169-18.579,22.169
		c-5.993,0-10.785-2.306-13.866-7.786h-0.256l-0.348,0.85L114.757-79.493z M122.543-96.104c0,0.947,0.174,1.885,0.343,2.74
		c1.459,5.225,5.819,8.819,11.297,8.819c7.878,0,12.583-6.418,12.583-15.925c0-8.305-4.274-15.408-12.324-15.408
		c-5.133,0-9.93,3.514-11.467,9.246c-0.174,0.855-0.432,1.885-0.432,3.083V-96.104L122.543-96.104z"/>
	<path fill="#FF0000" d="M168.056-98.84c0.174,10.188,6.679,14.383,14.209,14.383c5.396,0,8.648-0.946,11.474-2.146l1.286,5.397
		c-2.658,1.193-7.197,2.566-13.789,2.566c-12.75,0-20.372-8.392-20.372-20.89c0-12.498,7.366-22.343,19.434-22.343
		c13.522,0,17.118,11.903,17.118,19.521c0,1.536-0.169,2.739-0.258,3.509L168.056-98.84L168.056-98.84z M190.143-104.233
		c0.082-4.795-1.967-12.242-10.444-12.242c-7.619,0-10.957,7.021-11.561,12.242H190.143z"/>
	<path fill="#FFFFFF" stroke="#000000" stroke-miterlimit="10" d="M280.909-82.679c-4.703,2.354-14.104,4.703-26.152,4.703
		c-27.913,0-48.925-17.631-48.925-50.098c0-30.999,21.012-52.003,51.714-52.003c12.338,0,20.125,2.641,23.503,4.408l-3.084,10.43
		c-4.848-2.355-11.754-4.115-19.979-4.115c-23.211,0-38.636,14.84-38.636,40.84c0,24.241,13.953,39.813,38.05,39.813
		c7.781,0,15.72-1.619,20.859-4.113L280.909-82.679z"/>
	<path fill="#FFFFFF" stroke="#000000" stroke-miterlimit="10" d="M301.637-122.136l-5.992,18.145h-7.705l19.601-57.7h8.987
		l19.689,57.7h-7.961l-6.161-18.145H301.637z M320.553-127.964l-5.648-16.604c-1.28-3.768-2.143-7.189-2.997-10.534h-0.168
		c-0.855,3.429-1.804,6.938-2.914,10.449l-5.65,16.688L320.553-127.964L320.553-127.964z"/>
	<path fill="#FFFFFF" stroke="#000000" stroke-miterlimit="10" d="M343.717-113.069c3.342,2.055,8.219,3.771,13.359,3.771
		c7.615,0,12.066-4.021,12.066-9.84c0-5.398-3.078-8.478-10.873-11.477c-9.416-3.337-15.24-8.216-15.24-16.35
		c0-8.992,7.453-15.667,18.666-15.667c5.906,0,10.188,1.37,12.756,2.825l-2.055,6.075c-1.886-1.022-5.73-2.738-10.957-2.738
		c-7.879,0-10.875,4.712-10.875,8.649c0,5.395,3.516,8.044,11.475,11.13c9.76,3.763,14.729,8.475,14.729,16.942
		c0,8.907-6.594,16.611-20.207,16.611c-5.563,0-11.645-1.629-14.729-3.679L343.717-113.069z"/>
	<path fill="#FFFFFF" stroke="#000000" stroke-miterlimit="10" d="M397.956-155.358h-17.549v-6.333h42.719v6.333h-17.641v51.367
		h-7.529V-155.358z"/>
	<path fill="#FFFFFF" stroke="#000000" stroke-miterlimit="10" d="M459.465-131.045h-22.43v20.799h24.996v6.255h-32.439v-57.701
		h31.158v6.249h-23.715v18.237h22.43V-131.045z"/>
	<path fill="#FFFFFF" stroke="#000000" stroke-miterlimit="10" d="M471.75-160.921c3.76-0.771,9.16-1.196,14.297-1.196
		c7.959,0,13.098,1.455,16.689,4.708c2.907,2.566,4.537,6.508,4.537,10.957c0,7.622-4.789,12.67-10.869,14.727v0.256
		c4.451,1.54,7.104,5.646,8.477,11.642c1.885,8.047,3.254,13.614,4.447,15.838h-7.705c-0.941-1.625-2.223-6.593-3.846-13.785
		c-1.711-7.955-4.802-10.954-11.563-11.209H479.2v24.995h-7.447v-56.932L471.75-160.921L471.75-160.921z M479.2-134.639h7.617
		c7.965,0,13.01-4.367,13.01-10.959c0-7.445-5.39-10.7-13.269-10.782c-3.596,0-6.166,0.341-7.358,0.681V-134.639z"/>
</g>
<g>
	<path fill="#FF0000" d="M134.15,38.708v9.094h73.779v4.384H134.15v21.247c0,3.926,1.112,6.15,4.318,6.15
		c1.505,0,2.617-0.196,3.336-0.393l0.262,4.318c-1.113,0.457-2.879,0.785-5.104,0.785c-2.682,0-4.841-0.851-6.215-2.421
		c-1.636-1.702-2.225-4.515-2.225-8.244V52.185h-5.835l-1.393-4.384h7.228v-7.125L134.15,38.708z"/>
	<path fill="#FF0000" d="M146.879,65.316c0-2.174-0.038-4.043-0.153-5.76h2.937l0.115,3.624h0.152
		c0.84-2.479,2.861-4.043,5.112-4.043c0.381,0,0.648,0.038,0.954,0.114v3.166c-0.344-0.076-0.687-0.114-1.145-0.114
		c-2.365,0-4.043,1.793-4.5,4.311c-0.077,0.458-0.153,0.991-0.153,1.564v9.841h-3.318L146.879,65.316L146.879,65.316z"/>
	<path fill="#FF0000" d="M163.242,55.561c0.038,1.144-0.801,2.06-2.137,2.06c-1.182,0-2.021-0.916-2.021-2.06
		c0-1.183,0.877-2.098,2.098-2.098C162.441,53.462,163.242,54.377,163.242,55.561z M159.504,78.019V59.557h3.356v18.462H159.504z"/>
	<path fill="#FF0000" d="M168.276,78.019c0.076-1.259,0.153-3.128,0.153-4.768V53.915h3.318v8.617h0.076
		c1.183-2.059,3.318-3.394,6.294-3.394c4.577,0,7.819,3.814,7.781,9.421c0,6.6-4.158,9.88-8.277,9.88c-2.67,0-4.807-1.03-6.18-3.472
		h-0.114l-0.153,3.052H168.276L168.276,78.019z M171.748,70.618c0,0.42,0.076,0.84,0.153,1.222c0.648,2.326,2.593,3.929,5.035,3.929
		c3.51,0,5.607-2.86,5.607-7.096c0-3.7-1.907-6.866-5.493-6.866c-2.289,0-4.425,1.564-5.111,4.12
		c-0.077,0.382-0.191,0.839-0.191,1.374V70.618L171.748,70.618z"/>
	<path fill="#FF0000" d="M192,69.398c0.076,4.539,2.976,6.408,6.332,6.408c2.403,0,3.853-0.42,5.111-0.954l0.573,2.404
		c-1.183,0.533-3.205,1.144-6.142,1.144c-5.684,0-9.079-3.738-9.079-9.308s3.28-9.956,8.659-9.956c6.026,0,7.629,5.302,7.629,8.697
		c0,0.687-0.076,1.221-0.114,1.564H192z M201.842,66.995c0.038-2.137-0.877-5.455-4.654-5.455c-3.395,0-4.883,3.127-5.15,5.455
		H201.842z"/>
	<path fill="#00D404" d="M242.245,82.199c-2.094,1.047-6.281,2.094-11.646,2.094c-12.431,0-21.787-7.851-21.787-22.31
		c0-13.806,9.356-23.161,23.03-23.161c5.495,0,8.964,1.178,10.468,1.963l-1.373,4.645c-2.159-1.047-5.234-1.833-8.898-1.833
		c-10.338,0-17.208,6.608-17.208,18.189c0,10.795,6.215,17.729,16.946,17.729c3.468,0,7.001-0.72,9.291-1.83L242.245,82.199z"/>
	<path fill="#00D404" d="M257.409,77.424l-0.268-2.327h-0.114c-1.03,1.448-3.013,2.746-5.645,2.746
		c-3.739,0-5.646-2.633-5.646-5.303c0-4.462,3.967-6.904,11.1-6.865v-0.382c0-1.526-0.42-4.273-4.196-4.273
		c-1.717,0-3.51,0.535-4.806,1.374l-0.764-2.212c1.525-0.992,3.738-1.641,6.065-1.641c5.646,0,7.019,3.853,7.019,7.553v6.904
		c0,1.602,0.076,3.165,0.305,4.425L257.409,77.424L257.409,77.424z M256.912,68.001c-3.662-0.076-7.819,0.572-7.819,4.158
		c0,2.174,1.449,3.204,3.166,3.204c2.403,0,3.929-1.525,4.462-3.09c0.115-0.343,0.191-0.726,0.191-1.068V68.001L256.912,68.001z"/>
	<path fill="#00D404" d="M265.112,73.99c0.992,0.647,2.747,1.335,4.425,1.335c2.441,0,3.586-1.221,3.586-2.746
		c0-1.603-0.954-2.479-3.433-3.395c-3.319-1.184-4.884-3.015-4.884-5.227c0-2.976,2.404-5.417,6.371-5.417
		c1.869,0,3.51,0.534,4.54,1.144l-0.84,2.441c-0.725-0.458-2.06-1.068-3.776-1.068c-1.983,0-3.089,1.144-3.089,2.518
		c0,1.524,1.105,2.212,3.509,3.127c3.203,1.221,4.844,2.823,4.844,5.569c0,3.242-2.518,5.531-6.904,5.531
		c-2.021,0-3.891-0.496-5.188-1.26L265.112,73.99z"/>
	<path fill="#00D404" d="M284.718,51.871v7.09h4.806v2.555h-4.806v9.956c0,2.29,0.648,3.586,2.517,3.586
		c0.879,0,1.526-0.114,1.947-0.229l0.151,2.519c-0.649,0.267-1.679,0.457-2.976,0.457c-1.563,0-2.822-0.496-3.624-1.412
		c-0.954-0.991-1.297-2.631-1.297-4.806V61.516h-2.86v-2.555h2.86v-6.212L284.718,51.871z"/>
	<path fill="#00D404" d="M294.94,68.802c0.076,4.539,2.975,6.408,6.332,6.408c2.402,0,3.853-0.419,5.11-0.954l0.572,2.404
		c-1.183,0.534-3.204,1.145-6.142,1.145c-5.683,0-9.078-3.738-9.078-9.308s3.281-9.956,8.659-9.956c6.026,0,7.629,5.302,7.629,8.697
		c0,0.687-0.076,1.221-0.113,1.563H294.94z M304.781,66.398c0.038-2.136-0.878-5.454-4.653-5.454c-3.396,0-4.883,3.128-5.15,5.454
		H304.781z"/>
	<path fill="#00D404" d="M312.18,64.721c0-2.175-0.038-4.043-0.152-5.76h2.937l0.115,3.623h0.152c0.838-2.479,2.86-4.042,5.11-4.042
		c0.383,0,0.648,0.039,0.954,0.114v3.166c-0.343-0.076-0.687-0.115-1.144-0.115c-2.365,0-4.044,1.794-4.502,4.312
		c-0.075,0.457-0.151,0.991-0.151,1.563v9.842h-3.319V64.721L312.18,64.721z"/>
</g>
<text transform="matrix(1 0 0 1 19.4395 309.0605)" font-family="'MyriadPro-Regular'" font-size="109.8131">tribeCaster</text>
</svg>
