<?xml version="1.0" encoding="utf-8"?>
<!-- Generator: Adobe Illustrator 16.0.0, SVG Export Plug-In . SVG Version: 6.00 Build 0)  -->
<!DOCTYPE svg PUBLIC "-//W3C//DTD SVG 1.1//EN" "http://www.w3.org/Graphics/SVG/1.1/DTD/svg11.dtd">
<svg version="1.1" xmlns="http://www.w3.org/2000/svg" xmlns:xlink="http://www.w3.org/1999/xlink" x="0px" y="0px"
	 width="539.879px" height="123px" viewBox="0 0 539.879 123" enable-background="new 0 0 539.879 123" xml:space="preserve">
<g id="Layer_1">
</g>
<g id="Layer_2">
	<g>
		<path fill="#FFFFFF" stroke="#FFFFFF" stroke-width="8" stroke-miterlimit="10" d="M44.824,13.114v24.199H61.84l6.308,9.837
			H44.824v38.342c0,8.816,2.493,13.814,9.695,13.814c3.378,0,5.872-0.443,7.493-0.879l0.587,9.691
			c-2.501,1.029-6.466,1.768-11.459,1.768c-6.024,0-10.874-1.914-13.963-5.439c-3.671-3.816-4.992-10.139-4.992-18.51V47.151H21.168
			l-11-9.837h22.017v-24.2H44.824z"/>
		<path fill="#FFFFFF" stroke="#FFFFFF" stroke-width="8" stroke-miterlimit="10" d="M75.128,56.557
			c0-4.881-0.071-6.133-0.071-10.044l6.32-6.714l0.259,11.959h0.341c1.885-5.559,6.418-9.071,11.472-9.071
			c0.855,0,1.452,0.092,2.141,0.256v7.104c-0.771-0.164-1.544-0.256-2.571-0.256c-5.304,0-9.074,4.025-10.104,9.681
			c-0.167,1.02-0.338,2.223-0.338,3.499v22.092h-7.448L75.128,56.557L75.128,56.557z"/>
		<path fill="#FFFFFF" stroke="#FFFFFF" stroke-width="8" stroke-miterlimit="10" d="M112.876,32.986
			c0.09,2.571-1.795,4.623-4.792,4.623c-2.653,0-4.538-2.052-4.538-4.623c0-2.649,1.972-4.708,4.713-4.708
			C111.082,28.278,112.876,30.337,112.876,32.986z M104.492,85.063V46.763l7.529-7v45.299H104.492L104.492,85.063z"/>
		<path fill="#FFFFFF" stroke="#FFFFFF" stroke-width="8" stroke-miterlimit="10" d="M123.199,85.063
			c0.169-2.819,0.34-7.021,0.34-10.697V34.301l7.446-7v23.007h0.174c2.65-4.625,7.447-7.621,14.122-7.621
			c10.275,0,17.549,8.563,17.467,21.145c0,14.813-9.333,22.169-18.578,22.169c-5.993,0-10.785-2.306-13.866-7.786h-0.257
			l-0.348,6.85h-6.5V85.063L123.199,85.063z M130.985,68.451c0,0.947,0.174,1.885,0.343,2.74c1.46,5.225,5.819,8.817,11.297,8.817
			c7.878,0,12.583-6.418,12.583-15.925c0-8.304-4.274-15.408-12.324-15.408c-5.133,0-9.93,3.514-11.467,9.246
			c-0.174,0.855-0.432,1.885-0.432,3.083V68.451z"/>
		<path fill="#FFFFFF" stroke="#FFFFFF" stroke-width="8" stroke-miterlimit="10" d="M176.498,65.716
			c0.174,10.188,6.679,14.384,14.209,14.384c5.396,0,8.648-0.947,11.474-2.146l1.286,5.397c-2.658,1.191-7.197,2.564-13.789,2.564
			c-12.75,0-20.371-8.393-20.371-20.891c0-12.497,7.365-22.341,19.434-22.341c13.522,0,17.118,11.903,17.118,19.521
			c0,1.537-0.169,2.738-0.258,3.509L176.498,65.716L176.498,65.716z M198.584,60.322c0.082-4.795-1.967-12.242-10.444-12.242
			c-7.619,0-10.956,7.022-11.561,12.242H198.584z"/>
		<path fill="#FFFFFF" stroke="#FFFFFF" stroke-width="8" stroke-miterlimit="10" d="M289.35,107.078
			c-4.703,2.354-14.104,4.703-26.15,4.703c-27.913,0-48.925-17.631-48.925-50.098c0-30.999,21.012-52.003,51.714-52.003
			c12.338,0,20.125,2.641,23.504,4.408l-3.085,10.43c-4.849-2.356-11.755-4.115-19.979-4.115c-23.211,0-38.636,14.84-38.636,40.84
			c0,24.241,13.953,39.813,38.051,39.813c7.782,0,15.72-1.619,20.86-4.113L289.35,107.078z"/>
		<path fill="#FFFFFF" stroke="#FFFFFF" stroke-width="8" stroke-miterlimit="10" d="M310.079,67.621l-5.992,18.145h-7.705
			l19.601-57.7h8.988l19.688,57.7H336.7l-6.162-18.145H310.079z M328.995,61.793l-5.647-16.604
			c-1.281-3.768-2.144-7.189-2.998-10.534h-0.168c-0.854,3.429-1.804,6.938-2.914,10.449l-5.647,16.688L328.995,61.793
			L328.995,61.793z"/>
		<path fill="#FFFFFF" stroke="#FFFFFF" stroke-width="8" stroke-miterlimit="10" d="M352.161,76.688
			c3.34,2.057,8.217,3.771,13.356,3.771c7.616,0,12.067-4.021,12.067-9.84c0-5.398-3.078-8.479-10.875-11.477
			c-9.414-3.337-15.237-8.216-15.237-16.35c0-8.992,7.452-15.667,18.666-15.667c5.905,0,10.188,1.37,12.754,2.825l-2.056,6.075
			c-1.885-1.022-5.729-2.738-10.955-2.738c-7.879,0-10.875,4.712-10.875,8.649c0,5.394,3.515,8.044,11.476,11.13
			c9.759,3.763,14.728,8.475,14.728,16.942c0,8.907-6.594,16.611-20.207,16.611c-5.563,0-11.644-1.629-14.728-3.68L352.161,76.688z"
			/>
		<path fill="#FFFFFF" stroke="#FFFFFF" stroke-width="8" stroke-miterlimit="10" d="M406.396,34.399h-17.549v-6.333h42.72v6.333
			h-17.643v51.367h-7.528V34.399z"/>
		<path fill="#FFFFFF" stroke="#FFFFFF" stroke-width="8" stroke-miterlimit="10" d="M467.907,58.712h-22.432v20.799h24.996v6.255
			h-32.438V28.065h31.16v6.249h-23.719v18.237h22.432V58.712L467.907,58.712z"/>
		<path fill="#FFFFFF" stroke="#FFFFFF" stroke-width="8" stroke-miterlimit="10" d="M480.194,28.836
			c3.76-0.771,9.156-1.196,14.295-1.196c7.961,0,13.098,1.455,16.688,4.708c2.908,2.566,4.537,6.508,4.537,10.957
			c0,7.622-4.789,12.67-10.869,14.727v0.256c4.451,1.54,7.104,5.647,8.479,11.642c1.885,8.047,3.252,13.614,4.443,15.838h-7.701
			c-0.943-1.625-2.227-6.593-3.85-13.785c-1.711-7.955-4.801-10.954-11.561-11.208h-7.021V85.77h-7.446V28.836H480.194z
			 M487.641,55.118h7.615c7.965,0,13.012-4.367,13.012-10.959c0-7.445-5.389-10.7-13.268-10.782c-3.596,0-6.166,0.341-7.359,0.681
			V55.118L487.641,55.118z"/>
		<path fill="#FF0000" d="M44.824,13.114v24.199H61.84l6.308,9.837H44.824v38.342c0,8.816,2.493,13.814,9.695,13.814
			c3.378,0,5.872-0.443,7.493-0.879l0.587,9.691c-2.501,1.029-6.466,1.768-11.459,1.768c-6.024,0-10.874-1.914-13.963-5.439
			c-3.671-3.816-4.992-10.139-4.992-18.51V47.151H21.168l-11-9.837h22.017v-24.2H44.824z"/>
		<path fill="#FF0000" d="M75.128,56.557c0-4.881-0.071-6.133-0.071-10.044l6.32-6.714l0.259,11.959h0.341
			c1.885-5.559,6.418-9.071,11.472-9.071c0.855,0,1.452,0.092,2.141,0.256v7.104c-0.771-0.164-1.544-0.256-2.571-0.256
			c-5.304,0-9.074,4.025-10.104,9.681c-0.167,1.02-0.338,2.223-0.338,3.499v22.092h-7.448L75.128,56.557L75.128,56.557z"/>
		<path fill="#FF0000" d="M112.876,32.986c0.09,2.571-1.795,4.623-4.792,4.623c-2.653,0-4.538-2.052-4.538-4.623
			c0-2.649,1.972-4.708,4.713-4.708C111.082,28.278,112.876,30.337,112.876,32.986z M104.492,85.063V46.763l7.529-7v45.299H104.492
			L104.492,85.063z"/>
		<path fill="#FF0000" d="M123.199,85.063c0.169-2.819,0.34-7.021,0.34-10.697V34.301l7.446-7v23.007h0.174
			c2.65-4.625,7.447-7.621,14.122-7.621c10.275,0,17.549,8.563,17.467,21.145c0,14.813-9.333,22.169-18.578,22.169
			c-5.993,0-10.785-2.306-13.866-7.786h-0.257l-0.348,6.85h-6.5V85.063L123.199,85.063z M130.985,68.451
			c0,0.947,0.174,1.885,0.343,2.74c1.46,5.225,5.819,8.817,11.297,8.817c7.878,0,12.583-6.418,12.583-15.925
			c0-8.304-4.274-15.408-12.324-15.408c-5.133,0-9.93,3.514-11.467,9.246c-0.174,0.855-0.432,1.885-0.432,3.083V68.451z"/>
		<path fill="#FF0000" d="M176.498,65.716c0.174,10.188,6.679,14.384,14.209,14.384c5.396,0,8.648-0.947,11.474-2.146l1.286,5.397
			c-2.658,1.191-7.197,2.564-13.789,2.564c-12.75,0-20.371-8.393-20.371-20.891c0-12.497,7.365-22.341,19.434-22.341
			c13.522,0,17.118,11.903,17.118,19.521c0,1.537-0.169,2.738-0.258,3.509L176.498,65.716L176.498,65.716z M198.584,60.322
			c0.082-4.795-1.967-12.242-10.444-12.242c-7.619,0-10.956,7.022-11.561,12.242H198.584z"/>
		<path fill="#00BF09" d="M289.35,107.078c-4.703,2.354-14.104,4.703-26.15,4.703c-27.913,0-48.925-17.631-48.925-50.098
			c0-30.999,21.012-52.003,51.714-52.003c12.338,0,20.125,2.641,23.504,4.408l-3.085,10.43c-4.849-2.356-11.755-4.115-19.979-4.115
			c-23.211,0-38.636,14.84-38.636,40.84c0,24.241,13.953,39.813,38.051,39.813c7.782,0,15.72-1.619,20.86-4.113L289.35,107.078z"/>
		<path fill="#00BF09" d="M310.079,67.621l-5.992,18.145h-7.705l19.601-57.7h8.988l19.688,57.7H336.7l-6.162-18.145H310.079z
			 M328.995,61.793l-5.647-16.604c-1.281-3.768-2.144-7.189-2.998-10.534h-0.168c-0.854,3.429-1.804,6.938-2.914,10.449
			l-5.647,16.688L328.995,61.793L328.995,61.793z"/>
		<path fill="#00BF09" d="M352.161,76.688c3.34,2.057,8.217,3.771,13.356,3.771c7.616,0,12.067-4.021,12.067-9.84
			c0-5.398-3.078-8.479-10.875-11.477c-9.414-3.337-15.237-8.216-15.237-16.35c0-8.992,7.452-15.667,18.666-15.667
			c5.905,0,10.188,1.37,12.754,2.825l-2.056,6.075c-1.885-1.022-5.729-2.738-10.955-2.738c-7.879,0-10.875,4.712-10.875,8.649
			c0,5.394,3.515,8.044,11.476,11.13c9.759,3.763,14.728,8.475,14.728,16.942c0,8.907-6.594,16.611-20.207,16.611
			c-5.563,0-11.644-1.629-14.728-3.68L352.161,76.688z"/>
		<path fill="#00BF09" d="M406.396,34.399h-17.549v-6.333h42.72v6.333h-17.643v51.367h-7.528V34.399z"/>
		<path fill="#00BF09" d="M467.907,58.712h-22.432v20.799h24.996v6.255h-32.438V28.065h31.16v6.249h-23.719v18.237h22.432V58.712
			L467.907,58.712z"/>
		<path fill="#00BF09" d="M480.194,28.836c3.76-0.771,9.156-1.196,14.295-1.196c7.961,0,13.098,1.455,16.688,4.708
			c2.908,2.566,4.537,6.508,4.537,10.957c0,7.622-4.789,12.67-10.869,14.727v0.256c4.451,1.54,7.104,5.647,8.479,11.642
			c1.885,8.047,3.252,13.614,4.443,15.838h-7.701c-0.943-1.625-2.227-6.593-3.85-13.785c-1.711-7.955-4.801-10.954-11.561-11.208
			h-7.021V85.77h-7.446V28.836H480.194z M487.641,55.118h7.615c7.965,0,13.012-4.367,13.012-10.959
			c0-7.445-5.389-10.7-13.268-10.782c-3.596,0-6.166,0.341-7.359,0.681V55.118L487.641,55.118z"/>
	</g>
</g>
</svg>
