<?xml version="1.0" encoding="utf-8"?>
<!-- Generator: Adobe Illustrator 16.0.0, SVG Export Plug-In . SVG Version: 6.00 Build 0)  -->
<!DOCTYPE svg PUBLIC "-//W3C//DTD SVG 1.1//EN" "http://www.w3.org/Graphics/SVG/1.1/DTD/svg11.dtd">
<svg version="1.1" id="Layer_1" xmlns="http://www.w3.org/2000/svg" xmlns:xlink="http://www.w3.org/1999/xlink" x="0px" y="0px"
	 width="265.5px" height="252.5px" viewBox="0 0 265.5 252.5" enable-background="new 0 0 265.5 252.5" xml:space="preserve">
<g>
	<linearGradient id="SVGID_1_" gradientUnits="userSpaceOnUse" x1="-116.8442" y1="-188.5874" x2="-116.8442" y2="-222.4633">
		<stop  offset="0" style="stop-color:#FFFFFF"/>
		<stop  offset="1" style="stop-color:#B7C6CE"/>
	</linearGradient>
	<polygon opacity="0.8" fill="url(#SVGID_1_)" points="-123.216,-207.169 -123.216,-190.118 -118.83,-194.504 -115.642,-188.36 
		-113.33,-189.559 -116.396,-195.473 -110.472,-195.473 	"/>
	<linearGradient id="SVGID_2_" gradientUnits="userSpaceOnUse" x1="-125.9272" y1="-188.5874" x2="-125.9272" y2="-222.463">
		<stop  offset="0" style="stop-color:#FFFFFF"/>
		<stop  offset="1" style="stop-color:#B7C6CE"/>
	</linearGradient>
	<path opacity="0.8" fill="url(#SVGID_2_)" d="M-110.099-204.034c0.031-0.225,0.068-0.447,0.092-0.674
		c0.049-0.51,0.08-1.027,0.08-1.55c0-0.51-0.027-1.014-0.076-1.512c-0.023-0.264-0.068-0.521-0.105-0.78
		c-0.027-0.183-0.043-0.37-0.076-0.551c-0.002-0.002-0.006-0.004-0.01-0.005c-1.178-6.55-6.334-11.704-12.883-12.884
		c-0.002-0.003-0.004-0.008-0.006-0.012c-0.209-0.037-0.422-0.057-0.635-0.086c-0.23-0.032-0.457-0.071-0.689-0.093
		c-0.5-0.049-1.006-0.077-1.52-0.077c-0.512,0-1.018,0.028-1.518,0.077c-0.232,0.021-0.46,0.061-0.69,0.093
		c-0.212,0.029-0.426,0.049-0.635,0.086c-0.002,0.004-0.005,0.008-0.007,0.012c-6.548,1.18-11.703,6.334-12.882,12.883
		c-0.003,0.002-0.007,0.004-0.011,0.006c-0.035,0.193-0.052,0.393-0.08,0.589c-0.035,0.246-0.076,0.49-0.101,0.74
		c-0.048,0.499-0.076,1.003-0.076,1.514c0,0.509,0.028,1.013,0.076,1.511c0.024,0.26,0.068,0.514,0.104,0.77
		c0.027,0.188,0.044,0.379,0.077,0.564c0.003,0.002,0.007,0.004,0.011,0.006c1.179,6.547,6.334,11.701,12.881,12.881
		c0.002,0.002,0.004,0.006,0.006,0.01c0.196,0.035,0.397,0.053,0.596,0.082c0.245,0.033,0.488,0.076,0.736,0.1
		c0.499,0.047,1.002,0.076,1.512,0.076c0.018,0,0.033,0,0.049,0v-0.152v-3.576c-0.016,0-0.031,0.002-0.049,0.002
		c-0.715,0-1.413-0.074-2.094-0.193c-0.525-1.607-1.006-3.721-1.307-6.336c1.102,0.068,2.237,0.107,3.401,0.107
		c0.018,0,0.033,0,0.049,0v-2.131c-0.016,0-0.031,0.002-0.049,0.002c-1.276,0-2.476-0.043-3.6-0.119
		c-0.076-1.125-0.119-2.326-0.119-3.603c0-1.277,0.043-2.478,0.118-3.602c1.125-0.076,2.325-0.119,3.601-0.119
		c1.275,0,2.475,0.043,3.598,0.118c0.004,0.065,0.01,0.126,0.016,0.192c0.324,0.116,0.633,0.294,0.896,0.538l1.313,1.204
		c-0.018-0.59-0.051-1.163-0.088-1.734c2.621,0.301,4.738,0.782,6.348,1.308c0.117,0.683,0.191,1.38,0.191,2.095
		c0,0.712-0.066,1.41-0.186,2.089c-0.504,0.166-1.041,0.328-1.646,0.482l1.254,1.15l0,0l2.955,2.711
		c0.496-1.131,0.852-2.334,1.076-3.584c0.006-0.002,0.012-0.004,0.016-0.008C-110.148-203.62-110.128-203.829-110.099-204.034z
		 M-130.453-217.655c-0.455,1.711-0.809,3.685-1.036,5.836c-2.151,0.227-4.124,0.58-5.835,1.035
		C-136.076-213.913-133.582-216.408-130.453-217.655z M-130.454-194.862c-3.128-1.246-5.622-3.74-6.87-6.869
		c1.711,0.455,3.684,0.809,5.835,1.035C-131.262-198.545-130.908-196.573-130.454-194.862z M-131.67-202.854
		c-2.616-0.301-4.729-0.783-6.338-1.309c-0.117-0.682-0.191-1.379-0.191-2.095c0-0.715,0.074-1.412,0.191-2.095
		c1.608-0.524,3.722-1.006,6.338-1.307c-0.068,1.102-0.107,2.237-0.107,3.401C-131.777-205.094-131.738-203.958-131.67-202.854z
		 M-125.927-212.107c-1.164,0-2.299,0.038-3.401,0.106c0.301-2.616,0.781-4.729,1.307-6.338c0.682-0.118,1.379-0.192,2.094-0.192
		s1.412,0.074,2.094,0.192c0.525,1.608,1.006,3.722,1.307,6.338C-123.628-212.069-124.763-212.107-125.927-212.107z
		 M-120.373-211.82c-0.227-2.152-0.578-4.126-1.033-5.837c3.131,1.246,5.629,3.742,6.877,6.873
		C-116.242-211.24-118.218-211.594-120.373-211.82z"/>
</g>
<polygon points="-123.216,-289.656 -123.216,-260.047 -115.599,-267.665 -110.063,-256.995 -106.044,-259.077 -111.373,-269.344 
	-101.082,-269.344 "/>
<path d="M36-292.5h2v0.571c0,0.448,0.225,1.429,0.673,1.429h0.204c0.449,0,1.123-0.981,1.123-1.429v-0.571h2v0.571
	c0,0.448,0.445,1.429,0.894,1.429h0.204c0.448,0,0.902-0.981,0.902-1.429v-0.571h2v0.571c0,0.448,0.665,1.429,1.114,1.429h0.204
	c0.448,0,0.682-0.981,0.682-1.429v-0.571h3v0.571c0,0.448-0.116,1.429,0.333,1.429h0.204c0.448,0,0.462-0.981,0.462-1.429v-0.571
	h0.84l1.16,1.25v2.75h2v-3.436l-2.494-1.564H52v-1.734c0-0.448-0.014-0.266-0.462-0.266h-0.204c-0.449,0-0.333-0.182-0.333,0.266
	v1.734h-3v-1.734c0-0.448-0.234-0.266-0.682-0.266h-0.204c-0.449,0-1.114-0.182-1.114,0.266v1.734h-2v-1.734
	c0-0.448-0.454-0.266-0.902-0.266h-0.204c-0.449,0-0.894-0.182-0.894,0.266v1.734h-2v-1.734c0-0.448-0.673-0.266-1.123-0.266h-0.204
	c-0.448,0-0.673-0.182-0.673,0.266v1.734h-4v24h7.203l0.409-2H36V-292.5z"/>
<path d="M59.602-281.363L59.602-281.363c0,0,0,0,0.001-0.001c0.62-0.62,0.608-1.647-0.026-2.282l-2.454-2.612
	c-0.635-0.636-2.123-0.647-2.123-0.027v-0.215h-0.218l-9.573,9.631l-0.217,0.243l-1.661,6.608l6.567-1.636l0.61-0.618
	L59.602-281.363z M45.86-271.47l-1.054-1.109l0.834-3.33l3.595,3.593L45.86-271.47z M49.915-273.093l-3.572-3.618l8.838-8.848
	l3.571,3.619L49.915-273.093z"/>
<path fill="#FFFFFF" d="M166.954,236.409c0,0.01,2.187,3.296,2.19,3.307c3.428,6.372,12.85,8.854,19.367,5.342l27.262-13.665
	c6.289-3.176,6.672-4.961,7.558-8.579c1.098-4.492-1.065-9.166-1.065-9.166l-35.754-66.579l-1.044-2.185l-48.099-28.753
	l-2.57,55.803l0.938,6.038L166.954,236.409z M143.023,139.613l11.264-5.693l24.331,14.489l-36.924,19.881L143.023,139.613z
	 M145,176.5l38.299-20.637l31.184,57.476l-39.8,21.078L145,176.5z"/>
<g>
	<path d="M-10.217-223.868c0.054-0.39,0.122-0.773,0.159-1.167c0.088-0.888,0.143-1.785,0.143-2.694c0-0.887-0.051-1.76-0.132-2.625
		c-0.044-0.458-0.122-0.904-0.187-1.355c-0.044-0.317-0.071-0.641-0.129-0.957c-0.007-0.003-0.014-0.007-0.017-0.008
		c-2.048-11.374-10.999-20.325-22.372-22.374c-0.003-0.005-0.007-0.014-0.01-0.021c-0.363-0.064-0.736-0.098-1.102-0.149
		c-0.4-0.054-0.794-0.124-1.201-0.163c-0.869-0.083-1.747-0.132-2.636-0.132c-0.891,0-1.77,0.049-2.636,0.132
		c-0.407,0.039-0.8,0.109-1.201,0.163c-0.366,0.051-0.739,0.084-1.102,0.149c-0.003,0.007-0.007,0.014-0.01,0.021
		c-11.373,2.048-20.325,11-22.372,22.372c-0.007,0.003-0.014,0.007-0.019,0.01c-0.059,0.336-0.09,0.682-0.139,1.023
		c-0.06,0.429-0.134,0.851-0.175,1.285c-0.083,0.867-0.132,1.742-0.132,2.628c0,0.885,0.049,1.761,0.132,2.626
		c0.042,0.451,0.119,0.889,0.183,1.336c0.046,0.326,0.075,0.655,0.132,0.977c0.005,0.003,0.012,0.007,0.017,0.01
		c2.048,11.369,10.999,20.32,22.372,22.368c0.003,0.007,0.007,0.014,0.01,0.021c0.339,0.061,0.688,0.092,1.031,0.139
		c0.427,0.061,0.848,0.132,1.282,0.173c0.865,0.085,1.738,0.132,2.626,0.132c0.027,0,0.054,0,0.082,0v-0.261v-6.213
		c-0.027,0-0.054,0.003-0.082,0.003c-1.242,0-2.453-0.128-3.638-0.332c-0.913-2.792-1.747-6.461-2.269-11.006
		c1.915,0.122,3.885,0.187,5.907,0.187c0.027,0,0.054,0,0.082,0v-3.7c-0.027,0-0.054,0.003-0.082,0.003
		c-2.219,0-4.301-0.075-6.255-0.207c-0.132-1.954-0.207-4.037-0.207-6.255c0-2.218,0.075-4.302,0.207-6.254
		c1.954-0.132,4.036-0.207,6.255-0.207c2.215,0,4.294,0.075,6.244,0.205c0.01,0.114,0.021,0.221,0.027,0.334
		c0.566,0.202,1.099,0.511,1.56,0.935l2.279,2.091c-0.03-1.024-0.091-2.02-0.152-3.013c4.548,0.524,8.225,1.36,11.02,2.272
		c0.207,1.185,0.336,2.396,0.336,3.637c0,1.238-0.119,2.45-0.322,3.63c-0.878,0.285-1.812,0.57-2.863,0.834l2.177,1.998l0,0
		l5.132,4.711c0.865-1.964,1.479-4.057,1.872-6.224c0.007-0.007,0.017-0.01,0.027-0.014
		C-10.298-223.145-10.268-223.512-10.217-223.868z M-45.561-247.521c-0.791,2.971-1.406,6.398-1.799,10.134
		c-3.734,0.394-7.162,1.007-10.133,1.798C-55.328-241.022-50.995-245.355-45.561-247.521z M-45.563-207.937
		c-5.434-2.167-9.765-6.499-11.929-11.932c2.971,0.79,6.397,1.407,10.131,1.801C-46.967-214.333-46.353-210.908-45.563-207.937z
		 M-47.674-221.819c-4.543-0.522-8.213-1.357-11.004-2.269c-0.207-1.188-0.336-2.397-0.336-3.641c0-1.241,0.129-2.452,0.336-3.637
		c2.792-0.911,6.461-1.747,11.004-2.269c-0.119,1.913-0.185,3.885-0.185,5.906C-47.859-225.707-47.793-223.735-47.674-221.819z
		 M-37.7-237.887c-2.022,0-3.993,0.066-5.907,0.185c0.522-4.543,1.358-8.213,2.269-11.006c1.186-0.206,2.396-0.334,3.638-0.334
		c1.242,0,2.453,0.129,3.636,0.334c0.909,2.793,1.747,6.463,2.269,11.006C-33.708-237.82-35.679-237.887-37.7-237.887z
		 M-28.054-237.388c-0.393-3.738-1.004-7.165-1.794-10.136c5.437,2.164,9.771,6.499,11.939,11.936
		C-20.884-236.38-24.313-236.995-28.054-237.388z"/>
	<g>
		<path d="M-68.057-252.173l-1.503,1.746l-0.937-0.806l3.984-4.629l0.937,0.806l-1.519,1.764l5.193,4.47l-0.963,1.119
			L-68.057-252.173z"/>
		<path d="M-58.238-256.155c1.374,1.649,0.827,3.354-0.316,4.306c-1.272,1.059-2.978,0.997-4.175-0.44
			c-1.228-1.475-1.012-3.184,0.342-4.312C-61.051-257.714-59.375-257.519-58.238-256.155z M-61.583-253.292
			c0.722,0.866,1.69,1.167,2.382,0.592c0.645-0.537,0.567-1.549-0.185-2.452c-0.583-0.701-1.564-1.242-2.339-0.597
			C-62.526-255.082-62.204-254.039-61.583-253.292z"/>
		<path d="M-53.701-261.975c0.166,0.36,0.372,0.794,0.752,1.503l1.566,2.919c0.579,1.078,0.771,1.97,0.493,2.746
			c-0.284,0.765-0.944,1.311-1.653,1.691c-0.656,0.352-1.427,0.589-2.019,0.552l-0.243-1.136c0.43,0.014,1.088-0.08,1.712-0.415
			c0.846-0.454,1.242-1.239,0.646-2.349l-0.239-0.444l-0.021,0.011c-0.052,0.614-0.416,1.204-1.093,1.567
			c-1.279,0.687-2.756,0.118-3.54-1.342c-0.908-1.692-0.359-3.308,0.878-3.972c0.782-0.42,1.452-0.289,1.922,0.003l0.021-0.011
			l-0.316-0.716L-53.701-261.975z M-53.937-259.192c-0.062-0.116-0.141-0.237-0.229-0.326c-0.393-0.402-0.956-0.563-1.506-0.268
			c-0.729,0.392-0.928,1.315-0.366,2.362c0.471,0.878,1.295,1.348,2.11,0.911c0.486-0.261,0.739-0.805,0.637-1.35
			c-0.042-0.154-0.117-0.346-0.197-0.494L-53.937-259.192z"/>
		<path d="M-46.4-264.383c0.089,0.387,0.202,0.854,0.43,1.625l0.939,3.175c0.347,1.173,0.354,2.085-0.076,2.788
			c-0.434,0.691-1.191,1.09-1.962,1.318c-0.713,0.211-1.517,0.286-2.088,0.13l-0.006-1.162c0.418,0.102,1.081,0.143,1.76-0.058
			c0.92-0.272,1.468-0.959,1.11-2.167l-0.143-0.483l-0.023,0.007c-0.176,0.59-0.652,1.094-1.389,1.312
			c-1.392,0.412-2.722-0.446-3.191-2.034c-0.544-1.841,0.322-3.311,1.668-3.709c0.851-0.252,1.48,0.013,1.88,0.395l0.023-0.007
			l-0.164-0.765L-46.4-264.383z M-47.198-261.707c-0.038-0.126-0.09-0.261-0.158-0.366c-0.303-0.474-0.821-0.746-1.419-0.569
			c-0.794,0.235-1.176,1.099-0.839,2.238c0.282,0.955,0.994,1.583,1.879,1.321c0.529-0.156,0.887-0.638,0.898-1.191
			c-0.009-0.16-0.044-0.362-0.092-0.523L-47.198-261.707z"/>
		<path d="M-44.668-267.344l1.474-0.206l1.181,8.439l-1.474,0.206L-44.668-267.344z"/>
		<path d="M-39.709-261.803c0.054,1.055,0.889,1.497,1.824,1.481c0.684-0.011,1.174-0.115,1.615-0.291l0.232,1.016
			c-0.5,0.212-1.193,0.38-2.033,0.394c-1.895,0.032-3.03-1.113-3.059-2.9c-0.027-1.619,0.932-3.159,2.802-3.189
			c1.895-0.031,2.544,1.518,2.566,2.801c0.004,0.276-0.016,0.492-0.038,0.625L-39.709-261.803z M-37.159-262.876
			c0.003-0.54-0.251-1.423-1.235-1.407c-0.911,0.015-1.281,0.849-1.332,1.45L-37.159-262.876z"/>
		<path d="M-25.039-260.134c0.271-1.009,0.597-2.227,0.94-3.263l-0.034-0.011c-0.55,0.857-1.202,1.795-1.855,2.657l-2.185,2.98
			l-1.086-0.346l0.022-3.62c0.017-1.078,0.078-2.216,0.178-3.242l-0.023-0.007c-0.355,0.995-0.791,2.203-1.184,3.236l-1.16,3.042
			l-1.314-0.419l2.972-7.539l1.852,0.591l0.018,3.418c-0.014,0.99-0.066,1.981-0.145,2.9l0.034,0.011
			c0.472-0.769,1.038-1.633,1.623-2.441l2.047-2.747l1.829,0.583l-2.012,7.845l-1.372-0.438L-25.039-260.134z"/>
		<path d="M-21.481-257.441c-0.521,0.918-0.054,1.74,0.743,2.229c0.583,0.357,1.052,0.533,1.518,0.622l-0.349,0.982
			c-0.536-0.09-1.21-0.32-1.926-0.759c-1.615-0.991-1.958-2.566-1.023-4.089c0.847-1.38,2.481-2.164,4.076-1.186
			c1.615,0.991,1.332,2.646,0.661,3.74c-0.144,0.235-0.277,0.407-0.367,0.506L-21.481-257.441z M-18.754-256.979
			c0.292-0.454,0.552-1.335-0.286-1.85c-0.777-0.477-1.537,0.028-1.902,0.508L-18.754-256.979z"/>
		<path d="M-15.982-255.749c0.455-0.495,0.827-0.918,1.142-1.313l0.954,0.877l-0.54,0.693l0.027,0.024
			c0.494-0.165,1.335-0.142,2.051,0.516c0.751,0.69,1.082,1.89-0.168,3.251l-2.346,2.553l-1.087-0.999l2.232-2.43
			c0.568-0.618,0.769-1.298,0.177-1.841c-0.433-0.398-1.018-0.365-1.433-0.144c-0.125,0.065-0.255,0.189-0.369,0.313l-2.322,2.527
			l-1.096-1.007L-15.982-255.749z"/>
		<path d="M-9.6-245.055c-0.563,0.408-1.016,0.765-1.391,1.066l-0.76-1.05l0.677-0.579l-0.014-0.02
			c-0.488,0.042-1.312-0.073-1.924-0.918c-0.626-0.865-0.681-2.025,0.865-3.144l2.78-2.012l0.865,1.196l-2.576,1.864
			c-0.787,0.57-1.11,1.188-0.652,1.82c0.344,0.476,0.91,0.541,1.303,0.449c0.135-0.039,0.282-0.101,0.418-0.199l2.857-2.068
			l0.865,1.195L-9.6-245.055z"/>
	</g>
	<path d="M-22.701-188.713c0,0.003,0.62,0.934,0.621,0.937c0.971,1.806,3.641,2.509,5.488,1.514l7.725-3.872
		c1.782-0.9,1.891-1.406,2.142-2.431c0.311-1.273-0.302-2.597-0.302-2.597l-14.925-27.852l-0.296-0.619l-13.629-8.147l-0.729,15.813
		l0.266,1.711L-22.701-188.713z M-34.276-225.127l3.192-1.613l6.895,4.105l-10.463,5.634L-34.276-225.127z M-33.716-214.675
		l10.853-5.848l13.869,25.737l-11.278,5.973L-33.716-214.675z"/>
</g>
<g>
	<defs>
		<circle id="SVGID_3_" cx="132.112" cy="135.459" r="89.02"/>
	</defs>
	<clipPath id="SVGID_4_">
		<use xlink:href="#SVGID_3_"  overflow="visible"/>
	</clipPath>
	<path clip-path="url(#SVGID_4_)" fill="#FFFFFF" d="M229.002,148.588c0.191-1.377,0.432-2.729,0.563-4.116
		c0.312-3.135,0.503-6.3,0.503-9.508c0-3.129-0.179-6.212-0.467-9.264c-0.155-1.616-0.431-3.189-0.658-4.782
		c-0.155-1.118-0.252-2.262-0.455-3.375c-0.024-0.012-0.048-0.024-0.061-0.029c-7.229-40.139-38.815-71.728-78.95-78.957
		c-0.012-0.017-0.023-0.048-0.035-0.072c-1.281-0.228-2.598-0.346-3.89-0.525c-1.413-0.191-2.802-0.438-4.237-0.576
		c-3.065-0.293-6.166-0.467-9.302-0.467c-3.145,0-6.245,0.174-9.304,0.467c-1.436,0.138-2.824,0.384-4.237,0.576
		c-1.292,0.179-2.609,0.298-3.889,0.525c-0.012,0.024-0.024,0.048-0.036,0.072c-40.134,7.229-71.727,38.818-78.95,78.95
		c-0.024,0.012-0.048,0.024-0.067,0.036c-0.208,1.186-0.317,2.406-0.49,3.61c-0.21,1.513-0.474,3.003-0.617,4.536
		c-0.293,3.059-0.467,6.146-0.467,9.276c0,3.124,0.174,6.213,0.467,9.269c0.15,1.59,0.419,3.136,0.646,4.715
		c0.162,1.148,0.264,2.311,0.467,3.447c0.017,0.012,0.042,0.024,0.06,0.036c7.229,40.122,38.816,71.71,78.95,78.938
		c0.012,0.023,0.024,0.048,0.036,0.072c1.196,0.215,2.43,0.324,3.64,0.49c1.507,0.216,2.991,0.468,4.523,0.61
		c3.051,0.3,6.134,0.468,9.267,0.468c0.097,0,0.191,0,0.288,0v-0.922V210.16c-0.097,0-0.191,0.01-0.288,0.01
		c-4.384,0-8.655-0.453-12.839-1.172c-3.221-9.851-6.166-22.802-8.008-38.841c6.756,0.431,13.711,0.658,20.847,0.658
		c0.097,0,0.191,0,0.288,0v-13.058c-0.097,0-0.191,0.012-0.288,0.012c-7.83,0-15.179-0.264-22.073-0.73
		c-0.467-6.895-0.731-14.248-0.731-22.076c0-7.827,0.264-15.183,0.731-22.07c6.894-0.467,14.243-0.731,22.073-0.731
		c7.816,0,15.153,0.264,22.036,0.724c0.036,0.401,0.072,0.779,0.096,1.178c2,0.714,3.879,1.803,5.506,3.298l8.044,7.378
		c-0.106-3.613-0.322-7.127-0.538-10.633c16.05,1.849,29.025,4.799,38.889,8.02c0.73,4.182,1.186,8.456,1.186,12.836
		c0,4.37-0.42,8.645-1.137,12.812c-3.101,1.004-6.394,2.01-10.104,2.942l7.684,7.052l0,0l18.11,16.625
		c3.054-6.931,5.22-14.316,6.606-21.964c0.024-0.024,0.061-0.036,0.097-0.048C228.715,151.139,228.823,149.844,229.002,148.588z
		 M104.271,65.117c-2.79,10.485-4.962,22.58-6.35,35.764c-13.179,1.389-25.273,3.555-35.759,6.345
		C69.805,88.05,85.096,72.759,104.271,65.117z M104.265,204.81c-19.175-7.649-34.459-22.934-42.097-42.108
		c10.485,2.787,22.575,4.966,35.754,6.354C99.309,182.234,101.477,194.324,104.265,204.81z M96.814,155.818
		c-16.032-1.844-28.984-4.789-38.835-8.008c-0.73-4.19-1.186-8.46-1.186-12.847c0-4.38,0.455-8.654,1.186-12.836
		c9.851-3.214,22.803-6.166,38.835-8.008c-0.419,6.75-0.651,13.711-0.651,20.844C96.163,142.097,96.395,149.055,96.814,155.818z
		 M132.013,99.115c-7.136,0-14.09,0.234-20.847,0.653c1.842-16.032,4.794-28.983,8.008-38.84c4.184-0.726,8.455-1.181,12.839-1.181
		c4.382,0,8.655,0.455,12.833,1.181c3.206,9.856,6.163,22.808,8.007,38.84C146.102,99.349,139.146,99.115,132.013,99.115z
		 M166.054,100.875c-1.387-13.19-3.543-25.286-6.331-35.771c19.188,7.635,34.484,22.934,42.133,42.121
		C191.358,104.431,179.257,102.263,166.054,100.875z"/>
</g>
<g>
	<path fill="#FFFFFF" d="M51.002,185.809c1.074,0.258,2.832,1.334,4.345,3.326c4.294,5.662,0.731,12.961-6.915,18.765
		c-9.159,6.952-17.279,6.837-21.04,1.882c-1.455-1.92-1.924-3.861-1.865-4.941l5.391-2.904c0.054,1.146,0.368,2.555,1.364,3.865
		c2.23,2.94,6.869,3.018,12.844-1.517c5.376-4.081,7.286-8.595,4.779-11.898c-0.849-1.118-2.187-2.055-3.217-2.421L51.002,185.809z"
		/>
	<path fill="#FFFFFF" d="M20.318,201.273l-2.31-4.02l30.778-17.689l2.309,4.019L20.318,201.273z"/>
	<path fill="#FFFFFF" d="M17.046,185.805c1.9-0.895,3.854-0.735,4.504,0.645c0.623,1.324-0.499,2.932-2.412,3.797
		c-1.978,0.965-3.886,0.785-4.522-0.567S15.068,186.769,17.046,185.805z M47.359,176.83l-22.121,10.411l-1.976-4.194l22.121-10.41
		L47.359,176.83z"/>
	<path fill="#FFFFFF" d="M39.975,159.698c0.836,0.583,1.816,1.89,2.393,3.563c1.572,4.556-1.961,9.034-9.24,11.545
		c-6.76,2.332-13.265,1.414-15.075-3.835c-0.397-1.153-0.505-2.536-0.255-3.655l5.579-1.15c-0.199,0.65-0.261,1.543,0.137,2.696
		c0.796,2.308,4.008,2.877,7.779,1.544c4.254-1.468,5.878-3.965,5.142-6.099c-0.357-1.038-0.919-1.748-1.574-2.265L39.975,159.698z"
		/>
	<path fill="#FFFFFF" d="M25.424,156.24l-0.012-0.061c-1.044-0.146-2.095-0.322-3.095-0.509l-7.778-1.622l-1.022-5.486l10.709,3.434
		l13.187-8.661l1.044,5.606l-9.22,5.379l2.577,0.729l7.521-1.401l0.849,4.558l-34.897,6.501l-0.849-4.558L25.424,156.24z"/>
	<path fill="#FFFFFF" d="M20.215,136.598c-3.04-0.246-5.636-0.394-7.784-0.506l0.314-3.892l3.306,0.053l0.008-0.091
		c-1.493-0.763-3.68-2.255-3.475-4.81c0.155-1.916,1.873-3.307,4.466-3.739l0.004-0.062c-1.201-0.648-2.144-1.397-2.784-2.152
		c-0.731-0.886-1.057-1.83-0.969-2.925c0.23-2.857,3.694-4.751,10.97-4.163l14.353,1.16l-0.364,4.5l-13.255-1.071
		c-3.538-0.286-5.639,0.249-5.758,1.739c-0.086,1.063,1.048,1.92,2.47,2.341c0.537,0.167,1.33,0.292,1.929,0.34l14.252,1.151
		l-0.363,4.5l-13.654-1.103c-3.09-0.25-5.236,0.25-5.354,1.71c-0.096,1.186,1.343,2.005,2.566,2.38
		c0.586,0.201,1.281,0.287,1.879,0.335l14.202,1.148l-0.363,4.5L20.215,136.598z"/>
	<path fill="#FFFFFF" d="M31.116,107.381c3.063,0.745,5.037-0.644,5.649-2.72c0.449-1.521,0.475-2.848,0.205-4.232l5.112,0.873
		c0.527,1.746,0.481,3.671-0.087,5.601c-1.432,4.855-6.854,6.275-14.192,4.11c-5.946-1.754-11.853-5.944-10.387-10.916
		c1.362-4.622,7.778-4.636,13.581-2.924c1.247,0.368,2.323,0.781,2.834,0.995L31.116,107.381z M27.672,100.675
		c-1.774-0.524-4.886-0.933-5.489,1.115c-0.552,1.872,2.006,3.453,3.937,4.15L27.672,100.675z"/>
	<path fill="#FFFFFF" d="M38.635,74.582c-3.422-2.363-4.904-5.501-3.488-7.549c1.415-2.048,4.783-1.776,8.269,0.631
		c3.357,2.32,4.867,5.418,3.425,7.505C45.451,77.178,41.992,76.9,38.635,74.582z"/>
	<path fill="#FFFFFF" d="M76.392,42.183c-2.376-3.281-5.234-7.263-8.019-11.296l-0.075,0.052c1.915,3.903,3.938,8.339,5.529,12.041
		l5.411,12.244l-2.987,2.062L67.03,47.79c-2.797-2.87-6.101-6.423-9.002-9.767l-0.051,0.034c2.485,3.814,5.363,8.146,7.624,11.69
		l6.97,10.743l-3.54,2.443L50.968,34.449l5.097-3.516l8.048,8.117c2.742,2.846,5.656,5.939,8.275,8.932l0.076-0.052
		c-1.738-3.54-3.688-7.602-5.267-11.069l-4.555-10.466l4.996-3.446l20.073,27.098l-3.741,2.581L76.392,42.183z"/>
	<path fill="#FFFFFF" d="M95.362,31.704l-6.969,2.943l3.11,7.37l7.784-3.287l2.431,5.758l-12.082,5.104l-13.107-31.05l11.69-4.937
		l2.43,5.758l-7.39,3.122l2.723,6.448l6.968-2.942L95.362,31.704z"/>
	<path fill="#FFFFFF" d="M103.278,43.851l-7.261-32.908l5.302-1.169l6.829,11.143c1.957,3.204,4.053,7.042,5.765,10.556l0.09-0.02
		c-1.257-4.279-2.326-8.703-3.415-13.634l-2.121-9.619l4.169-0.919l7.261,32.908l-4.766,1.051l-7.089-11.75
		c-1.967-3.253-4.214-7.213-6.048-10.853l-0.079,0.068c1.078,4.319,2.161,8.944,3.347,14.315l2.186,9.911L103.278,43.851z"/>
	<path fill="#FFFFFF" d="M126.155,6.19l0.373,19.394c0.112,5.799,1.511,8.722,3.891,8.677c2.44-0.047,3.728-2.871,3.613-8.82
		l-0.374-19.394l4.636-0.088l0.364,18.894c0.2,10.397-2.906,15.407-8.273,15.51c-5.186,0.1-8.327-4.541-8.534-15.288l-0.362-18.795
		L126.155,6.19z"/>
	<path fill="#FFFFFF" d="M147.268,7.241c1.271-0.182,3.756-0.049,6.038,0.354c2.792,0.492,4.426,1.237,5.646,2.925
		c1.194,1.479,1.817,3.924,1.288,6.928c-0.52,2.954-2.056,5.525-4.581,6.502l-0.018,0.099c2.131,1.442,3.34,4.6,2.586,8.883
		c-0.528,3.004-1.785,5.219-3.342,6.671c-1.81,1.661-4.462,2.31-8.486,1.601c-2.252-0.397-3.891-0.94-4.868-1.365L147.268,7.241z
		 M146.976,35.466c0.433,0.178,0.974,0.273,1.754,0.411c2.072,0.364,4.13-0.593,4.745-4.089c0.589-3.348-1.009-5-3.291-5.402
		l-1.562-0.275L146.976,35.466z M149.566,20.744l1.502,0.265c2.402,0.423,3.979-0.975,4.413-3.436
		c0.442-2.512-0.495-4.048-2.567-4.412c-0.991-0.175-1.579-0.177-1.986-0.147L149.566,20.744z"/>
	<path fill="#FFFFFF" d="M165.52,36.629l-4.422,7.576l-4.509-1.699l17.772-29.312l5.707,2.152l-5.93,33.776l-4.68-1.765l1.568-8.651
		L165.52,36.629z M172.412,33.137l1.324-7.141c0.363-2,0.903-4.469,1.324-6.447l-0.057-0.021c-0.992,1.764-2.178,4.042-3.18,5.747
		l-3.664,6.26L172.412,33.137z"/>
	<path fill="#FFFFFF" d="M192.449,21.447c1.485,0.435,3.543,1.336,5.655,2.619c2.606,1.585,4.042,3.335,4.306,5.72
		c0.211,2.002-0.436,4.358-2.047,7.008c-2.234,3.674-5.355,5.229-7.414,5.207l-0.077,0.128c0.731,1.558,0.24,3.892-0.927,6.811
		c-1.427,3.58-3.166,7.673-3.502,8.99l-4.066-2.473c0.207-0.985,1.219-3.59,2.854-7.453c1.713-3.874,1.554-5.317-0.037-6.343
		l-1.198-0.729l-6.884,11.323l-3.936-2.394L192.449,21.447z M188.853,36.232l1.563,0.951c1.981,1.203,4.142,0.294,5.674-2.228
		c1.61-2.648,1.32-4.64-0.478-5.792c-0.965-0.586-1.59-0.791-1.929-0.88L188.853,36.232z"/>
	<path fill="#FFFFFF" d="M214.524,60.195c3.181-2.678,6.597-3.282,8.2-1.378c1.604,1.905,0.453,5.083-2.785,7.811
		c-3.122,2.628-6.508,3.269-8.142,1.328C210.225,66.088,211.402,62.824,214.524,60.195z"/>
	<path fill="#FFFFFF" d="M223.293,104.604c-0.977-0.513-2.418-1.99-3.393-4.294c-2.772-6.543,2.475-12.741,11.314-16.483
		c10.588-4.483,18.432-2.371,20.859,3.358c0.939,2.219,0.917,4.215,0.594,5.246l-5.939,1.488c0.229-1.124,0.271-2.565-0.371-4.082
		c-1.44-3.398-5.92-4.615-12.825-1.692c-6.215,2.632-9.176,6.535-7.558,10.354c0.547,1.292,1.613,2.529,2.523,3.139L223.293,104.604
		z"/>
	<path fill="#FFFFFF" d="M256.843,97.231l1.243,4.466l-34.195,9.521l-1.242-4.465L256.843,97.231z"/>
	<path fill="#FFFFFF" d="M224.593,114.194l24.013-4.619l0.877,4.552l-24.013,4.619L224.593,114.194z M256.189,112.993
		c-2.063,0.396-3.917-0.241-4.205-1.739c-0.277-1.438,1.207-2.717,3.275-3.083c2.155-0.445,3.961,0.202,4.242,1.668
		C259.785,111.307,258.344,112.547,256.189,112.993z"/>
	<path fill="#FFFFFF" d="M227.521,132.611c-0.666-0.771-1.294-2.279-1.441-4.042c-0.4-4.801,4.127-8.269,11.799-8.908
		c7.125-0.595,13.203,1.898,13.664,7.428c0.102,1.215-0.135,2.582-0.652,3.604l-5.69-0.26c0.353-0.58,0.634-1.43,0.532-2.645
		c-0.203-2.431-3.176-3.774-7.158-3.412c-4.484,0.374-6.674,2.393-6.486,4.641c0.092,1.094,0.461,1.92,0.969,2.582L227.521,132.611z
		"/>
	<path fill="#FFFFFF" d="M240.787,139.552l-0.003,0.061c0.978,0.397,1.952,0.825,2.878,1.249l7.149,3.472l-0.347,5.571l-9.551-5.943
		l-14.9,5.184l0.354-5.693l10.254-2.968l-2.322-1.337l-7.635-0.476l0.287-4.628l35.434,2.208l-0.287,4.628L240.787,139.552z"/>
	<path fill="#FFFFFF" d="M241.05,159.915c2.886,0.989,5.366,1.774,7.419,2.413l-1.266,3.693l-3.191-0.867l-0.029,0.087
		c1.259,1.108,3.01,3.095,2.18,5.519c-0.623,1.818-2.632,2.742-5.252,2.521l-0.021,0.057c1.005,0.926,1.733,1.885,2.169,2.775
		c0.489,1.038,0.571,2.033,0.215,3.072c-0.93,2.713-4.754,3.691-11.66,1.324l-13.625-4.668l1.464-4.271l12.583,4.313
		c3.359,1.15,5.526,1.152,6.012-0.262c0.346-1.01-0.543-2.121-1.815-2.88c-0.481-0.294-1.218-0.61-1.786-0.805l-13.529-4.636
		l1.463-4.271l12.963,4.441c2.933,1.006,5.137,1.051,5.611-0.334c0.387-1.125-0.806-2.275-1.899-2.939
		c-0.519-0.34-1.171-0.595-1.738-0.789l-13.482-4.62l1.464-4.271L241.05,159.915z"/>
	<path fill="#FFFFFF" d="M223.261,185.533c-2.786-1.479-5.041-0.62-6.147,1.241c-0.812,1.364-1.166,2.644-1.246,4.051l-4.737-2.108
		c-0.08-1.822,0.44-3.677,1.47-5.408c2.588-4.352,8.194-4.389,14.77-0.477c5.328,3.169,10.016,8.689,7.365,13.146
		c-2.463,4.143-8.685,2.572-13.885-0.521c-1.117-0.664-2.059-1.331-2.5-1.664L223.261,185.533z M224.939,192.885
		c1.59,0.947,4.504,2.111,5.595,0.276c0.997-1.678-1.089-3.842-2.788-4.995L224.939,192.885z"/>
</g>
<circle fill="none" cx="456.112" cy="111" r="94.666"/>
<text transform="matrix(-0.3694 -0.4854 0.7958 -0.6056 386.1836 175.4551)" font-family="'MyriadPro-Bold'" font-size="50">C</text>
<text transform="matrix(-0.3041 -0.5288 0.8669 -0.4986 376.042 161.7266)" font-family="'MyriadPro-Bold'" font-size="50">l</text>
<text transform="matrix(-0.2602 -0.5517 0.9045 -0.4266 372.1846 155.0771)" font-family="'MyriadPro-Bold'" font-size="50">i</text>
<text transform="matrix(-0.1992 -0.5766 0.9452 -0.3266 368.8223 148.3945)" font-family="'MyriadPro-Bold'" font-size="50">c</text>
<text transform="matrix(-0.1122 -0.5996 0.9829 -0.1839 364.5439 136.6064)" font-family="'MyriadPro-Bold'" font-size="50">k</text>
<text transform="matrix(-0.0455 -0.6083 0.9972 -0.0746 361.9033 121.1978)" font-family="'MyriadPro-Bold'" font-size="50"> </text>
<text transform="matrix(0.049 -0.608 0.9968 0.0803 360.6602 116.3311)" font-family="'MyriadPro-Bold'" font-size="50">m</text>
<text transform="matrix(0.1723 -0.5852 0.9593 0.2825 362.9736 91.8965)" font-family="'MyriadPro-Bold'" font-size="50">e</text>
<text transform="matrix(0.2348 -0.563 0.923 0.3849 367.4746 77.394)" font-family="'MyriadPro-Bold'" font-size="50"> </text>
<text transform="matrix(0.2681 -0.5479 0.8983 0.4395 369.6348 72.1763)" font-family="'MyriadPro-Bold'" font-size="50"> </text>
<text transform="matrix(0.3004 -0.5309 0.8703 0.4925 372.1084 67.0884)" font-family="'MyriadPro-Bold'" font-size="50"> </text>
<text transform="matrix(0.3465 -0.502 0.823 0.5681 366.4102 56.5903)" font-family="'MyriadPro-Bold'" font-size="77">.</text>
<text transform="matrix(0.3896 -0.4694 0.7695 0.6387 381.2295 52.9038)" font-family="'MyriadPro-Bold'" font-size="50"> </text>
<text transform="matrix(0.4169 -0.4453 0.73 0.6834 384.8477 48.5225)" font-family="'MyriadPro-Bold'" font-size="50"> </text>
<text transform="matrix(0.4425 -0.4198 0.6882 0.7255 388.6953 44.3911)" font-family="'MyriadPro-Bold'" font-size="50"> </text>
<text transform="matrix(0.5019 -0.3467 0.5684 0.8227 391.7119 40.3545)" font-family="'MyriadPro-Bold'" font-size="50">M</text>
<text transform="matrix(0.5619 -0.2375 0.3894 0.9211 411.7334 26.9004)" font-family="'MyriadPro-Bold'" font-size="50">E</text>
<text transform="matrix(0.5956 -0.1317 0.216 0.9764 425.2607 20.8018)" font-family="'MyriadPro-Bold'" font-size="50">N</text>
<text transform="matrix(0.6099 -0.0118 0.0193 0.9998 444.1172 16.5088)" font-family="'MyriadPro-Bold'" font-size="50">U</text>
<text transform="matrix(0.6008 0.1054 -0.1728 0.985 463.4678 16.1299)" font-family="'MyriadPro-Bold'" font-size="50">B</text>
<text transform="matrix(0.5706 0.2157 -0.3535 0.9354 480.1738 18.8418)" font-family="'MyriadPro-Bold'" font-size="50">A</text>
<text transform="matrix(0.5211 0.3171 -0.5198 0.8543 497.4873 25.332)" font-family="'MyriadPro-Bold'" font-size="50">R</text>
<text transform="matrix(0.4804 0.376 -0.6163 0.7875 511.9434 34.4727)" font-family="'MyriadPro-Bold'" font-size="50"> </text>
<text transform="matrix(0.4572 0.4039 -0.6621 0.7494 516.416 37.9517)" font-family="'MyriadPro-Bold'" font-size="50"> </text>
<text transform="matrix(0.4324 0.4303 -0.7054 0.7088 520.6699 41.6914)" font-family="'MyriadPro-Bold'" font-size="50"> </text>
<text transform="matrix(0.3925 0.4669 -0.7655 0.6435 532.2949 38.9727)" font-family="'MyriadPro-Bold'" font-size="77">.</text>
<text transform="matrix(0.3415 0.5054 -0.8286 0.5599 540.1963 48.4951)" font-family="'MyriadPro-Bold'" font-size="77"> </text>
<text transform="matrix(0.3022 0.5299 -0.8686 0.4954 536.835 61.4521)" font-family="'MyriadPro-Bold'" font-size="50"> </text>
<text transform="matrix(0.2374 0.5619 -0.9211 0.3892 539.7793 65.7817)" font-family="'MyriadPro-Bold'" font-size="50">C</text>
<text transform="matrix(0.163 0.5878 -0.9636 0.2672 546.1836 81.5649)" font-family="'MyriadPro-Bold'" font-size="50">l</text>
<text transform="matrix(0.1143 0.5992 -0.9823 0.1874 548.2754 89.0103)" font-family="'MyriadPro-Bold'" font-size="50">i</text>
<text transform="matrix(0.0496 0.608 -0.9967 0.0813 549.8613 96.3042)" font-family="'MyriadPro-Bold'" font-size="50">c</text>
<text transform="matrix(-0.0389 0.6088 -0.998 -0.0637 551.0693 108.8379)" font-family="'MyriadPro-Bold'" font-size="50">k</text>
<text transform="matrix(-0.1054 0.6008 -0.985 -0.1728 549.8438 124.3955)" font-family="'MyriadPro-Bold'" font-size="50"> </text>
<text transform="matrix(-0.1986 0.5768 -0.9455 -0.3256 549.8721 129.4004)" font-family="'MyriadPro-Bold'" font-size="50">m</text>
<text transform="matrix(-0.3126 0.5238 -0.8587 -0.5124 541.5498 152.4863)" font-family="'MyriadPro-Bold'" font-size="50">e</text>
<text transform="matrix(-0.3671 0.4872 -0.7987 -0.6018 533.5781 165.4189)" font-family="'MyriadPro-Bold'" font-size="50"> </text>
</svg>
